<svg width="304.316406" height="66.592651" viewBox="0 0 304.316 66.5927" fill="none" xmlns="http://www.w3.org/2000/svg" xmlns:xlink="http://www.w3.org/1999/xlink">
	<desc>
			Created with Pixso.
	</desc>
	<defs>
		<clipPath id="clip57_2445">
			<rect id="free-icon-kitchen-utensil-4790616 1" width="66.906471" height="66.592590" transform="translate(237.410156 0.000000)" fill="white" fill-opacity="0"/>
		</clipPath>
	</defs>
	<path id="YourMeal" d="M15.2012 51.4547C13.8926 51.4547 12.8936 51.1022 12.2051 50.397C11.5161 49.6918 11.1719 48.6844 11.1719 47.3748L11.1719 34.9623L0.632812 20.3762Q0.184082 19.7201 0.0537109 19.0057Q0 18.7125 0 18.4094Q0 18.2607 0.0126953 18.1096Q0.0585938 17.5504 0.267578 17.0608Q0.529297 16.4478 1.0459 15.9436Q1.1123 15.879 1.18262 15.819L1.18262 15.819Q2.09766 15.037 3.68066 15.037Q4.6001 15.037 5.37695 15.369L5.37695 15.3691Q5.64844 15.485 5.90234 15.6415Q6.93555 16.2458 7.86523 17.5555L15.3047 28.0275L22.7437 17.5555C23.3984 16.6488 24.0352 16.0109 24.6553 15.6415Q24.7852 15.5614 24.9204 15.4921L24.9209 15.4919Q25.8081 15.037 26.9282 15.037C28.0303 15.037 28.8916 15.3224 29.5112 15.8933C30.1313 16.4305 30.4585 17.119 30.4932 17.9585C30.4946 18.0009 30.4956 18.0433 30.4956 18.0859C30.4956 18.8529 30.2021 19.6499 29.6147 20.4769L19.1792 35.0187L19.1792 47.3748C19.1792 50.0947 17.853 51.4547 15.2012 51.4547ZM116.649 51.4547C115.479 51.4547 114.583 51.1357 113.963 50.4977C113.343 49.8597 113.033 48.9698 113.033 47.8281L113.033 18.6637Q113.033 17.2194 113.731 16.3124Q113.861 16.1439 114.015 15.994C114.703 15.356 115.633 15.037 116.804 15.037C117.837 15.037 118.647 15.2385 119.232 15.6415C119.852 16.0109 120.42 16.6656 120.937 17.6058L131.993 37.2979L143.048 17.6058C143.565 16.6656 144.116 16.0109 144.701 15.6415Q145.631 15.037 147.129 15.037C148.3 15.037 149.196 15.356 149.816 15.994C150.47 16.6321 150.797 17.522 150.797 18.6637L150.797 47.8281C150.797 48.9698 150.487 49.8597 149.867 50.4977C149.248 51.1357 148.352 51.4547 147.181 51.4547C146.01 51.4547 145.097 51.1357 144.443 50.4977C143.823 49.8597 143.513 48.9698 143.513 47.8281L143.513 29.412L135.041 44.2014C134.627 44.8395 134.18 45.3264 133.697 45.6622C133.25 45.9644 132.647 46.1155 131.889 46.1155C131.132 46.1155 130.512 45.9476 130.029 45.6118Q129.306 45.1082 128.738 44.2014L120.266 29.5254L120.266 47.8281C120.266 48.9698 119.956 49.8597 119.335 50.4977C118.75 51.1357 117.854 51.4547 116.649 51.4547ZM223.766 51.5555C220.701 51.5555 218.41 50.7328 216.895 49.0874C215.379 47.4083 214.622 44.9235 214.622 41.6326L214.622 18.9155C214.622 17.6394 214.949 16.6824 215.604 16.0444Q215.666 15.9838 215.731 15.9269Q216.751 15.037 218.548 15.037C219.788 15.037 220.735 15.3728 221.39 16.0444C222.078 16.6824 222.423 17.6394 222.423 18.9155L222.423 41.3303C222.423 42.7072 222.715 43.7313 223.301 44.403C223.921 45.0409 224.73 45.36 225.729 45.36C226.004 45.36 226.263 45.3431 226.504 45.3096C226.745 45.276 227.003 45.2592 227.279 45.2592C227.83 45.192 228.208 45.36 228.416 45.7629Q228.777 46.317 228.777 48.0295C228.777 49.037 228.57 49.8093 228.157 50.3466C227.744 50.8503 227.106 51.1862 226.246 51.354C225.901 51.3876 225.505 51.4211 225.058 51.4547C224.61 51.522 224.179 51.5555 223.766 51.5555ZM94.9976 51.4547C93.689 51.4547 92.6899 51.119 92.0015 50.4474C91.3125 49.7758 90.9683 48.8187 90.9683 47.5763L90.9683 29.6948C90.9683 28.4523 91.2954 27.5121 91.9497 26.874Q92.0864 26.7405 92.2373 26.6245Q93.2227 25.8666 94.791 25.8666C96.0308 25.8666 96.978 26.2024 97.6323 26.874C98.2866 27.5121 98.6138 28.4523 98.6138 29.6948L98.6138 30.5992Q99.1226 29.3669 99.9653 28.4382Q100.363 28.0001 100.835 27.6296C102.248 26.5215 104.073 25.9001 106.312 25.7659C107.172 25.6987 107.827 25.917 108.274 26.4207C108.757 26.8909 109.015 27.6799 109.049 28.7881C109.058 28.9105 109.062 29.03 109.062 29.1465C109.062 30.0197 108.833 30.7229 108.378 31.2562C107.896 31.8607 107.069 32.2301 105.898 32.3644L104.71 32.4651C102.747 32.6331 101.283 33.1871 100.319 34.1273C99.3887 35.0676 98.9238 36.4276 98.9238 38.2074L98.9238 47.5763C98.9238 48.8187 98.5796 49.7758 97.8906 50.4474C97.2363 51.119 96.272 51.4547 94.9976 51.4547ZM42.2666 51.5555C39.5459 51.5555 37.1694 51.035 35.1372 49.994C33.1396 48.953 31.5898 47.4587 30.4878 45.5111C29.3857 43.5634 28.8345 41.2632 28.8345 38.6104Q28.8345 35.6384 29.7646 33.2711C30.3843 31.6927 31.2798 30.3496 32.4507 29.2415C33.6562 28.0997 35.0854 27.2434 36.7388 26.6725C38.3921 26.0681 40.2344 25.7659 42.2666 25.7659Q46.3477 25.7659 49.3442 27.3274C51.376 28.3683 52.9434 29.8458 54.0454 31.7599C55.1816 33.6741 55.75 35.9575 55.75 38.6104Q55.75 41.6326 54.7686 44C54.1484 45.5782 53.2529 46.9382 52.082 48.08C50.9111 49.2217 49.4819 50.0947 47.7944 50.6992C46.1411 51.27 44.2983 51.5555 42.2666 51.5555ZM170.686 51.5555C167.689 51.5555 165.106 51.035 162.937 49.994C160.801 48.9194 159.148 47.4252 157.977 45.5111C156.84 43.5634 156.272 41.2799 156.272 38.6606C156.272 36.1086 156.823 33.8755 157.925 31.9614C159.027 30.0138 160.56 28.5027 162.523 27.4281C164.521 26.3199 166.776 25.7659 169.291 25.7659C171.116 25.7659 172.769 26.0681 174.25 26.6725C175.731 27.2434 177.005 28.0829 178.073 29.191C179.141 30.2656 179.95 31.592 180.501 33.1703C181.052 34.715 181.328 36.4445 181.328 38.3585C181.328 38.9965 181.121 39.4834 180.708 39.8192C180.294 40.1215 179.692 40.2726 178.9 40.2726L163.68 40.2726C163.913 41.8982 164.474 43.1575 165.365 44.0503C166.604 45.2592 168.43 45.8636 170.841 45.8636C171.667 45.8636 172.614 45.7629 173.682 45.5614C174.75 45.36 175.749 45.0409 176.678 44.6044C177.47 44.235 178.176 44.1174 178.796 44.2518C179.417 44.3525 179.898 44.6212 180.243 45.0577C180.587 45.4943 180.777 45.9979 180.811 46.5688C180.824 46.6726 180.83 46.7764 180.83 46.8802C180.83 47.3473 180.703 47.8143 180.45 48.2814C180.14 48.8187 179.623 49.2721 178.9 49.6415C177.729 50.2794 176.403 50.7496 174.922 51.0518C173.476 51.3876 172.063 51.5555 170.686 51.5555ZM194.441 51.5555Q191.651 51.5555 189.43 50.4977C187.949 49.7926 186.795 48.8354 185.968 47.6266C185.142 46.4177 184.729 45.0577 184.729 43.5466C184.729 41.7333 185.211 40.3062 186.175 39.2651C187.14 38.1906 188.707 37.4351 190.876 36.9984C193.046 36.5283 195.922 36.2933 199.503 36.2933L201.363 36.2933L201.363 35.437C201.363 33.9595 201.019 32.9185 200.33 32.314C199.642 31.676 198.47 31.3569 196.817 31.3569C195.887 31.3569 194.872 31.4745 193.77 31.7096C192.702 31.911 191.513 32.2637 190.205 32.7673C189.447 33.1031 188.775 33.1871 188.19 33.0192C187.604 32.8177 187.157 32.4819 186.847 32.0118C186.537 31.5081 186.382 30.9708 186.382 30.3999C186.382 29.7955 186.554 29.2246 186.898 28.6874C187.243 28.1165 187.811 27.6968 188.603 27.4281C190.222 26.79 191.737 26.3535 193.149 26.1184C194.596 25.8834 195.922 25.7659 197.127 25.7659C199.779 25.7659 201.949 26.1521 203.637 26.9244C205.358 27.6632 206.65 28.8217 207.511 30.3999Q208.803 32.717 208.803 36.394L208.803 47.5763C208.803 48.8187 208.493 49.7758 207.873 50.4474C207.253 51.119 206.357 51.4547 205.187 51.4547C204.016 51.4547 203.103 51.119 202.448 50.4474C201.829 49.7758 201.519 48.8187 201.519 47.5763L201.519 47.307C201.278 47.9216 200.951 48.4814 200.537 48.9866C199.882 49.7926 199.039 50.4305 198.005 50.9006C196.972 51.3373 195.784 51.5555 194.441 51.5555ZM69.8467 51.5555C67.7114 51.5555 65.9375 51.1693 64.5254 50.397C63.1133 49.6246 62.063 48.4662 61.374 46.9214Q60.3926 44.5541 60.3926 41.0785L60.3926 29.6948Q60.3926 27.8291 61.3252 26.8727Q61.3496 26.8479 61.374 26.8236C62.063 26.1857 63.0273 25.8666 64.2671 25.8666C65.5073 25.8666 66.4717 26.1857 67.1602 26.8236C67.8491 27.4617 68.1934 28.4187 68.1934 29.6948L68.1934 41.2799C68.1934 42.7574 68.5034 43.8656 69.1235 44.6044C69.7432 45.3096 70.7251 45.6622 72.0684 45.6622C73.5488 45.6622 74.7544 45.1584 75.6846 44.1511C76.6489 43.1101 77.1309 41.7501 77.1309 40.071L77.1309 29.6948Q77.1309 27.8291 78.0635 26.8727L78.0669 26.869Q78.0894 26.8461 78.1123 26.8236C78.8013 26.1857 79.7656 25.8666 81.0054 25.8666C82.2798 25.8666 83.2441 26.1857 83.8984 26.8236Q83.9771 26.8966 84.0498 26.9751L84.0503 26.9756Q84.9316 27.927 84.9316 29.6948L84.9316 47.5763C84.9316 50.162 83.6748 51.4547 81.1606 51.4547C79.9204 51.4547 78.9736 51.119 78.3193 50.4474C77.6709 49.7819 77.3438 48.8361 77.3374 47.61C76.6704 48.6434 75.8442 49.4884 74.8579 50.1451C73.4458 51.0853 71.7754 51.5555 69.8467 51.5555ZM163.666 36.3436L174.851 36.3436C174.791 35.2773 174.591 34.3707 174.25 33.6237C173.837 32.6833 173.234 31.9783 172.442 31.5081C171.685 31.038 170.737 30.8029 169.601 30.8029C168.327 30.8029 167.242 31.0884 166.346 31.6592C165.451 32.2301 164.762 33.0527 164.28 34.1273C163.985 34.7845 163.78 35.5233 163.666 36.3436ZM42.2666 45.8636C43.4028 45.8636 44.3848 45.595 45.2109 45.0577C46.0376 44.5204 46.6919 43.7313 47.1743 42.6903C47.6562 41.6157 47.8975 40.2557 47.8975 38.6104C47.8975 36.1589 47.3809 34.3624 46.3477 33.2207C45.3145 32.0454 43.9541 31.4578 42.2666 31.4578C41.1646 31.4578 40.1826 31.7096 39.3218 32.2133C38.4951 32.717 37.8408 33.5061 37.3589 34.5807C36.9111 35.6217 36.687 36.9648 36.687 38.6104C36.687 41.0616 37.2036 42.8918 38.2368 44.1007Q38.8872 44.8403 39.7012 45.2698Q40.8271 45.8636 42.2666 45.8636ZM201.363 40.2222L199.555 40.2222C197.799 40.2222 196.37 40.3229 195.268 40.5244C194.2 40.6923 193.425 40.9945 192.943 41.431C192.495 41.8676 192.271 42.472 192.271 43.2444C192.271 44.1847 192.598 44.957 193.252 45.5614C193.941 46.1659 194.923 46.4681 196.197 46.4681C197.196 46.4681 198.074 46.2499 198.832 45.8132C199.624 45.3431 200.244 44.7219 200.692 43.9496C201.14 43.1437 201.363 42.2369 201.363 41.2296L201.363 40.2222Z" fill="#FF7020" fill-opacity="1.000000" fill-rule="evenodd"/>
	<rect id="free-icon-kitchen-utensil-4790616 1" width="66.906471" height="66.592590" transform="translate(237.410156 0.000000)" fill="#FFFFFF" fill-opacity="0"/>
	<g clip-path="url(#clip57_2445)">
		<path id="Rectangle 9" d="M290.121 14.6222L295.697 14.446L295.697 34.1771L288.971 34.1771L290.121 14.6222Z" fill="#FFFFFF" fill-opacity="1.000000" fill-rule="nonzero"/>
		<ellipse id="Ellipse 2" cx="272.952148" cy="48.623169" rx="6.637547" ry="8.456202" fill="#FFFFFF" fill-opacity="1.000000"/>
		<path id="Ellipse 3" d="M260.774 21.0524C260.774 25.7227 257.537 24.9282 253.871 24.9282C250.206 24.9282 247.765 23.6949 247.765 22.0214C247.765 17.3511 250.471 16.7362 254.137 16.7362C257.803 16.7362 260.774 16.3822 260.774 21.0524Z" fill="#FFFFFF" fill-opacity="1.000000" fill-rule="nonzero"/>
		<path id="Vector" d="M244.467 5.87891C244.14 6.06091 243.709 6.45117 243.487 6.75024L243.095 7.30957L243.095 14.281L243.095 21.2654L243.435 22.1368C244.663 25.2714 247.303 27.3524 250.478 27.6775L251.327 27.7686L251.393 43.5062L251.458 59.244L251.746 59.7122C251.916 59.9723 252.294 60.3495 252.595 60.5576C253.079 60.8958 253.249 60.9348 254.137 60.9348C255.012 60.9348 255.195 60.8958 255.653 60.5836C255.927 60.3885 256.306 60.0114 256.489 59.7383L256.816 59.257L256.881 43.5193L256.946 27.7686L257.796 27.6775C261.05 27.3524 263.898 25.0243 264.892 21.9158C265.179 21.0183 265.179 20.8752 265.179 14.1639L265.179 7.32263L264.826 6.81531C264.251 6.00891 263.65 5.67078 262.644 5.61877C261.572 5.56677 260.801 5.91785 260.213 6.75024L259.821 7.30957L259.756 10.5742L259.69 13.8518L258.318 13.8518L256.946 13.8518L256.881 10.5872C256.816 7.37463 256.816 7.32263 256.489 6.85437C255.94 6.03491 255.274 5.67078 254.281 5.61877C253.209 5.56677 252.438 5.91785 251.85 6.75024L251.458 7.30957L251.393 10.5742L251.327 13.8518L249.955 13.8518L248.583 13.8518L248.518 10.5872L248.453 7.32263L248.1 6.81531C247.525 6.00891 246.923 5.67078 245.917 5.61877C245.199 5.57971 244.95 5.63171 244.467 5.87891ZM259.625 19.7697C259.625 20.5631 258.985 21.4344 258.057 21.9287C257.639 22.1498 257.273 22.1759 254.137 22.1759C250.844 22.1759 250.648 22.1628 250.151 21.8896C249.263 21.4215 248.648 20.55 248.648 19.7697L248.648 19.3795L254.137 19.3795L259.625 19.3795L259.625 19.7697Z" fill="#FF7020" fill-opacity="1.000000" fill-rule="nonzero"/>
		<path id="Vector" d="M271.556 5.87891C271.229 6.06091 270.798 6.45117 270.576 6.75024L270.184 7.30957L270.119 21.8116L270.054 36.3137L268.956 36.6389C266.211 37.4193 264.16 39.0581 263.01 41.3602C262.004 43.4022 261.834 44.2477 261.834 47.2131C261.834 49.3851 261.873 49.9054 262.108 50.8549C263.389 55.8883 266.225 59.322 270.184 60.6356C270.955 60.8828 271.374 60.9348 272.863 60.9348C274.353 60.9348 274.771 60.8828 275.542 60.6356C279.501 59.322 282.337 55.8883 283.618 50.8549C283.853 49.9054 283.892 49.3851 283.892 47.2131C283.892 45.0281 283.853 44.5338 283.604 43.6364C282.625 40.0336 280.286 37.6404 276.771 36.6389L275.673 36.3137L275.607 21.8247L275.542 7.32263L275.189 6.81531C274.614 6.00891 274.013 5.67078 273.007 5.61877C272.288 5.57971 272.04 5.63171 271.556 5.87891ZM275.438 42.0105C276.901 42.5048 277.855 43.6364 278.221 45.2751C278.469 46.4067 278.325 49.2421 277.959 50.3997C277.28 52.5327 275.986 54.3276 274.588 55.0299C273.712 55.4722 272.027 55.4851 271.164 55.043C269.675 54.2755 268.472 52.6107 267.741 50.3346C267.479 49.4762 267.44 49.099 267.44 47.2131C267.44 45.119 267.453 45.0541 267.819 44.2477C268.472 42.843 269.805 41.9325 271.556 41.6984C271.556 41.6984 274.627 41.7504 275.438 42.0105Z" fill="#FF7020" fill-opacity="1.000000" fill-rule="nonzero"/>
		<path id="Vector" d="M296.751 5.8269C295.079 6.69824 292.491 9.06543 290.897 11.1594C286.925 16.427 284.612 23.8667 284.076 33.1663C283.88 36.5739 283.971 37.0812 284.873 37.9786C285.749 38.85 285.984 38.889 290.949 38.889L295.209 38.889L295.209 48.943L295.209 59.0099L295.51 59.5562C295.667 59.8683 296.059 60.2975 296.373 60.5316C296.882 60.8958 297.013 60.9348 297.94 60.9348C298.829 60.9348 299.012 60.8958 299.47 60.5836C299.744 60.3885 300.123 60.0114 300.306 59.7383L300.633 59.257L300.633 33.2963L300.633 7.32263L300.28 6.81531C299.705 5.99597 299.104 5.67078 298.098 5.61877C297.444 5.59277 297.117 5.63171 296.751 5.8269ZM295.209 24.0618L295.209 33.2963L292.439 33.2963L289.682 33.2963L289.773 31.9567C290.009 28.3799 290.884 24.0618 292.021 20.8752C292.779 18.7682 294.817 14.8273 295.144 14.8273C295.184 14.8273 295.209 18.9763 295.209 24.0618Z" fill="#FF7020" fill-opacity="1.000000" fill-rule="nonzero"/>
	</g>
</svg>
