<svg width="18.000000" height="18.000000" viewBox="0 0 18 18" fill="none" xmlns="http://www.w3.org/2000/svg" xmlns:xlink="http://www.w3.org/1999/xlink">
	<desc>
			Created with Pixso.
	</desc>
	<defs/>
	<path id="Vector" d="M17.0098 12.38C15.7798 12.38 14.5898 12.1801 13.48 11.8199C13.1299 11.7 12.7402 11.79 12.4702 12.0601L10.8999 14.03C8.06982 12.6801 5.41992 10.13 4.00977 7.19995L5.95996 5.54004C6.22998 5.26001 6.31006 4.87 6.2002 4.52002C5.83008 3.41003 5.64014 2.21997 5.64014 0.98999C5.64014 0.449951 5.18994 0 4.6499 0L1.18994 0C0.649902 0 0 0.23999 0 0.98999C0 10.28 7.72998 18 17.0098 18C17.7202 18 18 17.37 18 16.8199L18 13.37C18 12.83 17.5498 12.38 17.0098 12.38Z" fill="#000000" fill-opacity="1.000000" fill-rule="nonzero"/>
</svg>
