<svg xmlns="http://www.w3.org/2000/svg">
<symbol id="bottom_burger" viewBox="0 0 219 141">
<path d="M211.042 28.5893C211.042 28.5893 234.9 59.7041 173.454 100.424C112.006 141.142 26.3402 154.615 9.29298 110.766C-7.75421 66.9147 8.16197 79.8985 73.6604 72.3929C139.157 64.8875 182.767 -3.21682 193.305 4.20594C203.838 11.6309 211.042 28.5893 211.042 28.5893Z" fill="#F9A332"/>
<path d="M62.1914 132.205C43.7001 132.205 28.018 127.842 18.0107 118.192C22.4382 116.101 25.9434 113.979 28.8722 112.207C32.2104 110.187 34.9143 108.55 36.5936 108.55C36.7733 108.55 36.9417 108.569 37.0975 108.608C37.9506 108.823 38.849 109.747 39.8435 111.433C42.7215 116.309 46.6505 118.975 50.948 118.975C51.1208 118.975 51.2938 118.97 51.4678 118.962C56.0171 118.742 60.2128 115.438 62.6919 110.125C64.1621 106.974 66.082 105.06 68.56 104.273C69.4787 103.982 70.5037 103.836 71.6302 103.836C75.7671 103.836 81.2926 105.798 88.1132 109.699C88.1404 109.713 88.1634 109.727 88.1885 109.741C91.0247 111.426 94.2059 112.448 97.9645 112.545C98.2719 112.554 98.5752 112.557 98.8743 112.557C109.269 112.557 114.174 107.804 117.138 104.931C117.91 104.183 119.077 103.053 119.47 103.021C119.474 103.021 119.819 103.072 120.601 103.854C117.113 107.941 109.949 115.863 99.004 115.863C94.3084 115.863 88.9164 114.403 82.8215 110.557C80.1437 108.868 77.4023 108.163 74.9253 108.163C67.8504 108.163 62.9293 113.921 67.8188 118.959C69.829 121.03 73.8676 121.75 78.5108 121.75C86.0154 121.75 95.0948 119.869 99.7235 118.771C109.014 116.502 118.485 113.487 127.897 109.807C129.618 110.573 131.379 110.978 133.042 110.978C134.688 110.978 136.238 110.581 137.56 109.746C138.687 109.034 140.486 107.425 140.948 104.255C152.159 99.0991 163.131 93.03 173.453 86.1902C197.431 70.2989 208.418 55.8745 212.902 44.1868C212.925 46.0274 212.785 48.029 212.413 50.1812C211.808 53.6867 210.637 57.2361 208.918 60.8147C202.942 70.8176 192.145 82.3141 173.453 94.7012C138.507 117.859 95.7265 132.205 62.1914 132.205ZM138.993 94.4289C138.884 94.1825 138.769 93.9329 138.65 93.6786C138.263 92.8583 137.911 91.9939 137.597 91.0886C137.652 91.0886 137.702 91.0886 137.756 91.0886C149.706 91.0886 154.253 85.1787 159.762 78.0201C161.709 75.4891 163.721 72.873 166.304 70.1159C170.962 65.1415 178.094 64.8389 184.992 64.5461C189.529 64.3541 193.877 64.1688 197.184 62.5348C189.146 70.516 178.565 62.5279 172.234 72.5522C165.033 83.9539 158.63 91.9554 145.029 93.5554C142.818 93.8154 140.816 94.1034 138.993 94.4289ZM202.72 53.3813C202.754 52.7664 202.754 52.1222 202.725 51.4487C202.484 46.0211 202.455 42.3169 203.045 40.627C203.362 39.713 203.775 39.4724 205.954 38.5229C207.387 37.8975 209.223 37.0964 211.515 35.6658C211.846 36.6718 212.151 37.8096 212.394 39.0729C203.406 41.2314 206.91 43.4255 202.72 53.3813Z" fill="#BF6700"/>
<path d="M191.385 6.34889C190.763 6.34889 189.22 6.70541 185.847 9.07304C181.916 11.8335 176.803 16.3916 170.881 21.6669C149.188 40.9986 116.404 70.214 73.9675 75.0765C58.4502 76.8551 45.7479 77.4866 35.5408 77.9951C19.7841 78.7805 9.3744 79.298 6.63999 83.5175C4.02279 87.5527 6.81506 96.9374 11.8108 109.788C15.916 120.349 24.4476 127.75 37.1679 131.789C70.1039 142.244 126.791 128.107 171.961 98.1735C195.723 82.427 209.711 65.8318 212.414 50.1809C214.531 37.918 209.122 30.5311 208.891 30.2237C208.759 30.0486 208.641 29.848 208.556 29.6473C208.462 29.4252 201.5 13.2874 191.748 6.41507C191.743 6.41293 191.645 6.34889 191.385 6.34889ZM62.2393 140.657C52.3324 140.658 43.3557 139.42 35.534 136.936C21.1784 132.38 11.5033 123.904 6.77663 111.745C0.728832 96.1904 -1.80575 86.617 2.10756 80.5794C6.34602 74.0412 16.6201 73.5295 35.2718 72.6017C45.4022 72.0965 58.0085 71.4695 73.3528 69.7112C114.09 65.0432 146.105 36.5132 167.29 17.6362C181.457 5.0103 189.258 -1.94528 194.858 2.00006C205.257 9.32924 212.362 24.8757 213.404 27.2519C214.6 28.9705 219.993 37.6127 217.77 50.8919C214.852 68.3564 200.441 85.7786 174.946 102.675C152.764 117.375 126.756 128.949 101.714 135.266C87.4781 138.856 74.1833 140.657 62.2393 140.657Z" fill="#6D184E"/>
</symbol>
<symbol id = "logo" viewBox="0 0 153 35">
<path d="M7.60065 26.5793C6.94627 26.5793 6.44688 26.403 6.10247 26.0504C5.75807 25.6978 5.58586 25.1941 5.58586 24.5393V17.2356L6.41244 19.477L0.316425 11.04C0.0753392 10.6874 -0.0279831 10.3096 0.00645765 9.90667C0.0408984 9.48692 0.213102 9.12593 0.523069 8.82371C0.833036 8.52149 1.27216 8.37038 1.84043 8.37038C2.25372 8.37038 2.62396 8.47112 2.95114 8.6726C3.29555 8.87408 3.62274 9.19309 3.93271 9.62964L8.0656 15.4474H7.23902L11.3719 9.62964C11.6991 9.1763 12.0177 8.85729 12.3276 8.6726C12.6548 8.47112 13.0337 8.37038 13.4642 8.37038C14.0152 8.37038 14.4458 8.51309 14.7557 8.79853C15.0657 9.06717 15.2293 9.41136 15.2465 9.83112C15.2637 10.2341 15.1173 10.6538 14.8074 11.0904L8.78885 19.477L9.5896 17.2356V24.5393C9.5896 25.8993 8.92662 26.5793 7.60065 26.5793Z" fill="white"/>
<path d="M21.1332 26.6296C19.7728 26.6296 18.5846 26.3694 17.5686 25.8489C16.5698 25.3284 15.7949 24.5812 15.2439 23.6074C14.6928 22.6336 14.4173 21.4835 14.4173 20.157C14.4173 19.1664 14.5723 18.2765 14.8822 17.4874C15.1922 16.6983 15.6399 16.0267 16.2254 15.4726C16.8281 14.9017 17.5428 14.4736 18.3694 14.1882C19.196 13.8859 20.1172 13.7348 21.1332 13.7348C22.4937 13.7348 23.6733 13.9951 24.672 14.5156C25.688 15.0361 26.4716 15.7748 27.0226 16.7319C27.5909 17.6889 27.875 18.8306 27.875 20.157C27.875 21.1645 27.7114 22.0627 27.3842 22.8519C27.0743 23.641 26.6266 24.321 26.0411 24.8919C25.4556 25.4627 24.7409 25.8993 23.8971 26.2015C23.0705 26.4869 22.1493 26.6296 21.1332 26.6296ZM21.1332 23.7837C21.7015 23.7837 22.1923 23.6494 22.6056 23.3807C23.0189 23.1121 23.3461 22.7175 23.5872 22.197C23.8282 21.6598 23.9488 20.9798 23.9488 20.157C23.9488 18.9314 23.6905 18.0331 23.1739 17.4622C22.6573 16.8746 21.977 16.5807 21.1332 16.5807C20.5822 16.5807 20.0914 16.7067 19.6609 16.9585C19.2476 17.2104 18.9204 17.6049 18.6793 18.1422C18.4555 18.6627 18.3435 19.3343 18.3435 20.157C18.3435 21.3827 18.6019 22.2978 19.1185 22.9022C19.6351 23.4899 20.3067 23.7837 21.1332 23.7837Z" fill="white"/>
<path d="M34.9233 26.6296C33.8557 26.6296 32.9688 26.4366 32.2628 26.0504C31.5568 25.6642 31.0315 25.0849 30.6871 24.3126C30.3599 23.5235 30.1963 22.5496 30.1963 21.3911V15.6993C30.1963 15.0612 30.3599 14.5827 30.6871 14.2637C31.0315 13.9447 31.5137 13.7852 32.1336 13.7852C32.7536 13.7852 33.2357 13.9447 33.5802 14.2637C33.9246 14.5827 34.0968 15.0612 34.0968 15.6993V21.4919C34.0968 22.2306 34.2518 22.7847 34.5617 23.1541C34.8717 23.5067 35.3625 23.683 36.0341 23.683C36.7745 23.683 37.3773 23.4311 37.8422 22.9274C38.3244 22.4069 38.5655 21.7269 38.5655 20.8874V15.6993C38.5655 15.0612 38.729 14.5827 39.0562 14.2637C39.4006 13.9447 39.8828 13.7852 40.5028 13.7852C41.1399 13.7852 41.6221 13.9447 41.9493 14.2637C42.2937 14.5827 42.4659 15.0612 42.4659 15.6993V24.64C42.4659 25.9328 41.8373 26.5793 40.5802 26.5793C39.9603 26.5793 39.4867 26.4114 39.1596 26.0756C38.8324 25.7398 38.6688 25.2612 38.6688 24.64V22.9526L39.0562 23.9348C38.6774 24.7911 38.1349 25.4543 37.4289 25.9244C36.7229 26.3946 35.8877 26.6296 34.9233 26.6296Z" fill="white"/>
<path d="M47.4988 26.5793C46.8444 26.5793 46.345 26.4114 46.0006 26.0756C45.6562 25.7398 45.484 25.2612 45.484 24.64V15.6993C45.484 15.078 45.6476 14.6079 45.9748 14.2889C46.3192 13.9531 46.7928 13.7852 47.3955 13.7852C48.0154 13.7852 48.489 13.9531 48.8162 14.2889C49.1433 14.6079 49.3069 15.078 49.3069 15.6993V17.0089H49.0486C49.2553 16.0015 49.7116 15.2207 50.4177 14.6667C51.1237 14.1126 52.0364 13.802 53.1557 13.7348C53.5862 13.7012 53.9134 13.8104 54.1373 14.0622C54.3783 14.2973 54.5075 14.6919 54.5247 15.2459C54.5592 15.7664 54.4472 16.1778 54.1889 16.48C53.9478 16.7822 53.5345 16.9669 52.9491 17.0341L52.3549 17.0845C51.3734 17.1684 50.6415 17.4454 50.1593 17.9156C49.6944 18.3857 49.4619 19.0657 49.4619 19.9556V24.64C49.4619 25.2612 49.2897 25.7398 48.9453 26.0756C48.6181 26.4114 48.136 26.5793 47.4988 26.5793Z" fill="white"/>
<path d="M58.3246 26.5793C57.7391 26.5793 57.2914 26.4198 56.9814 26.1007C56.6715 25.7817 56.5165 25.3368 56.5165 24.7659V10.1837C56.5165 9.61285 56.6801 9.16791 57.0073 8.84889C57.3517 8.52988 57.8166 8.37038 58.4021 8.37038C58.9187 8.37038 59.3234 8.47112 59.6162 8.6726C59.9261 8.85729 60.2103 9.1847 60.4686 9.65482L66.4354 20.283H65.5572L71.5241 9.65482C71.7824 9.1847 72.0579 8.85729 72.3506 8.6726C72.6606 8.47112 73.0653 8.37038 73.5647 8.37038C74.1502 8.37038 74.5979 8.52988 74.9079 8.84889C75.2351 9.16791 75.3986 9.61285 75.3986 10.1837V24.7659C75.3986 25.3368 75.2437 25.7817 74.9337 26.1007C74.6237 26.4198 74.176 26.5793 73.5905 26.5793C73.005 26.5793 72.5487 26.4198 72.2215 26.1007C71.9115 25.7817 71.7565 25.3368 71.7565 24.7659V14.5659H72.3248L67.5203 22.9526C67.3137 23.2716 67.0898 23.5151 66.8487 23.683C66.6249 23.8341 66.3235 23.9096 65.9447 23.9096C65.5658 23.9096 65.2558 23.8257 65.0148 23.6578C64.7737 23.4899 64.5584 23.2548 64.369 22.9526L59.5128 14.5407H60.1328V24.7659C60.1328 25.3368 59.9778 25.7817 59.6678 26.1007C59.3751 26.4198 58.9273 26.5793 58.3246 26.5793Z" fill="white"/>
<path d="M85.3428 26.6296C83.8446 26.6296 82.5531 26.3694 81.4682 25.8489C80.4006 25.3116 79.574 24.5645 78.9885 23.6074C78.4202 22.6336 78.1361 21.4919 78.1361 20.1822C78.1361 18.9062 78.4116 17.7896 78.9627 16.8326C79.5137 15.8588 80.28 15.1032 81.2616 14.5659C82.2604 14.0119 83.3883 13.7348 84.6454 13.7348C85.5581 13.7348 86.3846 13.8859 87.1251 14.1882C87.8656 14.4736 88.5028 14.8933 89.0366 15.4474C89.5704 15.9847 89.9751 16.6479 90.2506 17.437C90.5261 18.2094 90.6639 19.0741 90.6639 20.0311C90.6639 20.3501 90.5606 20.5936 90.3539 20.7615C90.1473 20.9126 89.8459 20.9882 89.4499 20.9882H81.3391V19.0237H87.8484L87.4351 19.3763C87.4351 18.6879 87.3318 18.117 87.1251 17.6637C86.9185 17.1936 86.6171 16.841 86.2211 16.6059C85.8422 16.3709 85.3686 16.2533 84.8004 16.2533C84.1632 16.2533 83.6208 16.3961 83.173 16.6815C82.7253 16.9669 82.3809 17.3783 82.1398 17.9156C81.8987 18.4528 81.7782 19.0993 81.7782 19.8548V20.0563C81.7782 21.3324 82.0796 22.2726 82.6823 22.877C83.3022 23.4815 84.2149 23.7837 85.4203 23.7837C85.8336 23.7837 86.3072 23.7333 86.841 23.6326C87.3748 23.5319 87.8742 23.3724 88.3392 23.1541C88.7352 22.9694 89.0882 22.9106 89.3982 22.9778C89.7082 23.0282 89.9493 23.1625 90.1215 23.3807C90.2937 23.599 90.3884 23.8509 90.4056 24.1363C90.44 24.4217 90.3798 24.7072 90.2248 24.9926C90.0698 25.2612 89.8115 25.4879 89.4499 25.6726C88.8644 25.9916 88.2014 26.2267 87.4609 26.3778C86.7377 26.5457 86.0316 26.6296 85.3428 26.6296Z" fill="white"/>
<path d="M97.2204 26.6296C96.2905 26.6296 95.4553 26.4533 94.7149 26.1007C93.9744 25.7482 93.3975 25.2696 92.9842 24.6652C92.5709 24.0607 92.3643 23.3807 92.3643 22.6252C92.3643 21.7185 92.6054 21.0049 93.0875 20.4845C93.5697 19.9472 94.3532 19.5694 95.4381 19.3511C96.523 19.1161 97.9609 18.9985 99.7518 18.9985H101.121V20.963H99.7777C98.8994 20.963 98.1848 21.0133 97.6337 21.1141C97.0999 21.198 96.7124 21.3491 96.4714 21.5674C96.2475 21.7857 96.1356 22.0879 96.1356 22.4741C96.1356 22.9442 96.2991 23.3304 96.6263 23.6326C96.9707 23.9348 97.4615 24.0859 98.0987 24.0859C98.5981 24.0859 99.0372 23.9768 99.416 23.7585C99.8121 23.5235 100.122 23.2128 100.346 22.8267C100.57 22.4237 100.682 21.9704 100.682 21.4667V18.5704C100.682 17.8316 100.51 17.3111 100.165 17.0089C99.8207 16.6899 99.2352 16.5304 98.4086 16.5304C97.9437 16.5304 97.4357 16.5891 96.8846 16.7067C96.3508 16.8074 95.7567 16.9837 95.1023 17.2356C94.7235 17.4035 94.3877 17.4454 94.0949 17.3615C93.8022 17.2607 93.5783 17.0928 93.4233 16.8578C93.2684 16.6059 93.1909 16.3373 93.1909 16.0519C93.1909 15.7496 93.277 15.4642 93.4492 15.1956C93.6214 14.9101 93.9055 14.7003 94.3016 14.5659C95.1109 14.2469 95.8686 14.0286 96.5747 13.9111C97.2979 13.7936 97.9609 13.7348 98.5636 13.7348C99.8896 13.7348 100.974 13.9279 101.818 14.3141C102.679 14.6835 103.325 15.2627 103.756 16.0519C104.186 16.8242 104.401 17.8232 104.401 19.0489V24.64C104.401 25.2612 104.246 25.7398 103.936 26.0756C103.626 26.4114 103.179 26.5793 102.593 26.5793C102.008 26.5793 101.551 26.4114 101.224 26.0756C100.914 25.7398 100.759 25.2612 100.759 24.64V23.7082L100.94 23.8593C100.837 24.4301 100.613 24.9254 100.268 25.3452C99.9413 25.7482 99.5194 26.0672 99.0027 26.3022C98.4861 26.5205 97.892 26.6296 97.2204 26.6296Z" fill="white"/>
<path d="M111.883 26.6296C110.35 26.6296 109.205 26.2183 108.447 25.3956C107.69 24.5561 107.311 23.3136 107.311 21.6682V10.3096C107.311 9.67161 107.475 9.19309 107.802 8.87408C108.146 8.53828 108.637 8.37038 109.274 8.37038C109.894 8.37038 110.368 8.53828 110.695 8.87408C111.039 9.19309 111.211 9.67161 111.211 10.3096V21.517C111.211 22.2054 111.358 22.7175 111.65 23.0533C111.96 23.3724 112.365 23.5319 112.864 23.5319C113.002 23.5319 113.131 23.5235 113.252 23.5067C113.372 23.4899 113.502 23.4815 113.639 23.4815C113.915 23.4479 114.104 23.5319 114.208 23.7333C114.328 23.918 114.388 24.2958 114.388 24.8667C114.388 25.3704 114.285 25.7565 114.079 26.0252C113.872 26.277 113.553 26.4449 113.123 26.5289C112.951 26.5457 112.753 26.5625 112.529 26.5793C112.305 26.6128 112.09 26.6296 111.883 26.6296Z" fill="white"/>
<path d="M145.06 8.16295L147.847 8.07486V17.9404H144.484L145.06 8.16295Z" fill="none"/>
<ellipse cx="136.475" cy="25.1634" rx="3.31877" ry="4.2281" fill="none"/>
<path d="M130.387 11.3781C130.387 13.7132 128.768 13.3159 126.935 13.3159C125.102 13.3159 123.882 12.6993 123.882 11.8625C123.882 9.52742 125.235 9.21997 127.068 9.21997C128.901 9.21997 130.387 9.04295 130.387 11.3781Z" fill="none"/>
<path d="M122.233 3.79129C122.07 3.88233 121.854 4.07743 121.743 4.227L121.547 4.50664V7.99234V11.4846L121.717 11.9203C122.331 13.4875 123.651 14.528 125.238 14.6906L125.663 14.7361L125.696 22.605L125.729 30.4738L125.872 30.708C125.957 30.838 126.147 31.0266 126.297 31.1307C126.539 31.2998 126.624 31.3193 127.068 31.3193C127.506 31.3193 127.597 31.2998 127.826 31.1437C127.963 31.0461 128.153 30.8575 128.244 30.721L128.407 30.4803L128.44 22.6115L128.473 14.7361L128.897 14.6906C130.524 14.528 131.949 13.364 132.445 11.8097C132.589 11.361 132.589 11.2895 132.589 7.93382V4.51314L132.413 4.25952C132.125 3.85632 131.825 3.68724 131.321 3.66122C130.786 3.63521 130.4 3.8108 130.106 4.227L129.91 4.50664L129.878 6.13894L129.845 7.77774H129.159H128.473L128.44 6.14544C128.407 4.53915 128.407 4.51314 128.244 4.27903C127.97 3.86933 127.636 3.68724 127.14 3.66122C126.604 3.63521 126.219 3.8108 125.925 4.227L125.729 4.50664L125.696 6.13894L125.663 7.77774H124.977H124.291L124.258 6.14544L124.226 4.51314L124.049 4.25952C123.762 3.85632 123.461 3.68724 122.958 3.66122C122.599 3.64172 122.475 3.66773 122.233 3.79129ZM129.812 10.7367C129.812 11.1334 129.492 11.5691 129.028 11.8162C128.819 11.9268 128.636 11.9398 127.068 11.9398C125.421 11.9398 125.323 11.9333 125.075 11.7967C124.631 11.5626 124.324 11.1269 124.324 10.7367V10.5416H127.068H129.812V10.7367Z" fill="white"/>
<path d="M135.777 3.79129C135.614 3.88233 135.398 4.07743 135.287 4.227L135.091 4.50664L135.058 11.7577L135.026 19.0087L134.477 19.1713C133.105 19.5615 132.079 20.3809 131.504 21.532C131.001 22.553 130.916 22.9757 130.916 24.4584C130.916 25.5444 130.936 25.8046 131.053 26.2793C131.694 28.796 133.111 30.5129 135.091 31.1697C135.477 31.2932 135.686 31.3193 136.431 31.3193C137.175 31.3193 137.385 31.2932 137.77 31.1697C139.75 30.5129 141.168 28.796 141.808 26.2793C141.926 25.8046 141.945 25.5444 141.945 24.4584C141.945 23.3659 141.926 23.1187 141.801 22.67C141.311 20.8686 140.142 19.6721 138.384 19.1713L137.835 19.0087L137.803 11.7642L137.77 4.51314L137.594 4.25952C137.306 3.85632 137.006 3.68724 136.502 3.66123C136.143 3.64172 136.019 3.66773 135.777 3.79129ZM137.718 21.8571C138.45 22.1042 138.926 22.67 139.109 23.4894C139.234 24.0552 139.162 25.4729 138.979 26.0517C138.639 27.1182 137.992 28.0156 137.293 28.3668C136.855 28.5879 136.012 28.5944 135.581 28.3733C134.836 27.9896 134.235 27.1572 133.869 26.0192C133.739 25.59 133.719 25.4014 133.719 24.4584C133.719 23.4114 133.726 23.3789 133.909 22.9757C134.235 22.2733 134.902 21.8181 135.777 21.7011C135.777 21.7011 137.313 21.7271 137.718 21.8571Z" fill="white"/>
<path d="M148.375 3.76528C147.538 4.20099 146.245 5.38457 145.448 6.43158C143.461 9.06537 142.305 12.7852 142.037 17.435C141.939 19.1388 141.985 19.3924 142.436 19.8411C142.873 20.2769 142.991 20.2964 145.474 20.2964H147.604V25.3233V30.3568L147.754 30.6299C147.832 30.786 148.028 31.0006 148.185 31.1177C148.44 31.2998 148.505 31.3193 148.969 31.3193C149.414 31.3193 149.505 31.2998 149.734 31.1437C149.871 31.0461 150.061 30.8575 150.152 30.721L150.315 30.4803V17.5V4.51314L150.139 4.25952C149.851 3.84982 149.551 3.68724 149.048 3.66122C148.721 3.64822 148.558 3.66773 148.375 3.76528ZM147.604 12.8827V17.5H146.219H144.84L144.886 16.8302C145.003 15.0418 145.441 12.8827 146.01 11.2895C146.388 10.2359 147.408 8.26548 147.571 8.26548C147.591 8.26548 147.604 10.34 147.604 12.8827Z" fill="white"/>
</symbol>
<symbol id = "top-burger" viewBox="0 0 208 151">
<path d="M125.626 133.547C162.644 118.077 192.156 94.388 207.203 65.1105C190.482 28.9582 154.166 3.72369 111.877 3.04173C53.1261 2.0963 4.24804 49.2928 3.22356 108.043C3.04732 118.166 4.28458 127.968 6.73961 137.278C40.0384 154.134 82.8363 151.426 125.626 133.547Z" fill="#F9A332"/>
<path d="M126.439 4.26505H126.437H126.439ZM126.329 4.24958C126.326 4.24958 126.326 4.24738 126.324 4.24738C126.326 4.24738 126.326 4.24958 126.329 4.24958ZM126.271 4.24076C126.269 4.24076 126.271 4.24075 126.269 4.23854L126.271 4.24076ZM126.218 4.23192C126.216 4.23192 126.214 4.23193 126.209 4.22972C126.214 4.23193 126.216 4.23192 126.218 4.23192ZM126.158 4.22308H126.156H126.158ZM125.991 4.19879C125.988 4.19658 125.988 4.19659 125.986 4.19659C125.988 4.19659 125.988 4.19658 125.991 4.19879ZM125.715 4.15682C125.712 4.15682 125.71 4.15682 125.708 4.15682C125.71 4.15682 125.712 4.15682 125.715 4.15682ZM125.666 4.1502C125.659 4.1502 125.655 4.148 125.651 4.148C125.655 4.148 125.659 4.1502 125.666 4.1502ZM125.611 4.14138C125.604 4.14138 125.598 4.13916 125.593 4.13916C125.6 4.14137 125.602 4.14138 125.611 4.14138ZM125.56 4.13474C125.549 4.13253 125.542 4.13255 125.531 4.13034C125.54 4.13255 125.551 4.13253 125.56 4.13474ZM125.505 4.12592C125.494 4.12592 125.485 4.12371 125.474 4.1215C125.485 4.12371 125.492 4.12371 125.505 4.12592ZM125.445 4.11708C125.434 4.11708 125.427 4.11488 125.416 4.11488C125.425 4.11488 125.434 4.11708 125.445 4.11708ZM125.386 4.11046C125.374 4.10825 125.37 4.10824 125.359 4.10603C125.368 4.10603 125.374 4.10825 125.386 4.11046ZM125.33 4.10161C125.319 4.09941 125.308 4.09942 125.297 4.09721C125.308 4.09942 125.317 4.09941 125.33 4.10161ZM125.271 4.09279C125.262 4.09279 125.251 4.09058 125.24 4.08837C125.253 4.09058 125.26 4.09279 125.271 4.09279ZM125.213 4.08395C125.204 4.08395 125.193 4.08175 125.185 4.08175C125.193 4.08175 125.204 4.08395 125.213 4.08395ZM125.154 4.07733C125.143 4.07512 125.136 4.07512 125.127 4.07291C125.136 4.07512 125.145 4.07512 125.154 4.07733ZM125.096 4.06849C125.085 4.06628 125.072 4.0663 125.061 4.06409C125.074 4.0663 125.083 4.06628 125.096 4.06849ZM125.039 4.06187C125.023 4.05745 125.01 4.05746 124.992 4.05305C125.01 4.05746 125.023 4.05745 125.039 4.06187ZM124.981 4.05305C124.962 4.05084 124.946 4.04862 124.926 4.0442C124.944 4.04641 124.964 4.05084 124.981 4.05305ZM124.913 4.0442C124.895 4.03979 124.882 4.03978 124.864 4.03536C124.88 4.03757 124.897 4.042 124.913 4.0442ZM124.849 4.03536C124.836 4.03315 124.822 4.03095 124.805 4.02874C124.822 4.03095 124.833 4.03315 124.849 4.03536ZM124.787 4.02654C124.776 4.02433 124.761 4.02213 124.747 4.01992C124.763 4.02213 124.774 4.02433 124.787 4.02654ZM124.725 4.0177C124.712 4.01549 124.703 4.01328 124.69 4.01328C124.701 4.01328 124.714 4.01549 124.725 4.0177ZM124.668 4.00888C124.655 4.00667 124.643 4.00666 124.63 4.00446C124.643 4.00666 124.655 4.00667 124.668 4.00888ZM124.61 4.00224C124.597 4.00003 124.582 3.99782 124.571 3.99561C124.582 3.99782 124.599 4.00003 124.61 4.00224ZM124.555 3.99341C124.54 3.99121 124.526 3.9912 124.511 3.98899C124.526 3.9912 124.54 3.99121 124.555 3.99341ZM124.493 3.98679C124.48 3.98459 124.467 3.98236 124.451 3.98015C124.467 3.98236 124.48 3.98459 124.493 3.98679ZM124.436 3.97795C124.42 3.97574 124.407 3.97354 124.394 3.97133C124.407 3.97354 124.42 3.97574 124.436 3.97795ZM124.376 3.96911C124.361 3.96911 124.345 3.96692 124.332 3.96471C124.345 3.96692 124.363 3.96911 124.376 3.96911ZM124.319 3.96249C124.303 3.96028 124.29 3.95808 124.27 3.95587C124.288 3.95808 124.303 3.96028 124.319 3.96249ZM124.259 3.95367C124.239 3.95146 124.224 3.94923 124.204 3.94702C124.222 3.94923 124.242 3.95146 124.259 3.95367ZM124.204 3.94702C124.184 3.94482 124.164 3.94261 124.144 3.9404C124.164 3.94261 124.182 3.94482 124.204 3.94702ZM124.144 3.9404C124.023 3.92274 123.906 3.90729 123.784 3.89404C123.904 3.90729 124.023 3.92274 124.144 3.9404ZM123.78 3.89181C123.76 3.88961 123.745 3.8874 123.725 3.88519C123.74 3.8874 123.762 3.88961 123.78 3.89181ZM123.72 3.88519C123.7 3.88298 123.683 3.88078 123.663 3.87857C123.683 3.88078 123.703 3.88298 123.72 3.88519ZM123.663 3.87637C123.621 3.87196 123.583 3.86753 123.544 3.86311C123.583 3.86753 123.621 3.87196 123.663 3.87637ZM123.539 3.86311C123.522 3.85869 123.504 3.8565 123.482 3.85429C123.504 3.8565 123.519 3.85869 123.539 3.86311ZM123.482 3.85429C123.462 3.85208 123.444 3.84985 123.424 3.84765C123.442 3.84985 123.464 3.85208 123.482 3.85429ZM123.422 3.84765C120.152 3.4413 116.839 3.18292 113.487 3.07912C116.839 3.18292 120.154 3.4413 123.422 3.84765ZM113.484 3.07912C113.464 3.07912 113.445 3.07912 113.424 3.07912C113.444 3.07912 113.465 3.07912 113.484 3.07912ZM113.422 3.07912C113.402 3.07691 113.384 3.07692 113.363 3.07692C113.383 3.07692 113.403 3.07691 113.422 3.07912ZM113.361 3.07692C113.341 3.07471 113.324 3.0747 113.304 3.0747C113.32 3.0747 113.344 3.07471 113.361 3.07692ZM113.297 3.0747C113.281 3.0747 113.259 3.0725 113.244 3.0725C113.26 3.0725 113.28 3.0747 113.297 3.0747ZM113.235 3.0725C113.219 3.0725 113.197 3.07251 113.182 3.0703C113.198 3.07251 113.218 3.0725 113.235 3.0725ZM113.173 3.0703C113.153 3.0703 113.139 3.0703 113.118 3.0703C113.137 3.0703 113.154 3.0703 113.173 3.0703ZM113.114 3.0703C113.095 3.06809 113.075 3.06808 113.057 3.06808C113.074 3.06808 113.097 3.06809 113.114 3.0703ZM113.052 3.06808C112.928 3.06366 112.807 3.06147 112.684 3.05926C112.807 3.06147 112.928 3.06366 113.052 3.06808ZM112.676 3.05704C112.658 3.05704 112.639 3.05704 112.621 3.05704C112.641 3.05704 112.657 3.05704 112.676 3.05704ZM112.618 3.05704C112.596 3.05704 112.582 3.05484 112.562 3.05484C112.581 3.05484 112.598 3.05704 112.618 3.05704ZM112.55 3.05484C112.534 3.05484 112.517 3.05484 112.501 3.05484C112.518 3.05484 112.533 3.05484 112.55 3.05484ZM112.487 3.05484C112.472 3.05263 112.457 3.05262 112.441 3.05262C112.456 3.05262 112.473 3.05263 112.487 3.05484ZM112.425 3.05262C112.411 3.05262 112.396 3.05262 112.381 3.05262C112.395 3.05262 112.411 3.05262 112.425 3.05262ZM112.363 3.05042C112.35 3.05042 112.336 3.05042 112.324 3.05042C112.338 3.05042 112.349 3.05042 112.363 3.05042ZM112.3 3.05042C112.288 3.05042 112.275 3.05043 112.263 3.04822C112.275 3.05043 112.289 3.05042 112.3 3.05042ZM112.24 3.04822C112.228 3.04822 112.214 3.04822 112.202 3.04822C112.213 3.04822 112.228 3.04822 112.24 3.04822ZM112.18 3.04822C112.168 3.04822 112.154 3.046 112.141 3.046C112.155 3.046 112.166 3.04822 112.18 3.04822ZM112.119 3.046C112.106 3.046 112.095 3.046 112.083 3.046C112.095 3.046 112.107 3.046 112.119 3.046ZM112.058 3.046C112.046 3.046 112.033 3.046 112.021 3.0438C112.032 3.046 112.046 3.046 112.058 3.046ZM111.998 3.0438C111.982 3.0438 111.967 3.0438 111.952 3.0438C111.969 3.0438 111.981 3.0438 111.998 3.0438ZM111.938 3.0438C111.918 3.0438 111.899 3.04378 111.877 3.04157C111.897 3.04378 111.919 3.0438 111.938 3.0438ZM111.877 3.04157C111.824 3.04157 111.769 3.04158 111.716 3.03937C111.77 3.04158 111.823 3.04157 111.877 3.04157ZM109.321 3.03053C109.462 3.03053 109.602 3.02833 109.742 3.02833C109.757 3.02833 109.773 3.02833 109.789 3.02833C109.632 3.03054 109.478 3.03053 109.321 3.03053Z" fill="#FFF6AF"/>
<path d="M13.96 63.3328C31.2195 27.9873 67.4122 3.51378 108.92 3.04118C109.054 3.03677 109.186 3.03455 109.32 3.03234C109.478 3.03234 109.631 3.03014 109.788 3.03014C109.8 3.03014 109.81 3.03014 109.821 3.03014C109.935 3.03014 110.049 3.03014 110.165 3.03014C110.68 3.03014 111.197 3.03456 111.715 3.04118C111.768 3.04118 111.823 3.04338 111.877 3.04338C111.898 3.04338 111.917 3.0434 111.938 3.0456C111.942 3.0456 111.946 3.0456 111.951 3.0456C111.966 3.0456 111.982 3.0456 111.997 3.0456C112.004 3.0456 112.012 3.0456 112.02 3.0456C112.033 3.0456 112.045 3.0456 112.057 3.04781C112.064 3.04781 112.074 3.04781 112.082 3.04781C112.095 3.04781 112.105 3.04781 112.118 3.04781C112.125 3.04781 112.133 3.04781 112.14 3.04781C112.153 3.04781 112.167 3.04782 112.179 3.05003C112.187 3.05003 112.193 3.05003 112.201 3.05003C112.213 3.05003 112.227 3.05003 112.239 3.05003C112.247 3.05003 112.255 3.05003 112.262 3.05003C112.274 3.05003 112.287 3.05002 112.299 3.05223C112.307 3.05223 112.316 3.05223 112.323 3.05223C112.335 3.05223 112.349 3.05223 112.362 3.05223C112.367 3.05223 112.375 3.05223 112.381 3.05223C112.395 3.05223 112.41 3.05442 112.425 3.05442C112.432 3.05442 112.434 3.05442 112.44 3.05442C112.456 3.05442 112.471 3.05442 112.487 3.05442C112.491 3.05442 112.496 3.05442 112.5 3.05442C112.516 3.05663 112.533 3.05665 112.549 3.05665C112.551 3.05665 112.559 3.05665 112.561 3.05665C112.582 3.05665 112.595 3.05664 112.617 3.05885H112.62C112.638 3.05885 112.657 3.05885 112.675 3.05885C112.678 3.05885 112.68 3.05885 112.683 3.05885C112.807 3.06326 112.927 3.06547 113.051 3.06989C113.053 3.06989 113.054 3.06989 113.056 3.06989C113.074 3.06989 113.095 3.06989 113.113 3.06989C113.115 3.06989 113.115 3.06989 113.117 3.06989C113.138 3.0721 113.152 3.07211 113.173 3.07211C113.175 3.07211 113.178 3.07211 113.182 3.07211C113.196 3.07211 113.218 3.07431 113.234 3.07431C113.236 3.07431 113.241 3.07431 113.243 3.07431C113.258 3.07431 113.28 3.0743 113.296 3.07651C113.3 3.07651 113.298 3.07651 113.303 3.07651C113.323 3.07651 113.34 3.07652 113.36 3.07873C113.362 3.07873 113.359 3.07652 113.362 3.07873C113.383 3.07873 113.401 3.07873 113.421 3.07873H113.423C113.444 3.08094 113.463 3.08093 113.483 3.08093C113.486 3.08093 113.482 3.08093 113.486 3.08093C116.838 3.18473 120.15 3.4431 123.421 3.84945H123.423C123.443 3.85166 123.461 3.85389 123.481 3.85609C123.503 3.8583 123.52 3.86051 123.54 3.86271L123.545 3.86491C123.582 3.86933 123.62 3.87376 123.662 3.87818C123.682 3.8826 123.699 3.88258 123.719 3.887C123.721 3.887 123.721 3.887 123.724 3.887C123.743 3.88921 123.759 3.89141 123.779 3.89362C123.781 3.89362 123.781 3.89362 123.783 3.89362C123.905 3.90908 124.024 3.92455 124.143 3.94001C124.163 3.94442 124.183 3.94662 124.203 3.94883C124.223 3.95104 124.238 3.95326 124.258 3.95547C124.26 3.95547 124.269 3.95767 124.271 3.95767C124.289 3.95988 124.302 3.96209 124.32 3.96429C124.324 3.96429 124.324 3.96431 124.331 3.96651C124.344 3.96651 124.36 3.9687 124.375 3.97091C124.382 3.97312 124.386 3.97313 124.393 3.97313C124.406 3.97534 124.419 3.97755 124.435 3.97976C124.439 3.97976 124.446 3.98196 124.45 3.98196C124.468 3.98417 124.479 3.98638 124.492 3.98638C124.497 3.98859 124.505 3.9886 124.51 3.9886C124.525 3.99081 124.539 3.99301 124.554 3.99522C124.558 3.99522 124.565 3.99742 124.569 3.99742C124.58 3.99963 124.596 4.00183 124.609 4.00404C124.616 4.00404 124.622 4.00405 124.629 4.00626C124.642 4.00847 124.653 4.00847 124.667 4.01068C124.675 4.01289 124.68 4.01288 124.689 4.01288C124.702 4.01509 124.711 4.0173 124.724 4.0195C124.731 4.0195 124.739 4.02172 124.748 4.02172C124.759 4.02393 124.775 4.02612 124.786 4.02612C124.79 4.02833 124.801 4.02834 124.806 4.03054C124.821 4.03275 124.834 4.03276 124.85 4.03497C124.854 4.03717 124.859 4.03717 124.863 4.03717C124.881 4.03938 124.896 4.0416 124.912 4.04381C124.916 4.04381 124.923 4.04601 124.925 4.04601C124.945 4.04822 124.96 4.05043 124.98 4.05485C124.985 4.05485 124.987 4.05485 124.991 4.05485C125.009 4.05706 125.022 4.05926 125.04 4.06147C125.044 4.06368 125.053 4.06368 125.06 4.06589C125.071 4.06589 125.084 4.06808 125.097 4.07029C125.106 4.0725 125.117 4.07251 125.126 4.07471C125.137 4.07471 125.144 4.07693 125.152 4.07693C125.161 4.07914 125.175 4.08133 125.183 4.08133C125.194 4.08354 125.203 4.08575 125.212 4.08575C125.221 4.08796 125.23 4.08797 125.241 4.09018C125.25 4.09238 125.261 4.09239 125.27 4.0946C125.278 4.09681 125.289 4.09681 125.296 4.09902C125.307 4.09902 125.318 4.10121 125.329 4.10342C125.338 4.10342 125.349 4.10563 125.358 4.10784C125.369 4.10784 125.373 4.11006 125.384 4.11006C125.393 4.11227 125.406 4.11446 125.415 4.11446C125.426 4.11667 125.433 4.11888 125.444 4.11888C125.453 4.12109 125.464 4.1233 125.475 4.1233C125.484 4.12551 125.493 4.12551 125.504 4.12772C125.512 4.12993 125.521 4.12994 125.53 4.13214C125.541 4.13435 125.548 4.13433 125.559 4.13654C125.568 4.13654 125.583 4.13876 125.592 4.14096C125.596 4.14096 125.603 4.14318 125.61 4.14318C125.623 4.14539 125.636 4.1476 125.649 4.14981C125.654 4.14981 125.658 4.1498 125.665 4.15201C125.678 4.15422 125.694 4.15642 125.707 4.15863C125.709 4.15863 125.711 4.15863 125.713 4.15863C125.802 4.17188 125.897 4.18515 125.985 4.19839C125.987 4.19839 125.987 4.19839 125.989 4.19839C126.027 4.20502 126.065 4.20943 126.102 4.21606C126.12 4.21827 126.137 4.22046 126.155 4.22488H126.159C126.175 4.22709 126.193 4.22931 126.21 4.23152C126.212 4.23152 126.215 4.23372 126.217 4.23372C126.235 4.23593 126.248 4.23814 126.268 4.24034C126.27 4.24034 126.268 4.24034 126.27 4.24034C126.29 4.24476 126.303 4.24697 126.323 4.24918C126.325 4.24918 126.325 4.24918 126.327 4.24918C126.345 4.2536 126.365 4.2558 126.38 4.25801C126.4 4.26022 126.418 4.26464 126.436 4.26685H126.438C159.888 9.39035 188.229 30.019 203.906 58.5825C185.707 33.1638 157.389 15.49 124.843 11.4287C124.154 15.3619 117.657 18.447 109.741 18.447C101.964 18.447 95.5583 15.4701 94.6813 11.6363C75.4894 14.3151 57.7429 21.7861 42.7344 32.806C42.7613 32.7553 42.7885 32.7067 42.8145 32.6559V32.6581C42.6575 32.8016 42.5014 32.9474 42.3455 33.0931C31.1731 41.368 21.5321 51.6216 13.96 63.3328Z" fill="#FCD199"/>
<path d="M125.624 133.548C125.658 133.533 125.692 133.52 125.725 133.505C125.692 133.52 125.656 133.533 125.624 133.548ZM125.753 133.494C125.778 133.483 125.8 133.475 125.825 133.464C125.799 133.475 125.78 133.483 125.753 133.494ZM125.857 133.45C125.881 133.439 125.909 133.429 125.931 133.419C125.907 133.429 125.882 133.439 125.857 133.45ZM125.957 133.409C125.991 133.394 126.02 133.381 126.054 133.367C126.023 133.381 125.99 133.395 125.957 133.409ZM126.059 133.366C126.094 133.351 126.128 133.337 126.164 133.322C126.129 133.337 126.094 133.351 126.059 133.366ZM126.17 133.319C126.201 133.306 126.235 133.293 126.266 133.278C126.233 133.293 126.202 133.306 126.17 133.319ZM126.285 133.271C126.316 133.259 126.342 133.247 126.373 133.234C126.343 133.246 126.314 133.259 126.285 133.271ZM126.387 133.227C126.421 133.213 126.454 133.2 126.487 133.185C126.455 133.2 126.421 133.213 126.387 133.227ZM126.49 133.184C126.564 133.153 126.631 133.124 126.703 133.093C126.633 133.124 126.562 133.153 126.49 133.184ZM126.712 133.09C126.744 133.077 126.777 133.062 126.809 133.049C126.775 133.062 126.746 133.077 126.712 133.09ZM126.819 133.044C126.962 132.984 127.102 132.924 127.245 132.864C127.102 132.924 126.962 132.984 126.819 133.044ZM127.248 132.861C127.571 132.723 127.889 132.586 128.212 132.448C127.891 132.586 127.569 132.724 127.248 132.861ZM128.217 132.445C128.359 132.384 128.499 132.324 128.641 132.262C128.5 132.322 128.358 132.385 128.217 132.445ZM128.646 132.259C128.786 132.199 128.927 132.137 129.068 132.075C128.927 132.137 128.786 132.199 128.646 132.259ZM129.077 132.071C129.215 132.011 129.358 131.948 129.497 131.888C129.356 131.949 129.218 132.009 129.077 132.071ZM129.507 131.883C129.537 131.87 129.57 131.855 129.601 131.841C129.572 131.855 129.537 131.87 129.507 131.883ZM129.61 131.838C129.713 131.792 129.82 131.745 129.923 131.7C129.82 131.745 129.714 131.792 129.61 131.838ZM129.936 131.694C129.968 131.679 129.993 131.669 130.024 131.654C129.996 131.667 129.965 131.681 129.936 131.694ZM130.042 131.647C130.076 131.632 130.106 131.619 130.14 131.604C130.106 131.619 130.077 131.632 130.042 131.647ZM130.14 131.603C130.209 131.572 130.28 131.541 130.349 131.512C130.28 131.541 130.209 131.572 130.14 131.603ZM130.366 131.503C130.394 131.491 130.423 131.478 130.45 131.466C130.423 131.478 130.394 131.491 130.366 131.503ZM130.469 131.457C130.498 131.444 130.525 131.432 130.554 131.419C130.528 131.432 130.497 131.444 130.469 131.457ZM130.573 131.41C130.641 131.381 130.705 131.352 130.771 131.322C130.705 131.352 130.641 131.381 130.573 131.41ZM130.802 131.309C130.826 131.297 130.848 131.287 130.873 131.277C130.849 131.287 130.824 131.299 130.802 131.309ZM130.904 131.264C130.926 131.253 130.949 131.243 130.971 131.233C130.948 131.243 130.927 131.252 130.904 131.264ZM131.003 131.218C131.03 131.206 131.056 131.195 131.083 131.183C131.058 131.193 131.028 131.208 131.003 131.218ZM131.102 131.174C131.133 131.159 131.169 131.143 131.2 131.13C131.168 131.145 131.134 131.159 131.102 131.174ZM131.225 131.12C131.25 131.108 131.272 131.098 131.297 131.087C131.274 131.098 131.249 131.109 131.225 131.12ZM131.334 131.07C131.353 131.061 131.372 131.052 131.392 131.043C131.372 131.052 131.353 131.061 131.334 131.07ZM131.436 131.024C131.454 131.017 131.47 131.008 131.489 131.001C131.47 131.008 131.454 131.015 131.436 131.024ZM131.533 130.98C131.548 130.973 131.566 130.966 131.582 130.958C131.564 130.966 131.55 130.973 131.533 130.98ZM131.676 130.916C131.69 130.908 131.704 130.904 131.717 130.897C131.705 130.902 131.689 130.91 131.676 130.916ZM131.773 130.872C131.784 130.867 131.799 130.86 131.809 130.854C131.798 130.86 131.784 130.866 131.773 130.872ZM131.868 130.828C131.88 130.823 131.892 130.817 131.902 130.813C131.892 130.817 131.88 130.823 131.868 130.828ZM131.965 130.784C131.968 130.784 131.971 130.782 131.972 130.781C131.971 130.782 131.968 130.784 131.965 130.784ZM132.218 130.669C132.22 130.668 132.223 130.668 132.228 130.665C132.225 130.666 132.22 130.668 132.218 130.669ZM132.309 130.628L132.312 130.626L132.309 130.628Z" fill="#5B6D54"/>
<path d="M57.0869 148.543C48.8968 148.543 40.9213 147.804 33.2474 146.29C29.4607 145.355 25.7509 144.228 22.135 142.889C15.4691 140.422 10.6948 134.509 9.61106 127.483C8.6936 121.532 8.26637 115.42 8.37495 109.189C8.89799 79.1797 21.9134 52.1948 42.3462 33.0921C42.476 32.9949 42.6049 32.8997 42.7349 32.8044C34.9899 47.25 30.463 63.6686 30.1591 81.1082C30.1535 81.4364 30.1488 81.7645 30.1466 82.0927C29.9918 100.389 42.9993 116.109 60.9775 119.52C68.4017 120.928 76.1005 121.615 84.0025 121.615C105.825 121.615 129.196 116.374 152.561 106.612C169.143 99.6822 184.213 91.0971 197.157 81.1062C181.956 101.404 159.365 118.281 132.313 130.625L132.309 130.627C132.283 130.64 132.257 130.652 132.228 130.664C132.224 130.666 132.222 130.668 132.218 130.668C132.135 130.706 132.056 130.743 131.973 130.779C131.971 130.781 131.969 130.783 131.967 130.783C131.945 130.794 131.924 130.802 131.904 130.812C131.892 130.816 131.88 130.822 131.87 130.826C131.849 130.836 131.831 130.844 131.811 130.854C131.801 130.858 131.785 130.866 131.772 130.87C131.752 130.879 131.738 130.887 131.718 130.895C131.704 130.903 131.691 130.907 131.677 130.915C131.645 130.927 131.614 130.943 131.582 130.958C131.566 130.964 131.55 130.972 131.533 130.98C131.519 130.986 131.503 130.992 131.489 131C131.471 131.008 131.454 131.014 131.438 131.022C131.424 131.029 131.408 131.035 131.394 131.043C131.373 131.051 131.353 131.061 131.335 131.069C131.323 131.075 131.311 131.079 131.298 131.087C131.272 131.097 131.25 131.108 131.226 131.118C131.215 131.122 131.209 131.126 131.201 131.13C131.171 131.142 131.134 131.158 131.104 131.174C131.096 131.176 131.092 131.178 131.084 131.18C131.057 131.195 131.031 131.205 131.005 131.217C130.995 131.221 130.982 131.227 130.972 131.233C130.95 131.243 130.928 131.253 130.903 131.264C130.893 131.268 130.883 131.272 130.873 131.276C130.849 131.286 130.826 131.296 130.802 131.308C130.794 131.312 130.782 131.316 130.772 131.322C130.705 131.351 130.64 131.381 130.575 131.409C130.567 131.413 130.561 131.415 130.555 131.419C130.527 131.432 130.5 131.444 130.47 131.456C130.464 131.46 130.458 131.462 130.452 131.464C130.423 131.476 130.395 131.49 130.369 131.503C130.361 131.505 130.356 131.507 130.35 131.511C130.282 131.541 130.211 131.571 130.142 131.602H130.14C130.107 131.618 130.077 131.63 130.042 131.646C130.038 131.648 130.03 131.65 130.024 131.654C129.994 131.667 129.97 131.679 129.937 131.693C129.931 131.695 129.929 131.697 129.923 131.699C129.822 131.744 129.714 131.792 129.611 131.837C129.607 131.839 129.607 131.839 129.603 131.841C129.57 131.853 129.538 131.869 129.508 131.881C129.504 131.883 129.502 131.885 129.498 131.885C129.358 131.948 129.216 132.009 129.078 132.07C129.076 132.072 129.07 132.074 129.07 132.076C128.928 132.137 128.789 132.197 128.647 132.258C128.645 132.26 128.645 132.26 128.643 132.26C128.499 132.323 128.361 132.382 128.217 132.445C128.215 132.447 128.213 132.447 128.213 132.447C127.891 132.586 127.571 132.722 127.249 132.86L127.245 132.862C127.103 132.923 126.961 132.983 126.82 133.044C126.815 133.044 126.813 133.046 126.809 133.048C126.777 133.062 126.745 133.075 126.712 133.089C126.71 133.091 126.706 133.093 126.704 133.093C126.631 133.123 126.564 133.151 126.491 133.182C126.491 133.184 126.491 133.184 126.487 133.184C126.455 133.198 126.422 133.212 126.388 133.226C126.384 133.228 126.38 133.23 126.374 133.233C126.343 133.247 126.317 133.257 126.285 133.269C126.279 133.271 126.273 133.275 126.266 133.277C126.236 133.291 126.202 133.305 126.171 133.318C126.169 133.318 126.167 133.32 126.165 133.32C126.129 133.336 126.094 133.35 126.06 133.364C126.056 133.366 126.056 133.366 126.056 133.366C126.021 133.38 125.993 133.393 125.959 133.407C125.948 133.411 125.94 133.415 125.932 133.417C125.91 133.427 125.882 133.439 125.859 133.449C125.849 133.453 125.837 133.457 125.827 133.463C125.801 133.474 125.778 133.482 125.754 133.494C125.744 133.496 125.734 133.502 125.726 133.504C125.691 133.52 125.659 133.532 125.624 133.546C102.264 143.309 78.9051 148.543 57.0869 148.543Z" fill="#BF6700"/>
<path d="M42.3457 33.091C42.5016 32.9451 42.6576 32.8012 42.8147 32.6573V32.6552C42.7885 32.7059 42.7616 32.7546 42.7344 32.8052C42.6045 32.9005 42.4756 32.9957 42.3457 33.091Z" fill="#D19982"/>
<path d="M57.6677 43.8993C56.5603 47.3811 54.6473 49.9294 53.4291 49.5427C52.2111 49.1541 52.1207 45.9708 53.228 42.487C54.3342 39.0052 56.2484 36.4569 57.4666 36.8436C58.6079 37.2082 58.773 40.0329 57.8428 43.3164L57.6677 43.8993Z" fill="#FCE69F"/>
<path d="M75.7451 46.1425C75.1203 49.7447 73.5699 52.5278 72.3099 52.3091C71.0511 52.0905 70.5291 48.9475 71.1539 45.3473C71.7799 41.7451 73.3303 38.9619 74.5891 39.1806C75.77 39.3854 76.3157 42.1626 75.8399 45.5421L75.7451 46.1425Z" fill="#FCE69F"/>
<path d="M99.0832 45.419C99.5921 49.0389 98.9699 52.1638 97.7037 52.3407C96.4374 52.5196 94.9783 49.687 94.4694 46.0671C93.9606 42.4492 94.5847 39.3243 95.849 39.1474C97.0358 38.9804 98.4074 41.4553 98.9898 44.8187L99.0832 45.419Z" fill="#FCE69F"/>
<path d="M118.6 37.9351C120.534 41.0358 121.23 44.1446 120.147 44.821C119.063 45.4975 116.578 43.5005 114.646 40.3998C112.71 37.2991 112.013 34.1903 113.097 33.5139C114.114 32.88 116.372 34.5873 118.267 37.4247L118.6 37.9351Z" fill="#FCE69F"/>
<path d="M133.567 25.5235C136.16 28.1016 137.548 30.9687 136.645 31.8756C135.743 32.7803 132.872 31.4044 130.281 28.8262C127.69 26.2481 126.3 23.381 127.202 22.4742C128.048 21.626 130.635 22.7716 133.131 25.1005L133.567 25.5235Z" fill="#FCE69F"/>
<path d="M60.0745 103.002C58.858 103.002 57.875 102.017 57.875 100.802C57.875 99.5854 58.858 98.6008 60.0745 98.6008C61.2895 98.6008 62.2741 99.5854 62.2741 100.802C62.2741 102.017 61.2895 103.002 60.0745 103.002Z" fill="#BF6700"/>
<path d="M95.5625 82.0992C94.3477 82.0992 93.3623 81.1137 93.3623 79.899C93.3623 78.6825 94.3477 77.6971 95.5625 77.6971C96.7772 77.6971 97.7626 78.6825 97.7626 79.899C97.7626 81.1137 96.7772 82.0992 95.5625 82.0992Z" fill="#BF6700"/>
<path d="M102.834 104.997C101.617 104.997 100.634 104.012 100.634 102.798C100.634 101.583 101.617 100.597 102.834 100.597C104.048 100.597 105.033 101.583 105.033 102.798C105.033 104.012 104.048 104.997 102.834 104.997Z" fill="#E99335"/>
<path d="M124.066 78.0638C122.851 78.0638 121.867 77.0786 121.867 75.8627C121.867 74.6485 122.851 73.6634 124.066 73.6634C125.282 73.6634 126.268 74.6485 126.268 75.8627C126.268 77.0786 125.282 78.0638 124.066 78.0638Z" fill="#E99335"/>
<path d="M146.781 96.0711C145.566 96.0711 144.58 95.0857 144.58 93.8722C144.58 92.6554 145.566 91.6716 146.781 91.6716C147.997 91.6716 148.983 92.6554 148.983 93.8722C148.983 95.0857 147.997 96.0711 146.781 96.0711Z" fill="#BF6700"/>
<path d="M149.724 62.7785C148.509 62.7785 147.524 61.7937 147.524 60.5789C147.524 59.3623 148.509 58.3774 149.724 58.3774C150.941 58.3774 151.924 59.3623 151.924 60.5789C151.924 61.7937 150.941 62.7785 149.724 62.7785Z" fill="#BF6700"/>
<path d="M165.54 43.9234C164.325 43.9234 163.339 42.9391 163.339 41.7246C163.339 40.51 164.325 39.5237 165.54 39.5237C166.754 39.5237 167.741 40.51 167.741 41.7246C167.741 42.9391 166.754 43.9234 165.54 43.9234Z" fill="#BF6700"/>
<path d="M60.5146 80.1506C59.2999 80.1506 58.3145 79.1655 58.3145 77.9495C58.3145 76.7353 59.2999 75.7502 60.5146 75.7502C61.7304 75.7502 62.7159 76.7353 62.7159 77.9495C62.7159 79.1655 61.7304 80.1506 60.5146 80.1506Z" fill="#E99335"/>
<path d="M187.122 64.6471C185.907 64.6471 184.923 63.6627 184.923 62.4479C184.923 61.2332 185.907 60.247 187.122 60.247C188.339 60.247 189.323 61.2332 189.323 62.4479C189.323 63.6627 188.339 64.6471 187.122 64.6471Z" fill="#BF6700"/>
<path d="M172.855 88.6759C171.641 88.6759 170.654 87.6896 170.654 86.4748C170.654 85.2601 171.641 84.2755 172.855 84.2755C174.07 84.2755 175.055 85.2601 175.055 86.4748C175.055 87.6896 174.07 88.6759 172.855 88.6759Z" fill="#E99335"/>
<path d="M110.132 5.31802C53.274 5.31802 6.50646 51.0664 5.51218 108.084C5.40693 114.132 5.82172 120.207 6.74612 126.14C7.69968 132.264 11.8717 137.4 17.636 139.546C47.5549 150.675 85.592 147.793 124.742 131.434C157.984 117.544 183.795 97.6715 199.381 73.9628C202.942 68.5508 203.096 61.4943 199.773 55.9888C180.996 24.852 148.123 5.91443 111.841 5.33139C111.271 5.32248 110.7 5.31802 110.132 5.31802ZM57.0335 150.841C42.3118 150.841 28.5664 148.496 16.0391 143.836C8.72467 141.115 3.43016 134.603 2.2218 126.843C1.25779 120.655 0.824742 114.315 0.934674 108.004C1.44071 78.9832 13.2944 51.8163 34.3124 31.5102C55.3249 11.2107 82.8845 0.270981 111.914 0.753876C130.728 1.05652 149.207 6.23264 165.358 15.7215C181.04 24.9365 194.297 38.0438 203.694 53.6233C207.92 60.6309 207.729 69.6012 203.209 76.4774C187.118 100.952 160.594 121.416 126.506 135.658C106.759 143.911 87.347 148.856 68.8079 150.356C64.819 150.679 60.8924 150.841 57.0335 150.841Z" fill="#6D184E"/>
</symbol>
<symbol id = "top-salad" viewBox="0 0 244 119">
<path d="M34.41 65.0455C34.41 65.0455 6.80593 66.5463 3.50545 81.8481C0.205181 97.1505 14.6071 94.1504 25.709 93.5501C36.8102 92.9497 15.2068 114.253 34.41 116.053C42.4377 116.806 47.7903 112.21 52.1577 107.614C58.2371 101.217 62.4047 94.82 69.2151 102.851C80.9163 116.653 99.2188 115.154 108.22 102.552C117.222 89.9502 124.722 98.0512 142.425 103.752C160.128 109.453 172.13 94.4505 166.429 76.1472C163.598 67.0606 169.716 68.3284 177.659 69.5941C185.717 70.8787 195.652 72.1633 200.032 62.6464C208.733 43.7427 190.131 40.443 212.335 35.9428C234.538 31.4404 244.139 29.9417 240.539 17.7905C236.939 5.63728 228.537 -3.36327 200.332 8.63886C172.13 20.6389 146.625 73.1477 34.41 65.0455Z" fill="#48C75A"/>
<path d="M29.9771 102.137C31.167 98.468 32.1782 95.3008 30.429 93.0282C29.5206 91.8456 28.0774 91.2493 26.1351 91.2493C25.9566 91.2493 25.7734 91.2533 25.5858 91.2634C24.3124 91.3319 22.9822 91.4326 21.6952 91.5313C19.3753 91.7066 16.9357 91.892 14.6746 91.892C14.4137 91.892 14.1546 91.8899 13.8989 91.8859C15.443 86.3656 18.3144 80.9803 13.1837 80.9803C13.0421 80.9803 12.8942 80.9823 12.7401 80.9924C10.5563 81.1092 8.24564 81.3188 5.9668 81.4658C7.14762 77.5251 10.351 74.6722 14.2078 72.6051C14.649 74.8556 15.1605 77.0798 15.7402 79.2778C24.9067 83.9177 34.7909 87.0748 45.1983 88.8417C41.0353 92.4158 36.6994 99.1852 29.9771 102.137ZM76.0302 100.056C73.4437 100.056 70.8232 99.6264 68.2605 98.742C66.8919 97.6943 65.519 97.0778 64.1188 96.8763C61.3097 95.2988 58.6396 93.1149 56.2461 90.2923C56.2135 90.254 56.1806 90.2157 56.1478 90.1774C59.4147 90.4252 62.7244 90.5502 66.0682 90.5502C76.2788 90.5502 86.823 89.4038 97.5511 87.1836C96.7918 87.9754 96.0268 88.9082 95.2515 89.9941C90.5982 96.5097 83.4588 100.056 76.0302 100.056ZM136.844 92.4198C134.529 92.4198 132.055 92.029 129.458 91.1929C121.31 88.5697 115.322 85.4368 110.356 84.0487C118.405 81.7801 126.514 78.9353 134.625 75.5466C134.658 75.5325 134.692 75.5184 134.726 75.5043C134.734 75.5003 134.744 75.4962 134.754 75.4922C134.781 75.4821 134.801 75.4741 134.827 75.462C134.837 75.458 134.847 75.4539 134.859 75.4499C134.883 75.4398 134.909 75.4277 134.934 75.4177C134.942 75.4136 134.95 75.4116 134.958 75.4076C134.99 75.3935 135.024 75.3794 135.057 75.3673L135.059 75.3653C135.095 75.3512 135.131 75.3351 135.165 75.321C135.167 75.3189 135.169 75.3189 135.171 75.3189C135.204 75.3048 135.234 75.2907 135.268 75.2766C135.272 75.2746 135.28 75.2726 135.286 75.2686C135.314 75.2565 135.345 75.2444 135.375 75.2323C135.379 75.2303 135.385 75.2283 135.389 75.2263C135.421 75.2122 135.455 75.1981 135.49 75.1839L135.492 75.1819C135.564 75.1517 135.633 75.1215 135.705 75.0913C135.707 75.0913 135.711 75.0893 135.713 75.0893C135.746 75.0752 135.778 75.0611 135.81 75.047C135.814 75.0449 135.816 75.0449 135.82 75.0429C135.963 74.9825 136.104 74.9241 136.245 74.8616L136.249 74.8596C136.572 74.7226 136.892 74.5856 137.212 74.4466L137.218 74.4446C137.359 74.3841 137.5 74.3217 137.643 74.2612L137.647 74.2572C137.789 74.1967 137.928 74.1363 138.071 74.0759C138.075 74.0718 138.075 74.0718 138.079 74.0698C138.22 74.0074 138.357 73.9489 138.498 73.8865C138.502 73.8845 138.504 73.8845 138.508 73.8825C138.538 73.8684 138.572 73.8543 138.602 73.8402C138.609 73.8381 138.609 73.8381 138.613 73.8361C138.715 73.7918 138.822 73.7434 138.925 73.6991C138.929 73.6971 138.933 73.6951 138.937 73.6911C138.967 73.679 138.997 73.6669 139.026 73.6528C139.03 73.6508 139.038 73.6488 139.042 73.6447C139.078 73.6306 139.106 73.6165 139.14 73.6024H139.142C139.211 73.5702 139.281 73.54 139.35 73.5097C139.356 73.5057 139.362 73.5037 139.368 73.5017C139.394 73.4896 139.424 73.4755 139.451 73.4654C139.459 73.4614 139.465 73.4594 139.471 73.4553C139.497 73.4432 139.529 73.4312 139.555 73.4191C139.561 73.415 139.568 73.413 139.576 73.409C139.642 73.3808 139.707 73.3506 139.773 73.3203C139.781 73.3163 139.793 73.3103 139.803 73.3083C139.825 73.2982 139.85 73.2861 139.874 73.276C139.884 73.27 139.894 73.268 139.904 73.2619C139.928 73.2519 139.948 73.2418 139.972 73.2317C139.985 73.2257 139.995 73.2216 140.005 73.2176C140.031 73.2055 140.059 73.1934 140.085 73.1813C140.089 73.1793 140.097 73.1753 140.103 73.1733C140.136 73.1592 140.17 73.143 140.202 73.1289C140.21 73.1249 140.218 73.1209 140.226 73.1189C140.248 73.1068 140.275 73.0967 140.299 73.0866C140.309 73.0806 140.323 73.0745 140.335 73.0685C140.355 73.0604 140.373 73.0504 140.394 73.0423C140.41 73.0363 140.422 73.0302 140.438 73.0222C140.456 73.0141 140.472 73.0081 140.49 73C140.504 72.992 140.52 72.9859 140.535 72.9799C140.551 72.9718 140.567 72.9637 140.583 72.9577C140.613 72.9436 140.647 72.9275 140.678 72.9154C140.69 72.9093 140.706 72.9013 140.718 72.8952C140.738 72.8872 140.754 72.8791 140.774 72.8711C140.786 72.865 140.798 72.859 140.811 72.8529C140.831 72.8449 140.851 72.8348 140.869 72.8267C140.881 72.8227 140.893 72.8167 140.903 72.8126C140.925 72.8006 140.946 72.7925 140.968 72.7824C140.97 72.7824 140.972 72.7804 140.974 72.7804C141.054 72.7421 141.137 72.7059 141.22 72.6676C141.222 72.6676 141.226 72.6656 141.23 72.6636C141.256 72.6515 141.284 72.6394 141.31 72.6273L141.312 72.6253C145.72 70.6146 150.01 68.483 154.168 66.2366C157.394 80.67 149.534 92.4198 136.844 92.4198ZM173.392 57.9219C171.813 57.9219 170.209 57.793 168.63 57.6036C176.191 52.6212 183.18 47.2117 189.498 41.4093C189.293 43.8733 188.61 46.7342 187.066 50.0867C184.195 56.3222 178.941 57.9219 173.392 57.9219ZM207.123 21.8062C210.558 17.0837 213.598 12.1799 216.205 7.11091C216.036 6.74625 215.865 6.38158 215.693 6.01893C218.159 5.52532 220.424 5.27752 222.483 5.27752C224.431 5.27752 226.196 5.49915 227.77 5.9444C230.399 15.9736 223.39 18.4175 207.123 21.8062Z" fill="#539256"/>
<path d="M88.9655 110.327C88.893 110.327 88.8192 110.325 88.7441 110.325C92.8015 108.545 96.4368 105.652 99.228 101.744C102.933 96.5569 106.4 94.6835 110.353 94.6835C111.216 94.6835 112.106 94.7729 113.025 94.9386C110.784 96.1037 108.586 98.1026 106.356 101.221C102.427 106.724 96.4174 110.035 89.8692 110.307C89.5675 110.32 89.2672 110.327 88.9655 110.327Z" fill="#A4E3AD"/>
<path d="M151.222 102.649C160.139 98.5358 163.564 87.2817 160.91 73.7643C159.858 68.4049 162.191 67.0707 166.154 67.0707C166.299 67.0707 166.444 67.0707 166.59 67.0748C165.887 67.383 165.271 67.8216 164.752 68.4193C162.689 70.7981 163.473 74.3579 164.243 76.8277C166.882 85.298 165.469 93.5802 160.557 98.4454C158.025 100.953 154.837 102.368 151.222 102.649ZM186.415 68.1608C185.918 68.1608 185.409 68.1484 184.892 68.1236C189.604 67.4244 193.894 65.1657 196.521 59.4567C205.742 39.4257 186.03 35.9279 209.559 31.158C225.713 27.8836 235.567 26.1068 238.925 21.1446C239.16 23.2027 238.712 24.3052 238.292 25.0002C235.992 28.8269 227.258 30.5913 214.041 33.2616L211.879 33.6981C204.34 35.2267 200.974 36.6891 199.467 39.0927C198.077 41.3038 198.67 43.6288 199.295 46.0923C200.222 49.7308 201.374 54.2586 197.955 61.6886C195.656 66.6798 191.615 68.1608 186.415 68.1608Z" fill="#A4E3AD"/>
<path d="M26.134 91.2497C28.0766 91.2497 29.5196 91.8456 30.4281 93.0289C32.1896 95.3176 31.1524 98.5145 29.9512 102.216C28.8529 105.599 27.6077 109.436 28.958 111.489C29.775 112.73 31.6802 113.498 34.6238 113.774C42.7179 114.531 47.8458 108.95 52.3692 104.023C55.8157 100.269 59.0612 96.703 63.2443 96.807C65.8773 96.8589 68.4017 98.3516 70.9612 101.371C76.0957 107.427 82.8114 110.603 89.8693 110.307C96.4177 110.035 102.427 106.724 106.357 101.222C114.29 90.1168 121.85 93.2156 132.315 97.5019C135.466 98.7924 139.035 100.255 143.128 101.573C150.073 103.808 156.262 102.699 160.557 98.4454C165.468 93.5806 166.88 85.2975 164.243 76.8276C163.473 74.3582 162.689 70.7999 164.753 68.4186C167.199 65.5967 171.865 66.3457 177.27 67.2143C186.839 68.7501 194.441 69.3208 197.953 61.688C201.375 54.2588 200.221 49.7291 199.295 46.0911C198.668 43.63 198.076 41.3033 199.465 39.0919C200.974 36.6897 204.339 35.2273 211.88 33.6978L214.041 33.2614C227.258 30.5906 235.991 28.8282 238.292 25.0014C238.867 24.0468 239.496 22.3305 238.345 18.4407C236.53 12.3165 233.842 8.59454 229.883 6.72937C223.83 3.87811 214.188 5.22926 201.23 10.7451C194.548 13.5879 187.802 18.9799 179.993 25.2259C167.801 34.9692 152.63 47.1002 129.869 55.9583C103.255 66.3164 72.0244 70.0383 34.4012 67.3402C32.3841 67.4808 8.52731 69.4236 5.74318 82.3309C4.99019 85.8241 5.23062 88.3082 6.45861 89.716C8.88817 92.5044 15.6918 91.9882 21.6943 91.5329C22.9815 91.4343 24.3114 91.3336 25.5849 91.2644C25.7725 91.2539 25.9555 91.2497 26.134 91.2497ZM36.1097 118.424C35.4872 118.424 34.8498 118.394 34.1966 118.333C29.7387 117.914 26.7737 116.498 25.1328 114.004C22.5747 110.115 24.2493 104.952 25.5963 100.803C26.125 99.172 26.9092 96.755 26.785 95.8837C26.6359 95.8487 26.3432 95.8069 25.8323 95.8363C24.6085 95.9017 23.361 95.9968 22.0401 96.0973C14.6201 96.6589 6.94558 97.242 3.00794 92.7246C0.7477 90.1335 0.178493 86.4158 1.26802 81.3658C4.89493 64.5498 33.088 62.8252 34.2858 62.7601C34.3819 62.7559 34.479 62.756 34.5751 62.7643C118.161 68.7942 152.244 41.5446 177.134 21.6487C185.205 15.195 192.177 9.62048 199.438 6.53214C213.85 0.399513 224.447 -0.890793 231.834 2.58779C237.058 5.05091 240.522 9.67295 242.734 17.1399C243.984 21.3612 243.814 24.7035 242.215 27.3617C238.873 32.9153 229.868 34.7343 214.947 37.7492L212.79 38.1856C207.201 39.3185 204.025 40.4431 203.343 41.5278C203.013 42.0502 203.278 43.1727 203.733 44.9623C204.719 48.8395 206.211 54.6994 202.113 63.6036C196.866 74.9981 184.636 73.0343 176.544 71.7336C173.535 71.2531 168.989 70.5188 168.213 71.4168C168.185 71.4461 167.592 72.1846 168.613 75.466C171.811 85.7276 170.002 95.5335 163.777 101.699C158.291 107.135 150.251 108.676 141.723 105.93C137.464 104.559 133.807 103.06 130.58 101.739C120.203 97.4872 115.908 95.7278 110.083 103.882C105.327 110.542 98.028 114.55 90.0604 114.881C81.5559 115.233 73.5363 111.488 67.4693 104.332C65.831 102.4 64.3789 101.409 63.1528 101.385C63.1381 101.385 63.1224 101.385 63.1064 101.385C61.0082 101.385 58.4498 104.171 55.7412 107.12C51.3183 111.938 45.3634 118.424 36.1097 118.424Z" fill="#6D184E"/>
</symbol>
<symbol id = "cheese" viewBox="0 0 253 154">
<path d="M22.8089 68.5493C22.8089 68.5493 7.40663 74.7501 3.60633 85.3518C1.34848 91.6491 7.84299 88.1361 17.7228 84.6228C24.4757 82.2216 32.8093 79.8205 41.0109 80.5514C48.4995 81.2181 51.3708 78.973 53.4556 76.7276C56.9948 72.9151 58.2659 69.1009 76.0161 79.5503C104.221 96.1534 106.821 123.757 126.023 124.256C133.714 124.458 138.131 121.978 141.129 119.5C145.613 115.79 146.91 112.08 151.226 117.357C158.428 126.157 172.079 124.557 164.578 108.655C157.077 92.752 161.828 57.747 195.834 38.3447C229.837 18.9424 248.04 23.1422 249.641 20.3431C251.242 17.5418 243.639 3.13874 219.436 2.74009C195.233 2.33929 134.425 64.1491 22.8089 68.5493Z" fill="#FCAF15"/>
<path d="M126.834 121.978C126.587 121.978 126.338 121.975 126.083 121.968C117.242 121.737 112.31 114.946 105.483 105.544C102.715 101.731 99.6526 97.5142 95.9346 93.2893C100.727 91.4945 104.955 88.2608 108.083 83.882C111.042 79.7405 113.604 78.1574 116.77 78.1574C119.839 78.1574 123.473 79.6459 128.58 81.7391C131.808 83.0591 135.465 84.5572 139.723 85.9303C142.496 86.8221 145.217 87.2616 147.815 87.2616C152.435 87.2616 156.668 85.8725 160.115 83.1682C159.646 84.0488 159.229 84.9358 158.859 85.8228C154.716 88.0411 150.643 88.8655 146.726 88.8655C141.08 88.8655 135.761 87.1525 131.039 85.4394C126.316 83.7248 122.19 82.0117 118.926 82.0117C117.109 82.0117 115.559 82.5427 114.323 83.9012C109.91 88.7452 105.557 93.5828 102.897 95.0745C110.797 105.828 115.622 114.872 126.502 115.155C126.768 115.161 127.028 115.166 127.286 115.166C134.629 115.166 138.793 112.402 141.6 109.64C144.405 106.877 145.854 104.115 147.766 104.115C148.726 104.115 149.803 104.811 151.227 106.551C153.795 109.69 157.182 111.502 160.139 111.815C161.449 115.742 161.228 118.544 160.097 120.318C157.863 119.984 155.137 118.52 152.999 115.907C151.739 114.366 150.001 112.58 147.733 112.45C147.647 112.446 147.559 112.442 147.472 112.442C145.263 112.442 143.653 113.995 141.954 115.642C139.176 118.335 135.397 121.978 126.834 121.978ZM5.65527 86.4339C5.68607 86.3393 5.72103 86.235 5.76129 86.1227C7.14745 82.2571 10.3496 78.9866 13.6686 76.4652C15.7501 76.4219 17.9061 76.2583 20.0407 76.0963C21.3616 75.9968 22.6092 75.9006 23.833 75.8348C23.9538 75.8284 24.0624 75.8252 24.1596 75.8252C24.4736 75.8252 24.6725 75.8557 24.7856 75.8829C24.8974 76.6657 24.277 78.6915 23.7663 80.2778C19.5728 81.4455 15.697 82.9051 12.3589 84.1627C10.017 85.0449 7.22765 86.0955 5.65527 86.4339Z" fill="#D18126"/>
<path d="M41.29 80.571C53.5467 81.5577 53.1819 74.6008 57.7849 73.0761C49.071 71.1223 51.3948 79.5711 41.29 80.571Z" fill="#F8CE36"/>
<path d="M3.37598 88.2576C5.32203 91.2653 20.1263 81.3568 35.7853 80.4802C22.975 79.7018 10.0056 86.2575 3.37598 88.2576Z" fill="#F8CE36"/>
<path d="M161.041 111.866C160.746 111.866 160.443 111.849 160.137 111.817C159.809 110.833 159.384 109.78 158.852 108.654C156.231 103.096 155.284 94.4129 158.859 85.8239C159.167 85.6575 159.477 85.4846 159.786 85.3037C158.515 94.3515 159.423 103.089 162.508 109.632C162.81 110.271 163.078 110.893 163.309 111.494C162.619 111.743 161.852 111.866 161.041 111.866Z" fill="#FED78A"/>
<path d="M161.051 120.391C160.746 120.391 160.426 120.367 160.096 120.318C161.225 118.545 161.448 115.742 160.136 111.817C160.442 111.849 160.744 111.867 161.04 111.867C161.851 111.867 162.618 111.744 163.309 111.493C164.913 115.634 164.868 118.768 163.116 119.876C162.569 120.219 161.861 120.391 161.051 120.391ZM158.857 85.8227C159.226 84.937 159.644 84.0496 160.112 83.1687C160.117 83.1639 160.122 83.1606 160.127 83.1574C160 83.8741 159.886 84.5892 159.785 85.3043C159.477 85.4847 159.166 85.6586 158.857 85.8227Z" fill="#E8C093"/>
<path d="M167.996 62.087C167.77 59.9242 167.312 57.7074 166.614 55.467C165.592 52.184 166.185 51.4473 166.212 51.4169C166.479 51.1094 167.19 50.9928 168.132 50.9928C169.931 50.9928 172.569 51.4169 174.544 51.7345C174.828 51.7802 175.117 51.8258 175.412 51.8731C172.405 55.2895 169.97 58.7432 167.996 62.087Z" fill="#D18126"/>
<path d="M59.6467 70.5093C63.2085 70.5093 68.4212 72.4235 77.1775 77.5784C91.1478 85.8015 99.0961 96.7489 105.483 105.545C112.309 114.946 117.241 121.738 126.082 121.969C135.179 122.188 139.096 118.413 141.953 115.642C143.718 113.932 145.389 112.321 147.734 112.45C150 112.581 151.739 114.367 152.999 115.907C156.292 119.931 160.974 121.228 163.116 119.876C165.122 118.606 164.891 114.682 162.507 109.632C158.149 100.39 158.136 86.7642 162.475 74.0721C166.22 63.1182 174.852 47.6801 194.698 36.3553C219.19 22.3828 235.782 20.43 243.755 19.4926C245.134 19.3302 246.658 19.1506 247.496 18.9601C247.325 18.1785 246.721 16.6133 244.991 14.6085C242.582 11.8158 235.264 5.29066 219.397 5.02871C212.034 4.88582 200.391 11.359 184.263 20.2915C150.107 39.2 98.5289 67.7576 23.3185 70.8199C21.0945 71.7894 8.86737 77.4587 5.76091 86.1236C5.72064 86.2353 5.68557 86.3392 5.65504 86.4343C7.22722 86.0963 10.0165 85.0455 12.3588 84.1631C20.0256 81.2746 30.5301 77.3232 41.2143 78.2701C48.47 78.9198 50.4192 76.7174 52.4815 74.3884C54.4578 72.1557 56.3437 70.5093 59.6467 70.5093ZM126.875 126.557C126.576 126.557 126.271 126.554 125.963 126.545C114.863 126.256 108.799 117.905 101.778 108.234C95.3207 99.3423 88.003 89.2639 74.8554 81.5234C67.7035 77.3141 62.8379 75.2054 59.9812 75.079C58.1348 75.0089 57.4387 75.6947 55.9088 77.4225C53.5709 80.0644 50.3661 83.6781 40.8086 82.8307C31.1616 81.9695 21.2268 85.7144 13.9723 88.4468C7.58032 90.8549 4.0584 92.1826 1.91209 90.0705C0.116275 88.3033 1.1208 85.4997 1.45117 84.5789C5.55134 73.142 21.2867 66.6947 21.9533 66.4262C22.1975 66.3288 22.4562 66.2725 22.7184 66.2617C97.0678 63.3303 148.206 35.0195 182.044 16.2842C198.796 7.01177 210.9 0.315643 219.473 0.452034C236.643 0.735634 246.829 7.98167 250.635 14.6692C251.544 16.269 252.885 19.2805 251.629 21.4779C250.588 23.2986 248.483 23.5454 244.29 24.039C236.615 24.9417 220.649 26.8209 196.969 40.3344C165.469 58.3055 159.048 91.5611 166.649 107.678C171.693 118.374 167.569 122.478 165.56 123.746C161.102 126.563 154.027 124.393 149.455 118.805C148.065 117.108 147.476 117.022 147.47 117.021C147.078 117.053 145.911 118.183 145.14 118.931C142.174 121.803 137.271 126.557 126.875 126.557Z" fill="#6D184E"/>
<path d="M143.802 98.0789C143.802 98.0789 136.821 111.061 126.502 109.479C118.673 108.278 131.755 109.806 135.153 100.329C139.077 89.3756 145.822 95.0778 143.802 98.0789Z" fill="#F8CE36"/>
<path d="M182.849 140.342C181.531 147.456 174.693 152.153 167.579 150.834C160.466 149.514 155.767 142.677 157.089 135.563C157.863 131.383 159.538 132.332 162.272 133.281C164.19 133.948 166.627 134.614 169.639 133.507C178.239 130.349 184.168 133.228 182.849 140.342Z" fill="#FCAF15"/>
<path d="M167.555 150.829H167.554H167.555ZM176.319 141.783C176.64 140.985 176.885 140.144 177.049 139.266C177.658 135.983 176.708 133.615 174.678 132.313C175.127 132.27 175.56 132.25 175.98 132.25C180.9 132.25 183.778 135.141 182.862 140.263C183.155 138.627 183.048 137.225 182.624 136.063C181.133 138.354 178.894 140.463 176.319 141.783ZM182.853 140.316C182.853 140.314 182.855 140.31 182.855 140.307C182.855 140.31 182.853 140.313 182.853 140.316ZM182.859 140.291C182.859 140.282 182.86 140.274 182.862 140.265C182.86 140.274 182.859 140.282 182.859 140.291Z" fill="#FED78A"/>
<path d="M167.578 150.834C167.571 150.832 167.564 150.831 167.556 150.83C167.563 150.831 167.571 150.832 167.578 150.834ZM182.012 143.114C182.385 142.242 182.668 141.314 182.849 140.342C182.851 140.334 182.852 140.325 182.854 140.316C182.852 140.325 182.851 140.333 182.849 140.342C182.668 141.314 182.385 142.242 182.012 143.114Z" fill="#D18126"/>
<path d="M157.09 135.563C157.09 135.559 157.09 135.554 157.092 135.549C157.09 135.554 157.09 135.559 157.09 135.563Z" fill="#6D184E"/>
<path d="M167.555 150.83C160.454 149.5 155.769 142.67 157.088 135.563C157.088 135.56 157.089 135.555 157.089 135.551C157.494 133.388 158.139 132.607 159.05 132.486C160.367 137.124 163.965 142.088 169.027 143.027C169.631 143.139 170.233 143.192 170.835 143.192C172.732 143.192 174.601 142.662 176.319 141.783C174.403 146.538 169.846 149.736 164.742 149.956C165.627 150.342 166.564 150.643 167.555 150.83ZM182.854 140.307C182.856 140.303 182.857 140.297 182.857 140.291C182.857 140.297 182.856 140.303 182.854 140.307ZM182.863 140.265C182.863 140.265 182.863 140.264 182.863 140.263C182.863 140.264 182.863 140.265 182.863 140.265Z" fill="#D18126"/>
<path d="M170.065 151.056C175.27 151.022 179.977 147.877 182.012 143.114C179.977 147.878 175.27 151.023 170.065 151.056Z" fill="#D3B392"/>
<path d="M169.983 151.056C169.191 151.056 168.385 150.983 167.579 150.834C167.57 150.832 167.563 150.831 167.556 150.83H167.555C166.566 150.643 165.628 150.341 164.742 149.956C169.848 149.736 174.402 146.538 176.32 141.783C178.895 140.463 181.134 138.354 182.624 136.063C183.048 137.225 183.156 138.627 182.864 140.263C182.864 140.264 182.864 140.265 182.864 140.265C182.861 140.274 182.861 140.282 182.859 140.291C182.857 140.297 182.857 140.302 182.855 140.307C182.855 140.31 182.854 140.314 182.854 140.316C182.852 140.325 182.85 140.334 182.848 140.342C182.67 141.314 182.385 142.241 182.013 143.114C179.977 147.877 175.269 151.022 170.067 151.056C170.037 151.056 170.011 151.056 169.983 151.056Z" fill="#D29D78"/>
<path d="M159.642 134.811C159.559 135.028 159.447 135.393 159.338 135.982C158.812 138.821 159.422 141.695 161.056 144.076C162.692 146.455 165.157 148.056 167.996 148.583C170.836 149.109 173.709 148.5 176.09 146.863C178.471 145.229 180.07 142.764 180.598 139.925C180.856 138.533 180.892 136.646 179.604 135.558C177.938 134.152 174.423 134.191 170.427 135.657C166.325 137.165 163.073 136.002 160.92 135.232C160.513 135.087 159.996 134.901 159.642 134.811ZM170.001 153.347C169.058 153.347 168.108 153.26 167.159 153.084C163.12 152.335 159.612 150.057 157.283 146.668C154.955 143.28 154.086 139.189 154.836 135.147C155.129 133.571 155.676 131.642 157.333 130.689C159.049 129.7 160.862 130.35 162.463 130.922C164.351 131.596 166.304 132.294 168.85 131.36C174.553 129.265 179.548 129.52 182.556 132.059C184.874 134.015 185.777 137.106 185.098 140.76C184.35 144.802 182.071 148.31 178.683 150.638C176.089 152.42 173.082 153.347 170.001 153.347Z" fill="#6D184E"/>
</symbol>
<symbol id = "cutlet" viewBox="0 0 223 137">
<path d="M181.069 4.53416C178.287 5.64696 175.896 7.40268 173.933 9.65092C161.987 17.8752 135.964 34.4351 102.947 47.4836C70.0503 60.8184 39.7877 66.7883 25.4662 69.0778C22.4942 68.8078 19.5527 69.187 16.7708 70.2998C4.08091 75.3794 -0.481305 93.8022 6.58158 111.445C13.6441 129.089 27.672 135.957 42.3471 134.196C75.003 129.731 104.19 120.328 128.061 110.219C152.314 101.065 179.929 87.7313 206.644 68.4307C218.483 59.5799 223.897 44.9303 216.835 27.2844C209.772 9.64062 193.759 -0.543427 181.069 4.53416Z" fill="#DB2839"/>
<path d="M37.8546 132.182C24.7557 132.182 14.2705 124.495 8.7063 110.595C8.2825 109.536 7.90072 108.471 7.56055 107.402C8.4328 107.1 9.32787 106.801 10.2397 106.512C9.5933 109.464 9.48382 112.498 11.1324 115.004C12.7732 117.498 15.7382 118.914 20.1962 119.334C20.8493 119.395 21.4867 119.424 22.1092 119.424C31.3628 119.424 37.3179 112.938 41.7407 108.121C44.4494 105.171 47.0076 102.385 49.106 102.385C49.1219 102.385 49.1377 102.385 49.1524 102.385C50.3784 102.409 51.8304 103.401 53.469 105.332C59.2748 112.181 66.8685 115.905 74.9638 115.904C75.3276 115.904 75.6936 115.897 76.0599 115.881C77.0384 115.841 78.0068 115.745 78.9629 115.596C81.2069 118.019 83.2229 120.483 85.0987 122.919C70.7353 126.959 56.3573 129.97 42.074 131.924C40.64 132.096 39.2332 132.182 37.8546 132.182ZM48.3749 108.041C48.019 108.041 47.7049 108.23 47.4134 108.653C46.2573 110.328 43.7882 112.671 41.1892 114.92C39.4785 116.4 39.9891 119.141 42.0944 119.968C45.8584 121.448 49.871 122.162 53.9876 122.162C55.4464 122.162 56.9188 122.073 58.3969 121.895C58.4419 121.888 58.4872 121.883 58.5324 121.876C61.389 121.484 62.058 117.659 59.5188 116.294C53.0474 112.815 50.1727 108.041 48.3749 108.041ZM154.929 96.2984C157.676 88.5273 162.28 80.6431 169.074 73.6033C170.118 73.6902 171.178 73.7427 172.243 73.7427C173.17 73.7427 174.099 73.7023 175.018 73.6094C172.635 76.3445 170.554 79.0069 168.803 81.4067C167.282 83.4914 168.94 86.1255 171.154 86.1255C171.572 86.1255 172.013 86.0305 172.455 85.8184C178.794 82.7864 185.234 79.4695 191.72 75.8435C180.107 83.3237 167.815 90.1575 154.929 96.2984ZM189.886 59.8408C190.021 59.3661 190.138 58.8995 190.239 58.445C201.067 52.7666 210.096 49.5952 217.265 47.7388C217.168 48.3044 217.055 48.8639 216.926 49.4195C206.717 50.0376 197.606 54.2736 189.886 59.8408Z" fill="#A92142"/>
<path d="M23.6367 71.2829C21.5361 71.2829 19.5191 71.6643 17.6216 72.4249C12.1864 74.6012 8.23369 79.6749 6.49125 86.7114C4.68082 94.0215 5.46737 102.502 8.70707 110.594C14.8565 125.957 27.0165 133.729 42.0749 131.923C70.3521 128.056 98.9942 120.042 127.169 108.112C127.196 108.099 127.223 108.088 127.252 108.078C155.879 97.2735 182.139 83.3082 205.305 66.576C217.419 57.5166 220.858 43.4975 214.708 28.1353C208.128 11.6912 193.416 2.0556 181.919 6.66095L181.07 4.53444L181.919 6.66095C179.538 7.61227 177.432 9.12527 175.656 11.1564C175.53 11.2994 175.389 11.4259 175.231 11.5357C162.698 20.164 136.751 36.5853 103.79 49.6117C70.9623 62.9199 40.8523 68.9367 25.8279 71.3389C25.6391 71.3679 25.4469 71.3741 25.2583 71.3575C24.7124 71.3078 24.1723 71.2829 23.6367 71.2829ZM37.9471 136.751C22.9948 136.752 10.6904 127.869 4.45614 112.296C0.863891 103.321 0.00811476 93.8433 2.04694 85.6109C4.15313 77.1049 9.07994 70.9119 15.92 68.174C18.8906 66.9843 22.0727 66.5159 25.3802 66.7729C40.3032 64.3728 69.8618 58.4244 102.089 45.3607C134.444 32.5748 159.946 16.483 172.404 7.92316C174.62 5.45261 177.248 3.5997 180.218 2.40794C194.059 -3.13008 211.44 7.64545 218.959 26.4337C225.836 43.6136 221.745 59.9976 208.016 70.2653C184.506 87.2483 157.902 101.399 128.91 112.345C100.379 124.424 71.359 132.54 42.6569 136.465C41.0624 136.656 39.4895 136.751 37.9471 136.751Z" fill="#6D184E"/>
<path d="M187.885 71.1121C188.81 71.5369 189.891 71.4282 190.768 70.9145C194.39 68.7864 205.959 61.754 207.907 57.6065C210.079 52.9808 181.347 68.1086 187.885 71.1121Z" fill="#E5525F"/>
</symbol>
<symbol id = "bottom-salad" viewBox="0 0 244 119">
<path d="M20.0096 79.153C20.0096 79.153 4.4077 76.7529 3.00732 87.3535C1.60737 97.9552 18.8095 93.7549 18.6096 101.956C18.4095 110.157 18.2094 120.959 35.8126 113.558C53.4147 106.157 58.215 96.7777 63.8165 106.269C69.4167 115.758 78.4184 114.158 82.6184 105.157C86.8198 96.1551 95.0767 94.4634 111.252 103.711C119.907 108.658 124.603 101.61 130.478 94.5596C135.582 88.4348 141.575 82.3102 151.83 84.0538C173.882 87.8043 174.833 77.1528 186.633 64.5512C198.436 51.9493 223.239 65.7512 222.439 47.5472C221.64 29.3455 223.539 36.1976 234.49 28.2459C245.443 20.2943 245.292 1.69157 223.839 3.34314C202.386 4.99255 149.029 81.9531 20.0096 79.153Z" fill="#48C75A"/>
<path d="M222.623 32.3186C223.432 28.9563 227.296 26.9097 235.315 20.6704C236.731 19.5665 238.148 17.7361 239.339 15.8971C239.046 19.7149 236.769 23.7636 233.146 26.3949C230.139 28.575 227.915 29.5453 226.125 30.325C224.65 30.9669 223.504 31.5707 222.623 32.3186Z" fill="#B6E9BD"/>
<path d="M166.383 81.647C173.447 77.8174 176.811 69.7119 184.646 60.7454C194.519 49.4447 212.9 56.6671 220.02 50.3507C219.81 51.5988 219.38 52.5709 218.718 53.2909C216.642 55.5531 211.86 55.7571 206.797 55.9711C199.345 56.2871 190.898 56.6471 184.962 62.9855C182.23 65.9037 180.054 68.7323 178.134 71.2274C174.227 76.3033 171.365 80.0255 166.383 81.647Z" fill="#B6E9BD"/>
<path d="M26.1304 113.744C24.8885 113.744 23.8941 113.497 23.1686 113.001C20.6714 111.298 20.7967 106.15 20.8974 102.012C21.0329 96.4794 15.7695 94.8421 11.9274 93.6476C6.84741 92.0679 4.82344 91.0836 5.27658 87.6542C5.51889 85.8202 6.30494 84.4268 7.67977 83.3917C9.49786 82.0245 12.1386 81.4596 14.5435 81.2786C21.3596 91.8656 31.7759 97.7507 43.9471 97.7507C45.4897 97.7507 47.0626 97.6558 48.6571 97.4648C63.7356 95.4025 78.9002 92.1843 94.0366 87.8427C94.6265 88.6473 95.2062 89.4451 95.7779 90.234C97.3138 92.3481 98.8031 94.4003 100.309 96.3178C97.8752 95.6104 95.648 95.259 93.6152 95.259C92.0174 95.259 90.5382 95.476 89.1755 95.91C85.4611 97.0886 82.557 99.8739 80.5446 104.188C78.7963 107.934 76.0684 110.252 73.2481 110.389C73.1678 110.392 73.0888 110.393 73.0085 110.393C70.3677 110.393 67.8151 108.54 65.7878 105.105C64.1165 102.273 62.3458 100.703 60.2158 100.168C59.6768 100.032 59.1378 99.9688 58.5943 99.9688C55.6437 99.9688 52.5465 101.841 48.5021 104.289C45.0071 106.404 40.6578 109.037 34.9241 111.447C31.2956 112.973 28.326 113.744 26.1304 113.744ZM159.969 82.5476C159.465 82.5476 158.944 82.5353 158.405 82.5091C157.353 76.8457 157.534 70.1572 159.197 63.1693C178.875 54.0688 197.235 43.388 214.016 31.2639C222.162 25.1721 226.916 16.9247 227.997 7.63559C228.135 7.60677 228.269 7.58001 228.405 7.55325C229.578 14.5077 228.396 23.5848 219.037 32.1472C200.235 49.3481 179.031 53.9494 169.429 63.7511C163.644 69.6577 163.016 77.2309 163.43 82.3193C162.372 82.4696 161.225 82.5476 159.969 82.5476Z" fill="#539256"/>
<path d="M16.4627 81.2079C13.6614 81.2079 10.0002 81.6464 7.67924 83.3923C6.30448 84.4274 5.51832 85.8207 5.27589 87.6547C4.82296 91.0842 6.84671 92.0684 11.9269 93.648C15.7688 94.8425 21.0323 96.4799 20.8967 102.012C20.7962 106.15 20.6706 111.299 23.168 113.002C25.1782 114.373 29.2429 113.836 34.9233 111.448C40.657 109.038 45.0062 106.405 48.5014 104.289C53.2904 101.391 56.7527 99.298 60.215 100.168C62.3451 100.704 64.1157 102.273 65.787 105.105C67.8752 108.643 70.5216 110.504 73.2472 110.389C76.0677 110.252 78.7956 107.935 80.5437 104.189C82.5562 99.8743 85.4602 97.089 89.1747 95.9103C94.8156 94.116 102.409 96.0201 112.387 101.724C118.4 105.162 121.648 101.703 127.34 94.7668C132.855 88.0422 139.718 79.6723 152.212 81.7967C167.942 84.4748 171.561 79.7685 178.133 71.2279C180.053 68.7329 182.229 65.9044 184.962 62.9867C190.897 56.6476 199.345 56.2882 206.797 55.9718C211.859 55.757 216.641 55.5536 218.716 53.2913C219.796 52.1139 220.267 50.2677 220.15 47.6493C219.587 34.8249 220.256 32.8816 226.125 30.3257C227.913 29.545 230.141 28.5744 233.145 26.3939C238.104 22.792 240.543 16.5393 238.817 11.8483C237.12 7.23051 231.864 5.01762 224.013 5.62584C218.757 6.02917 210.16 12.3983 199.274 20.4626C183.801 31.9261 162.608 47.6277 133.409 60.2747C98.9422 75.2055 60.7653 82.3301 19.9589 81.4419C19.8605 81.4395 19.7622 81.4305 19.6638 81.4171C18.9598 81.3097 17.8107 81.2079 16.4627 81.2079ZM26.1071 118.311C23.9115 118.311 22.0799 117.802 20.5882 116.784C16.0333 113.677 16.1924 107.148 16.3203 101.9C16.3632 100.125 14.9212 99.3739 10.5664 98.0201C6.25272 96.6788 -0.266274 94.6505 0.737294 87.0546C1.14364 83.9777 2.55809 81.5109 4.94051 79.7242C10.2974 75.7072 18.8718 76.6868 20.1961 76.8677C112.79 78.8339 165.216 39.9948 196.55 16.7852C208.92 7.62091 217.092 1.5667 223.661 1.05985C237.765 -0.0207138 241.964 7.13993 243.116 10.2673C245.562 16.919 242.499 25.2594 235.835 30.0971C232.425 32.5731 229.841 33.699 227.953 34.5229C225.775 35.4719 225.363 35.7135 225.044 36.628C224.455 38.3168 224.485 42.02 224.725 47.4487C224.895 51.3444 224.035 54.2677 222.091 56.3864C218.733 60.0476 213.028 60.2896 206.991 60.546C200.094 60.8387 192.961 61.1415 188.305 66.1158C185.721 68.8728 183.709 71.4889 181.761 74.0201C175.129 82.6396 169.89 89.4478 151.442 86.3112C141.571 84.6319 136.136 91.2593 130.877 97.6698C125.671 104.02 119.765 111.216 110.113 105.698C101.433 100.736 94.854 98.9117 90.56 100.273C88.0818 101.06 86.162 102.974 84.6919 106.124C82.2127 111.438 78.017 114.742 73.4676 114.962C68.9681 115.186 64.8378 112.506 61.8432 107.433C60.8489 105.747 59.9506 104.823 59.0974 104.608C57.486 104.205 54.5672 105.97 50.8721 108.207C47.2493 110.399 42.7407 113.128 36.6986 115.668C32.5029 117.432 28.9921 118.311 26.1071 118.311Z" fill="#6D184E"/>
</symbol>
<symbol id = "bottom-burger" viewBox="0 0 219 141">
<path d="M211.042 28.5893C211.042 28.5893 234.9 59.7041 173.454 100.424C112.006 141.142 26.3402 154.615 9.29298 110.766C-7.75421 66.9147 8.16197 79.8985 73.6604 72.3929C139.157 64.8875 182.767 -3.21682 193.305 4.20594C203.838 11.6309 211.042 28.5893 211.042 28.5893Z" fill="#F9A332"/>
<path d="M62.1914 132.205C43.7001 132.205 28.018 127.842 18.0107 118.192C22.4382 116.101 25.9434 113.979 28.8722 112.207C32.2104 110.187 34.9143 108.55 36.5936 108.55C36.7733 108.55 36.9417 108.569 37.0975 108.608C37.9506 108.823 38.849 109.747 39.8435 111.433C42.7215 116.309 46.6505 118.975 50.948 118.975C51.1208 118.975 51.2938 118.97 51.4678 118.962C56.0171 118.742 60.2128 115.438 62.6919 110.125C64.1621 106.974 66.082 105.06 68.56 104.273C69.4787 103.982 70.5037 103.836 71.6302 103.836C75.7671 103.836 81.2926 105.798 88.1132 109.699C88.1404 109.713 88.1634 109.727 88.1885 109.741C91.0247 111.426 94.2059 112.448 97.9645 112.545C98.2719 112.554 98.5752 112.557 98.8743 112.557C109.269 112.557 114.174 107.804 117.138 104.931C117.91 104.183 119.077 103.053 119.47 103.021C119.474 103.021 119.819 103.072 120.601 103.854C117.113 107.941 109.949 115.863 99.004 115.863C94.3084 115.863 88.9164 114.403 82.8215 110.557C80.1437 108.868 77.4023 108.163 74.9253 108.163C67.8504 108.163 62.9293 113.921 67.8188 118.959C69.829 121.03 73.8676 121.75 78.5108 121.75C86.0154 121.75 95.0948 119.869 99.7235 118.771C109.014 116.502 118.485 113.487 127.897 109.807C129.618 110.573 131.379 110.978 133.042 110.978C134.688 110.978 136.238 110.581 137.56 109.746C138.687 109.034 140.486 107.425 140.948 104.255C152.159 99.0991 163.131 93.03 173.453 86.1902C197.431 70.2989 208.418 55.8745 212.902 44.1868C212.925 46.0274 212.785 48.029 212.413 50.1812C211.808 53.6867 210.637 57.2361 208.918 60.8147C202.942 70.8176 192.145 82.3141 173.453 94.7012C138.507 117.859 95.7265 132.205 62.1914 132.205ZM138.993 94.4289C138.884 94.1825 138.769 93.9329 138.65 93.6786C138.263 92.8583 137.911 91.9939 137.597 91.0886C137.652 91.0886 137.702 91.0886 137.756 91.0886C149.706 91.0886 154.253 85.1787 159.762 78.0201C161.709 75.4891 163.721 72.873 166.304 70.1159C170.962 65.1415 178.094 64.8389 184.992 64.5461C189.529 64.3541 193.877 64.1688 197.184 62.5348C189.146 70.516 178.565 62.5279 172.234 72.5522C165.033 83.9539 158.63 91.9554 145.029 93.5554C142.818 93.8154 140.816 94.1034 138.993 94.4289ZM202.72 53.3813C202.754 52.7664 202.754 52.1222 202.725 51.4487C202.484 46.0211 202.455 42.3169 203.045 40.627C203.362 39.713 203.775 39.4724 205.954 38.5229C207.387 37.8975 209.223 37.0964 211.515 35.6658C211.846 36.6718 212.151 37.8096 212.394 39.0729C203.406 41.2314 206.91 43.4255 202.72 53.3813Z" fill="#BF6700"/>
<path d="M191.385 6.34889C190.763 6.34889 189.22 6.70541 185.847 9.07304C181.916 11.8335 176.803 16.3916 170.881 21.6669C149.188 40.9986 116.404 70.214 73.9675 75.0765C58.4502 76.8551 45.7479 77.4866 35.5408 77.9951C19.7841 78.7805 9.3744 79.298 6.63999 83.5175C4.02279 87.5527 6.81506 96.9374 11.8108 109.788C15.916 120.349 24.4476 127.75 37.1679 131.789C70.1039 142.244 126.791 128.107 171.961 98.1735C195.723 82.427 209.711 65.8318 212.414 50.1809C214.531 37.918 209.122 30.5311 208.891 30.2237C208.759 30.0486 208.641 29.848 208.556 29.6473C208.462 29.4252 201.5 13.2874 191.748 6.41507C191.743 6.41293 191.645 6.34889 191.385 6.34889ZM62.2393 140.657C52.3324 140.658 43.3557 139.42 35.534 136.936C21.1784 132.38 11.5033 123.904 6.77663 111.745C0.728832 96.1904 -1.80575 86.617 2.10756 80.5794C6.34602 74.0412 16.6201 73.5295 35.2718 72.6017C45.4022 72.0965 58.0085 71.4695 73.3528 69.7112C114.09 65.0432 146.105 36.5132 167.29 17.6362C181.457 5.0103 189.258 -1.94528 194.858 2.00006C205.257 9.32924 212.362 24.8757 213.404 27.2519C214.6 28.9705 219.993 37.6127 217.77 50.8919C214.852 68.3564 200.441 85.7786 174.946 102.675C152.764 117.375 126.756 128.949 101.714 135.266C87.4781 138.856 74.1833 140.657 62.2393 140.657Z" fill="#6D184E"/>
</symbol>
<symbol id = "bottom-shadow" viewBox="0 0 210 25">
<path d="M105.001 24.6855C47.1151 24.6855 0.189453 19.2061 0.189453 12.4476C0.189453 5.68909 47.1151 0.209612 105.001 0.209612C162.885 0.209612 209.811 5.68909 209.811 12.4476C209.811 19.2061 162.885 24.6855 105.001 24.6855Z" fill="#F2A40C"/>
</symbol>
<symbol id = "logo-footer" viewBox="0 0 304.316 66.5927" xmlns="http://www.w3.org/2000/svg" xmlns:xlink="http://www.w3.org/1999/xlink">
	<defs>
		<clipPath id="clip57_2445">
			<rect id="free-icon-kitchen-utensil-4790616 1" width="66.906471" height="66.592590" transform="translate(237.410156 0.000000)" fill="white" fill-opacity="0"/>
		</clipPath>
	</defs>
	<path id="YourMeal" d="M15.2012 51.4547C13.8926 51.4547 12.8936 51.1022 12.2051 50.397C11.5161 49.6918 11.1719 48.6844 11.1719 47.3748L11.1719 34.9623L0.632812 20.3762Q0.184082 19.7201 0.0537109 19.0057Q0 18.7125 0 18.4094Q0 18.2607 0.0126953 18.1096Q0.0585938 17.5504 0.267578 17.0608Q0.529297 16.4478 1.0459 15.9436Q1.1123 15.879 1.18262 15.819L1.18262 15.819Q2.09766 15.037 3.68066 15.037Q4.6001 15.037 5.37695 15.369L5.37695 15.3691Q5.64844 15.485 5.90234 15.6415Q6.93555 16.2458 7.86523 17.5555L15.3047 28.0275L22.7437 17.5555C23.3984 16.6488 24.0352 16.0109 24.6553 15.6415Q24.7852 15.5614 24.9204 15.4921L24.9209 15.4919Q25.8081 15.037 26.9282 15.037C28.0303 15.037 28.8916 15.3224 29.5112 15.8933C30.1313 16.4305 30.4585 17.119 30.4932 17.9585C30.4946 18.0009 30.4956 18.0433 30.4956 18.0859C30.4956 18.8529 30.2021 19.6499 29.6147 20.4769L19.1792 35.0187L19.1792 47.3748C19.1792 50.0947 17.853 51.4547 15.2012 51.4547ZM116.649 51.4547C115.479 51.4547 114.583 51.1357 113.963 50.4977C113.343 49.8597 113.033 48.9698 113.033 47.8281L113.033 18.6637Q113.033 17.2194 113.731 16.3124Q113.861 16.1439 114.015 15.994C114.703 15.356 115.633 15.037 116.804 15.037C117.837 15.037 118.647 15.2385 119.232 15.6415C119.852 16.0109 120.42 16.6656 120.937 17.6058L131.993 37.2979L143.048 17.6058C143.565 16.6656 144.116 16.0109 144.701 15.6415Q145.631 15.037 147.129 15.037C148.3 15.037 149.196 15.356 149.816 15.994C150.47 16.6321 150.797 17.522 150.797 18.6637L150.797 47.8281C150.797 48.9698 150.487 49.8597 149.867 50.4977C149.248 51.1357 148.352 51.4547 147.181 51.4547C146.01 51.4547 145.097 51.1357 144.443 50.4977C143.823 49.8597 143.513 48.9698 143.513 47.8281L143.513 29.412L135.041 44.2014C134.627 44.8395 134.18 45.3264 133.697 45.6622C133.25 45.9644 132.647 46.1155 131.889 46.1155C131.132 46.1155 130.512 45.9476 130.029 45.6118Q129.306 45.1082 128.738 44.2014L120.266 29.5254L120.266 47.8281C120.266 48.9698 119.956 49.8597 119.335 50.4977C118.75 51.1357 117.854 51.4547 116.649 51.4547ZM223.766 51.5555C220.701 51.5555 218.41 50.7328 216.895 49.0874C215.379 47.4083 214.622 44.9235 214.622 41.6326L214.622 18.9155C214.622 17.6394 214.949 16.6824 215.604 16.0444Q215.666 15.9838 215.731 15.9269Q216.751 15.037 218.548 15.037C219.788 15.037 220.735 15.3728 221.39 16.0444C222.078 16.6824 222.423 17.6394 222.423 18.9155L222.423 41.3303C222.423 42.7072 222.715 43.7313 223.301 44.403C223.921 45.0409 224.73 45.36 225.729 45.36C226.004 45.36 226.263 45.3431 226.504 45.3096C226.745 45.276 227.003 45.2592 227.279 45.2592C227.83 45.192 228.208 45.36 228.416 45.7629Q228.777 46.317 228.777 48.0295C228.777 49.037 228.57 49.8093 228.157 50.3466C227.744 50.8503 227.106 51.1862 226.246 51.354C225.901 51.3876 225.505 51.4211 225.058 51.4547C224.61 51.522 224.179 51.5555 223.766 51.5555ZM94.9976 51.4547C93.689 51.4547 92.6899 51.119 92.0015 50.4474C91.3125 49.7758 90.9683 48.8187 90.9683 47.5763L90.9683 29.6948C90.9683 28.4523 91.2954 27.5121 91.9497 26.874Q92.0864 26.7405 92.2373 26.6245Q93.2227 25.8666 94.791 25.8666C96.0308 25.8666 96.978 26.2024 97.6323 26.874C98.2866 27.5121 98.6138 28.4523 98.6138 29.6948L98.6138 30.5992Q99.1226 29.3669 99.9653 28.4382Q100.363 28.0001 100.835 27.6296C102.248 26.5215 104.073 25.9001 106.312 25.7659C107.172 25.6987 107.827 25.917 108.274 26.4207C108.757 26.8909 109.015 27.6799 109.049 28.7881C109.058 28.9105 109.062 29.03 109.062 29.1465C109.062 30.0197 108.833 30.7229 108.378 31.2562C107.896 31.8607 107.069 32.2301 105.898 32.3644L104.71 32.4651C102.747 32.6331 101.283 33.1871 100.319 34.1273C99.3887 35.0676 98.9238 36.4276 98.9238 38.2074L98.9238 47.5763C98.9238 48.8187 98.5796 49.7758 97.8906 50.4474C97.2363 51.119 96.272 51.4547 94.9976 51.4547ZM42.2666 51.5555C39.5459 51.5555 37.1694 51.035 35.1372 49.994C33.1396 48.953 31.5898 47.4587 30.4878 45.5111C29.3857 43.5634 28.8345 41.2632 28.8345 38.6104Q28.8345 35.6384 29.7646 33.2711C30.3843 31.6927 31.2798 30.3496 32.4507 29.2415C33.6562 28.0997 35.0854 27.2434 36.7388 26.6725C38.3921 26.0681 40.2344 25.7659 42.2666 25.7659Q46.3477 25.7659 49.3442 27.3274C51.376 28.3683 52.9434 29.8458 54.0454 31.7599C55.1816 33.6741 55.75 35.9575 55.75 38.6104Q55.75 41.6326 54.7686 44C54.1484 45.5782 53.2529 46.9382 52.082 48.08C50.9111 49.2217 49.4819 50.0947 47.7944 50.6992C46.1411 51.27 44.2983 51.5555 42.2666 51.5555ZM170.686 51.5555C167.689 51.5555 165.106 51.035 162.937 49.994C160.801 48.9194 159.148 47.4252 157.977 45.5111C156.84 43.5634 156.272 41.2799 156.272 38.6606C156.272 36.1086 156.823 33.8755 157.925 31.9614C159.027 30.0138 160.56 28.5027 162.523 27.4281C164.521 26.3199 166.776 25.7659 169.291 25.7659C171.116 25.7659 172.769 26.0681 174.25 26.6725C175.731 27.2434 177.005 28.0829 178.073 29.191C179.141 30.2656 179.95 31.592 180.501 33.1703C181.052 34.715 181.328 36.4445 181.328 38.3585C181.328 38.9965 181.121 39.4834 180.708 39.8192C180.294 40.1215 179.692 40.2726 178.9 40.2726L163.68 40.2726C163.913 41.8982 164.474 43.1575 165.365 44.0503C166.604 45.2592 168.43 45.8636 170.841 45.8636C171.667 45.8636 172.614 45.7629 173.682 45.5614C174.75 45.36 175.749 45.0409 176.678 44.6044C177.47 44.235 178.176 44.1174 178.796 44.2518C179.417 44.3525 179.898 44.6212 180.243 45.0577C180.587 45.4943 180.777 45.9979 180.811 46.5688C180.824 46.6726 180.83 46.7764 180.83 46.8802C180.83 47.3473 180.703 47.8143 180.45 48.2814C180.14 48.8187 179.623 49.2721 178.9 49.6415C177.729 50.2794 176.403 50.7496 174.922 51.0518C173.476 51.3876 172.063 51.5555 170.686 51.5555ZM194.441 51.5555Q191.651 51.5555 189.43 50.4977C187.949 49.7926 186.795 48.8354 185.968 47.6266C185.142 46.4177 184.729 45.0577 184.729 43.5466C184.729 41.7333 185.211 40.3062 186.175 39.2651C187.14 38.1906 188.707 37.4351 190.876 36.9984C193.046 36.5283 195.922 36.2933 199.503 36.2933L201.363 36.2933L201.363 35.437C201.363 33.9595 201.019 32.9185 200.33 32.314C199.642 31.676 198.47 31.3569 196.817 31.3569C195.887 31.3569 194.872 31.4745 193.77 31.7096C192.702 31.911 191.513 32.2637 190.205 32.7673C189.447 33.1031 188.775 33.1871 188.19 33.0192C187.604 32.8177 187.157 32.4819 186.847 32.0118C186.537 31.5081 186.382 30.9708 186.382 30.3999C186.382 29.7955 186.554 29.2246 186.898 28.6874C187.243 28.1165 187.811 27.6968 188.603 27.4281C190.222 26.79 191.737 26.3535 193.149 26.1184C194.596 25.8834 195.922 25.7659 197.127 25.7659C199.779 25.7659 201.949 26.1521 203.637 26.9244C205.358 27.6632 206.65 28.8217 207.511 30.3999Q208.803 32.717 208.803 36.394L208.803 47.5763C208.803 48.8187 208.493 49.7758 207.873 50.4474C207.253 51.119 206.357 51.4547 205.187 51.4547C204.016 51.4547 203.103 51.119 202.448 50.4474C201.829 49.7758 201.519 48.8187 201.519 47.5763L201.519 47.307C201.278 47.9216 200.951 48.4814 200.537 48.9866C199.882 49.7926 199.039 50.4305 198.005 50.9006C196.972 51.3373 195.784 51.5555 194.441 51.5555ZM69.8467 51.5555C67.7114 51.5555 65.9375 51.1693 64.5254 50.397C63.1133 49.6246 62.063 48.4662 61.374 46.9214Q60.3926 44.5541 60.3926 41.0785L60.3926 29.6948Q60.3926 27.8291 61.3252 26.8727Q61.3496 26.8479 61.374 26.8236C62.063 26.1857 63.0273 25.8666 64.2671 25.8666C65.5073 25.8666 66.4717 26.1857 67.1602 26.8236C67.8491 27.4617 68.1934 28.4187 68.1934 29.6948L68.1934 41.2799C68.1934 42.7574 68.5034 43.8656 69.1235 44.6044C69.7432 45.3096 70.7251 45.6622 72.0684 45.6622C73.5488 45.6622 74.7544 45.1584 75.6846 44.1511C76.6489 43.1101 77.1309 41.7501 77.1309 40.071L77.1309 29.6948Q77.1309 27.8291 78.0635 26.8727L78.0669 26.869Q78.0894 26.8461 78.1123 26.8236C78.8013 26.1857 79.7656 25.8666 81.0054 25.8666C82.2798 25.8666 83.2441 26.1857 83.8984 26.8236Q83.9771 26.8966 84.0498 26.9751L84.0503 26.9756Q84.9316 27.927 84.9316 29.6948L84.9316 47.5763C84.9316 50.162 83.6748 51.4547 81.1606 51.4547C79.9204 51.4547 78.9736 51.119 78.3193 50.4474C77.6709 49.7819 77.3438 48.8361 77.3374 47.61C76.6704 48.6434 75.8442 49.4884 74.8579 50.1451C73.4458 51.0853 71.7754 51.5555 69.8467 51.5555ZM163.666 36.3436L174.851 36.3436C174.791 35.2773 174.591 34.3707 174.25 33.6237C173.837 32.6833 173.234 31.9783 172.442 31.5081C171.685 31.038 170.737 30.8029 169.601 30.8029C168.327 30.8029 167.242 31.0884 166.346 31.6592C165.451 32.2301 164.762 33.0527 164.28 34.1273C163.985 34.7845 163.78 35.5233 163.666 36.3436ZM42.2666 45.8636C43.4028 45.8636 44.3848 45.595 45.2109 45.0577C46.0376 44.5204 46.6919 43.7313 47.1743 42.6903C47.6562 41.6157 47.8975 40.2557 47.8975 38.6104C47.8975 36.1589 47.3809 34.3624 46.3477 33.2207C45.3145 32.0454 43.9541 31.4578 42.2666 31.4578C41.1646 31.4578 40.1826 31.7096 39.3218 32.2133C38.4951 32.717 37.8408 33.5061 37.3589 34.5807C36.9111 35.6217 36.687 36.9648 36.687 38.6104C36.687 41.0616 37.2036 42.8918 38.2368 44.1007Q38.8872 44.8403 39.7012 45.2698Q40.8271 45.8636 42.2666 45.8636ZM201.363 40.2222L199.555 40.2222C197.799 40.2222 196.37 40.3229 195.268 40.5244C194.2 40.6923 193.425 40.9945 192.943 41.431C192.495 41.8676 192.271 42.472 192.271 43.2444C192.271 44.1847 192.598 44.957 193.252 45.5614C193.941 46.1659 194.923 46.4681 196.197 46.4681C197.196 46.4681 198.074 46.2499 198.832 45.8132C199.624 45.3431 200.244 44.7219 200.692 43.9496C201.14 43.1437 201.363 42.2369 201.363 41.2296L201.363 40.2222Z" fill="#FF7020" fill-opacity="1.000000" fill-rule="evenodd"/>
	<rect id="free-icon-kitchen-utensil-4790616 1" width="66.906471" height="66.592590" transform="translate(237.410156 0.000000)" fill="#FFFFFF" fill-opacity="0"/>
	<g clip-path="url(#clip57_2445)">
		<path id="Rectangle 9" d="M290.121 14.6222L295.697 14.446L295.697 34.1771L288.971 34.1771L290.121 14.6222Z" fill="#FFFFFF" fill-opacity="1.000000" fill-rule="nonzero"/>
		<ellipse id="Ellipse 2" cx="272.952148" cy="48.623169" rx="6.637547" ry="8.456202" fill="#FFFFFF" fill-opacity="1.000000"/>
		<path id="Ellipse 3" d="M260.774 21.0524C260.774 25.7227 257.537 24.9282 253.871 24.9282C250.206 24.9282 247.765 23.6949 247.765 22.0214C247.765 17.3511 250.471 16.7362 254.137 16.7362C257.803 16.7362 260.774 16.3822 260.774 21.0524Z" fill="#FFFFFF" fill-opacity="1.000000" fill-rule="nonzero"/>
		<path id="Vector" d="M244.467 5.87891C244.14 6.06091 243.709 6.45117 243.487 6.75024L243.095 7.30957L243.095 14.281L243.095 21.2654L243.435 22.1368C244.663 25.2714 247.303 27.3524 250.478 27.6775L251.327 27.7686L251.393 43.5062L251.458 59.244L251.746 59.7122C251.916 59.9723 252.294 60.3495 252.595 60.5576C253.079 60.8958 253.249 60.9348 254.137 60.9348C255.012 60.9348 255.195 60.8958 255.653 60.5836C255.927 60.3885 256.306 60.0114 256.489 59.7383L256.816 59.257L256.881 43.5193L256.946 27.7686L257.796 27.6775C261.05 27.3524 263.898 25.0243 264.892 21.9158C265.179 21.0183 265.179 20.8752 265.179 14.1639L265.179 7.32263L264.826 6.81531C264.251 6.00891 263.65 5.67078 262.644 5.61877C261.572 5.56677 260.801 5.91785 260.213 6.75024L259.821 7.30957L259.756 10.5742L259.69 13.8518L258.318 13.8518L256.946 13.8518L256.881 10.5872C256.816 7.37463 256.816 7.32263 256.489 6.85437C255.94 6.03491 255.274 5.67078 254.281 5.61877C253.209 5.56677 252.438 5.91785 251.85 6.75024L251.458 7.30957L251.393 10.5742L251.327 13.8518L249.955 13.8518L248.583 13.8518L248.518 10.5872L248.453 7.32263L248.1 6.81531C247.525 6.00891 246.923 5.67078 245.917 5.61877C245.199 5.57971 244.95 5.63171 244.467 5.87891ZM259.625 19.7697C259.625 20.5631 258.985 21.4344 258.057 21.9287C257.639 22.1498 257.273 22.1759 254.137 22.1759C250.844 22.1759 250.648 22.1628 250.151 21.8896C249.263 21.4215 248.648 20.55 248.648 19.7697L248.648 19.3795L254.137 19.3795L259.625 19.3795L259.625 19.7697Z" fill="#FF7020" fill-opacity="1.000000" fill-rule="nonzero"/>
		<path id="Vector" d="M271.556 5.87891C271.229 6.06091 270.798 6.45117 270.576 6.75024L270.184 7.30957L270.119 21.8116L270.054 36.3137L268.956 36.6389C266.211 37.4193 264.16 39.0581 263.01 41.3602C262.004 43.4022 261.834 44.2477 261.834 47.2131C261.834 49.3851 261.873 49.9054 262.108 50.8549C263.389 55.8883 266.225 59.322 270.184 60.6356C270.955 60.8828 271.374 60.9348 272.863 60.9348C274.353 60.9348 274.771 60.8828 275.542 60.6356C279.501 59.322 282.337 55.8883 283.618 50.8549C283.853 49.9054 283.892 49.3851 283.892 47.2131C283.892 45.0281 283.853 44.5338 283.604 43.6364C282.625 40.0336 280.286 37.6404 276.771 36.6389L275.673 36.3137L275.607 21.8247L275.542 7.32263L275.189 6.81531C274.614 6.00891 274.013 5.67078 273.007 5.61877C272.288 5.57971 272.04 5.63171 271.556 5.87891ZM275.438 42.0105C276.901 42.5048 277.855 43.6364 278.221 45.2751C278.469 46.4067 278.325 49.2421 277.959 50.3997C277.28 52.5327 275.986 54.3276 274.588 55.0299C273.712 55.4722 272.027 55.4851 271.164 55.043C269.675 54.2755 268.472 52.6107 267.741 50.3346C267.479 49.4762 267.44 49.099 267.44 47.2131C267.44 45.119 267.453 45.0541 267.819 44.2477C268.472 42.843 269.805 41.9325 271.556 41.6984C271.556 41.6984 274.627 41.7504 275.438 42.0105Z" fill="#FF7020" fill-opacity="1.000000" fill-rule="nonzero"/>
		<path id="Vector" d="M296.751 5.8269C295.079 6.69824 292.491 9.06543 290.897 11.1594C286.925 16.427 284.612 23.8667 284.076 33.1663C283.88 36.5739 283.971 37.0812 284.873 37.9786C285.749 38.85 285.984 38.889 290.949 38.889L295.209 38.889L295.209 48.943L295.209 59.0099L295.51 59.5562C295.667 59.8683 296.059 60.2975 296.373 60.5316C296.882 60.8958 297.013 60.9348 297.94 60.9348C298.829 60.9348 299.012 60.8958 299.47 60.5836C299.744 60.3885 300.123 60.0114 300.306 59.7383L300.633 59.257L300.633 33.2963L300.633 7.32263L300.28 6.81531C299.705 5.99597 299.104 5.67078 298.098 5.61877C297.444 5.59277 297.117 5.63171 296.751 5.8269ZM295.209 24.0618L295.209 33.2963L292.439 33.2963L289.682 33.2963L289.773 31.9567C290.009 28.3799 290.884 24.0618 292.021 20.8752C292.779 18.7682 294.817 14.8273 295.144 14.8273C295.184 14.8273 295.209 18.9763 295.209 24.0618Z" fill="#FF7020" fill-opacity="1.000000" fill-rule="nonzero"/>
	</g>
</symbol>
</svg>



<svg xmlns="http://www.w3.org/2000/svg">

</svg>