<svg width="36.000000" height="36.000000" viewBox="0 0 36 36" fill="none" xmlns="http://www.w3.org/2000/svg" xmlns:xlink="http://www.w3.org/1999/xlink">
	<defs>
		<clipPath id="clip57_2466">
			<rect id="bi:telegram" width="36.000000" height="36.000000" fill="white" fill-opacity="0"/>
		</clipPath>
	</defs>
	<rect id="bi:telegram" width="36.000000" height="36.000000" fill="#FFFFFF" fill-opacity="0"/>
	<g clip-path="url(#clip57_2466)">
		<path id="Vector" d="M36 18C36 22.7739 34.1035 27.3523 30.728 30.7279C27.3521 34.1035 22.7739 36 18 36C13.2261 36 8.64795 34.1035 5.27197 30.7279C1.89648 27.3523 0 22.7739 0 18C0 13.2261 1.89648 8.64771 5.27197 5.27209C8.64795 1.89648 13.2261 0 18 0C22.7739 0 27.3521 1.89648 30.728 5.27209C34.1035 8.64771 36 13.2261 36 18ZM18.6455 13.2885C16.895 14.0175 13.394 15.525 8.14746 17.811C7.29688 18.1486 6.84912 18.4814 6.80859 18.8055C6.74121 19.3523 7.42725 19.5682 8.36084 19.863L8.75488 19.9867C9.67285 20.286 10.9102 20.6348 11.5513 20.6482C12.1367 20.6617 12.7866 20.4232 13.5044 19.9282C18.4072 16.6185 20.9385 14.9468 21.0962 14.9108C21.2085 14.8838 21.3662 14.8523 21.4697 14.9468C21.5752 15.0389 21.564 15.2168 21.5527 15.264C21.4854 15.5542 18.792 18.0563 17.3994 19.3523C16.9648 19.7572 16.6567 20.043 16.5938 20.1083C16.4551 20.25 16.314 20.3895 16.1709 20.5267C15.3159 21.3502 14.6768 21.9668 16.2046 22.9747C16.9404 23.4607 17.5298 23.859 18.1172 24.2595C18.7559 24.696 19.395 25.1302 20.2231 25.6748C20.4321 25.8097 20.6348 25.9561 20.8306 26.0955C21.5752 26.6265 22.248 27.1035 23.0737 27.027C23.5552 26.9821 24.0527 26.532 24.3047 25.182C24.9009 21.9938 26.0732 15.0885 26.3428 12.2423C26.3594 12.0056 26.3496 11.7679 26.314 11.5334C26.2925 11.3444 26.2012 11.17 26.0571 11.0453C25.8525 10.9039 25.6084 10.8307 25.3599 10.8361C24.6846 10.8473 23.6431 11.2095 18.6455 13.2885Z" fill="#FF7020" fill-opacity="1.000000" fill-rule="nonzero"/>
	</g>
</svg>
