<svg width="36.000000" height="36.000000" viewBox="0 0 36 36" fill="none" xmlns="http://www.w3.org/2000/svg" xmlns:xlink="http://www.w3.org/1999/xlink">
	<defs/>
	<path id="Vector" d="M18 0C8.05859 0 0 8.05872 0 18C0 27.9413 8.05859 36 18 36C27.9414 36 36 27.9413 36 18C36 8.05872 27.9414 0 18 0ZM24.9224 20.3081C24.9224 20.3081 26.5142 21.8794 26.9062 22.6088C26.9175 22.6238 26.9233 22.6388 26.9268 22.6462C27.0864 22.9144 27.1235 23.1226 27.0449 23.2781C26.9136 23.5369 26.4639 23.6644 26.3101 23.6757L23.4976 23.6757C23.3027 23.6757 22.8936 23.625 22.3989 23.2837C22.0181 23.0175 21.6431 22.5806 21.2773 22.155C20.7319 21.5212 20.2593 20.9738 19.7832 20.9738C19.7227 20.9736 19.6626 20.9832 19.605 21.0018C19.2451 21.1182 18.7837 21.6318 18.7837 23.0006C18.7837 23.4281 18.4463 23.6737 18.208 23.6737L16.9199 23.6737C16.4814 23.6737 14.1958 23.52 12.1704 21.3844C9.69189 18.7688 7.46045 13.5225 7.44189 13.4738C7.30127 13.1344 7.5918 12.9525 7.90869 12.9525L10.7495 12.9525C11.1279 12.9525 11.252 13.1831 11.3379 13.3875C11.4395 13.6256 11.8105 14.5725 12.4199 15.6375C13.4082 17.3738 14.0137 18.0787 14.4995 18.0787C14.5903 18.0776 14.6797 18.0546 14.7598 18.0112C15.3936 17.6587 15.2754 15.3994 15.2476 14.9307C15.2476 14.8425 15.2456 13.92 14.9214 13.4775C14.689 13.1569 14.293 13.035 14.0532 12.99C14.1504 12.856 14.2783 12.7473 14.4263 12.6731C14.8613 12.4556 15.645 12.4237 16.4233 12.4237L16.8564 12.4237C17.7002 12.4351 17.9175 12.4894 18.2231 12.5663C18.8418 12.7144 18.855 13.1138 18.8008 14.4806C18.7837 14.8688 18.7671 15.3075 18.7671 15.825C18.7671 15.9375 18.7612 16.0575 18.7612 16.1851C18.7427 16.8806 18.7202 17.67 19.2114 17.9944C19.2754 18.0345 19.3496 18.056 19.4248 18.0563C19.5957 18.0563 20.1094 18.0563 21.5005 15.6694C21.9297 14.9011 22.3027 14.1028 22.6162 13.2806C22.6445 13.2319 22.7271 13.0819 22.8242 13.0238C22.8965 12.9871 22.9761 12.9684 23.0566 12.9694L26.3965 12.9694C26.7598 12.9694 27.0093 13.0238 27.0562 13.1644C27.1387 13.3875 27.041 14.0681 25.5171 16.1324L24.8364 17.0306C23.4546 18.8419 23.4546 18.9337 24.9224 20.3081Z" fill="#FF7020" fill-opacity="1.000000" fill-rule="nonzero"/>
</svg>
