<svg width="219" height="141" fill="none" xmlns="http://www.w3.org/2000/svg"><path d="M211.042 28.59s23.858 31.114-37.588 71.834C112.006 141.142 26.34 154.615 9.293 110.766-7.754 66.915 8.162 79.898 73.66 72.393c65.497-7.505 109.107-75.61 119.645-68.187 10.533 7.425 17.737 24.383 17.737 24.383z" fill="#F9A332"/><path d="M62.191 132.205c-18.49 0-34.173-4.363-44.18-14.013 4.427-2.091 7.932-4.213 10.861-5.985 3.338-2.02 6.042-3.657 7.722-3.657.18 0 .348.019.503.058.854.215 1.752 1.139 2.746 2.825 2.878 4.876 6.807 7.542 11.105 7.542.173 0 .346-.005.52-.013 4.55-.22 8.745-3.524 11.224-8.837 1.47-3.151 3.39-5.065 5.868-5.852.919-.291 1.944-.437 3.07-.437 4.137 0 9.663 1.962 16.483 5.863l.076.042c2.836 1.685 6.017 2.707 9.776 2.804.307.009.61.012.91.012 10.394 0 15.299-4.753 18.263-7.626.772-.748 1.939-1.878 2.332-1.91.004 0 .349.051 1.131.833-3.488 4.087-10.652 12.009-21.597 12.009-4.696 0-10.088-1.46-16.183-5.306-2.677-1.689-5.419-2.394-7.896-2.394-7.075 0-11.996 5.758-7.106 10.796 2.01 2.071 6.049 2.791 10.692 2.791 7.504 0 16.584-1.881 21.213-2.979 9.29-2.269 18.761-5.284 28.173-8.964 1.721.766 3.482 1.171 5.145 1.171 1.646 0 3.196-.397 4.518-1.232 1.127-.712 2.926-2.321 3.388-5.491 11.211-5.156 22.183-11.225 32.505-18.065 23.978-15.891 34.965-30.316 39.449-42.003a32.742 32.742 0 01-.489 5.994c-.605 3.506-1.776 7.055-3.495 10.634-5.976 10.003-16.773 21.5-35.465 33.886-34.946 23.158-77.727 37.504-111.262 37.504zm76.802-37.776a39.043 39.043 0 00-.343-.75 26.165 26.165 0 01-1.053-2.59h.159c11.95 0 16.497-5.91 22.006-13.069 1.947-2.53 3.959-5.147 6.542-7.904 4.658-4.975 11.79-5.277 18.688-5.57 4.537-.192 8.885-.377 12.192-2.011-8.038 7.981-18.619-.007-24.95 10.017-7.201 11.402-13.604 19.403-27.205 21.003-2.211.26-4.213.548-6.036.874zM202.72 53.38c.034-.615.034-1.259.005-1.932-.241-5.428-.27-9.132.32-10.822.317-.914.73-1.155 2.909-2.104 1.433-.626 3.269-1.427 5.561-2.857.331 1.006.636 2.144.879 3.407-8.988 2.158-5.484 4.352-9.674 14.308z" fill="#BF6700"/><path d="M191.385 6.349c-.622 0-2.165.356-5.538 2.724-3.931 2.76-9.044 7.319-14.966 12.594-21.693 19.332-54.477 48.547-96.913 53.41-15.518 1.778-28.22 2.41-38.427 2.918-15.757.785-26.167 1.303-28.901 5.522-2.617 4.036.175 13.42 5.17 26.271 4.106 10.561 12.638 17.962 25.358 22.001 32.936 10.455 89.623-3.682 134.793-33.615 23.762-15.747 37.75-32.342 40.453-47.993 2.117-12.263-3.292-19.65-3.523-19.957a2.78 2.78 0 01-.335-.577c-.094-.222-7.056-16.36-16.808-23.232-.005-.002-.103-.066-.363-.066zM62.239 140.657c-9.907.001-18.883-1.237-26.705-3.721-14.356-4.556-24.03-13.032-28.757-25.191C.729 96.19-1.806 86.617 2.107 80.579c4.239-6.538 14.513-7.05 33.165-7.977 10.13-.505 22.736-1.133 38.08-2.89 40.738-4.669 72.753-33.199 93.938-52.076C181.457 5.01 189.258-1.945 194.858 2c10.399 7.33 17.504 22.876 18.546 25.252 1.196 1.719 6.589 10.36 4.366 23.64-2.918 17.464-17.329 34.887-42.824 51.783-22.182 14.7-48.19 26.274-73.232 32.591-14.236 3.59-27.53 5.391-39.475 5.391z" fill="#6D184E"/></svg>