<svg width="244" height="119" fill="none" xmlns="http://www.w3.org/2000/svg"><path d="M20.01 79.153s-15.602-2.4-17.003 8.2c-1.4 10.602 15.803 6.402 15.603 14.603-.2 8.201-.4 19.003 17.203 11.602 17.602-7.401 22.402-16.78 28.003-7.289 5.6 9.489 14.602 7.889 18.802-1.112 4.202-9.002 12.459-10.694 28.634-1.446 8.655 4.947 13.351-2.101 19.226-9.151 5.104-6.125 11.097-12.25 21.352-10.506 22.052 3.75 23.003-6.901 34.803-19.503 11.803-12.602 36.606 1.2 35.806-17.004-.799-18.201 1.1-11.35 12.051-19.301 10.953-7.952 10.802-26.554-10.651-24.903-21.453 1.65-74.81 78.61-203.83 75.81z" fill="#48C75A"/><path d="M222.623 32.319c.809-3.363 4.673-5.41 12.692-11.649 1.416-1.104 2.833-2.934 4.024-4.773-.293 3.818-2.57 7.867-6.193 10.498-3.007 2.18-5.231 3.15-7.021 3.93-1.475.642-2.621 1.246-3.502 1.994zm-56.24 49.328c7.064-3.83 10.428-11.935 18.263-20.902 9.873-11.3 28.254-4.078 35.374-10.394-.21 1.248-.64 2.22-1.302 2.94-2.076 2.262-6.858 2.466-11.921 2.68-7.452.316-15.899.676-21.835 7.015-2.732 2.918-4.908 5.746-6.828 8.241-3.907 5.076-6.769 8.798-11.751 10.42z" fill="#B6E9BD"/><path d="M26.13 113.744c-1.241 0-2.236-.247-2.961-.743-2.498-1.703-2.372-6.851-2.272-10.989.136-5.533-5.127-7.17-8.97-8.364-5.08-1.58-7.104-2.564-6.65-5.994.242-1.834 1.028-3.227 2.403-4.262 1.818-1.367 4.459-1.932 6.864-2.113C21.36 91.866 31.776 97.75 43.947 97.75c1.543 0 3.116-.095 4.71-.286 15.079-2.063 30.243-5.28 45.38-9.622.59.804 1.17 1.602 1.74 2.391 1.537 2.114 3.026 4.166 4.532 6.084-2.434-.708-4.661-1.059-6.694-1.059-1.598 0-3.077.217-4.44.651-3.714 1.179-6.618 3.964-8.63 8.278-1.749 3.746-4.477 6.064-7.297 6.201-.08.003-.16.004-.24.004-2.64 0-5.193-1.853-7.22-5.288-1.671-2.832-3.442-4.402-5.572-4.937a6.59 6.59 0 00-1.622-.2c-2.95 0-6.047 1.873-10.092 4.321-3.495 2.115-7.844 4.748-13.578 7.158-3.628 1.526-6.598 2.297-8.794 2.297zm133.84-31.196c-.504 0-1.025-.013-1.564-.039-1.052-5.663-.871-12.352.792-19.34 19.678-9.1 38.038-19.781 54.819-31.905 8.146-6.092 12.9-14.34 13.981-23.628.138-.03.272-.056.408-.083 1.173 6.955-.009 16.032-9.368 24.594-18.802 17.201-40.006 21.802-49.608 31.604-5.785 5.907-6.413 13.48-5.999 18.568-1.058.15-2.205.229-3.461.229z" fill="#539256"/><path d="M16.463 81.208c-2.802 0-6.463.438-8.784 2.184-1.375 1.035-2.16 2.429-2.403 4.263-.453 3.43 1.57 4.413 6.65 5.993 3.843 1.195 9.106 2.832 8.97 8.364-.1 4.138-.225 9.287 2.272 10.99 2.01 1.371 6.075.834 11.755-1.554 5.734-2.41 10.083-5.043 13.578-7.159 4.79-2.898 8.252-4.991 11.714-4.121 2.13.536 3.9 2.105 5.572 4.937 2.088 3.538 4.735 5.399 7.46 5.284 2.82-.137 5.549-2.454 7.297-6.2 2.012-4.315 4.916-7.1 8.63-8.279 5.642-1.794 13.235.11 23.213 5.814 6.013 3.438 9.261-.021 14.953-6.957 5.515-6.725 12.378-15.095 24.872-12.97 15.73 2.678 19.349-2.028 25.921-10.57 1.92-2.494 4.096-5.323 6.829-8.24 5.935-6.34 14.383-6.699 21.835-7.015 5.062-.215 9.844-.418 11.919-2.68 1.08-1.178 1.551-3.024 1.434-5.643-.563-12.824.106-14.767 5.975-17.323 1.788-.781 4.016-1.752 7.02-3.932 4.959-3.602 7.398-9.855 5.672-14.546-1.697-4.617-6.953-6.83-14.804-6.222-5.256.403-13.853 6.772-24.739 14.837-15.473 11.463-36.666 27.165-65.865 39.812-34.467 14.93-72.644 22.055-113.45 21.167a2.669 2.669 0 01-.295-.025c-.704-.107-1.853-.21-3.201-.21zm9.644 37.103c-2.195 0-4.027-.509-5.519-1.527-4.555-3.107-4.396-9.636-4.268-14.884.043-1.775-1.399-2.526-5.754-3.88C6.253 96.68-.266 94.65.737 87.055c.407-3.077 1.821-5.544 4.204-7.33 5.356-4.018 13.93-3.038 15.255-2.857 92.594 1.966 145.02-36.873 176.354-60.083 12.37-9.164 20.542-15.218 27.111-15.725 14.104-1.08 18.303 6.08 19.455 9.207 2.446 6.652-.617 14.992-7.281 19.83-3.41 2.476-5.994 3.602-7.882 4.426-2.178.949-2.59 1.19-2.909 2.105-.589 1.689-.559 5.392-.319 10.82.17 3.896-.69 6.82-2.634 8.938-3.358 3.662-9.063 3.904-15.1 4.16-6.897.293-14.03.596-18.686 5.57-2.584 2.757-4.596 5.373-6.544 7.904-6.632 8.62-11.871 15.428-30.319 12.291-9.871-1.68-15.306 4.948-20.565 11.359-5.206 6.35-11.112 13.546-20.764 8.028-8.68-4.962-15.259-6.786-19.553-5.425-2.478.787-4.398 2.701-5.868 5.851-2.48 5.314-6.675 8.618-11.224 8.838-4.5.224-8.63-2.456-11.625-7.529-.994-1.686-1.892-2.61-2.746-2.825-1.611-.403-4.53 1.362-8.225 3.599-3.623 2.192-8.131 4.921-14.173 7.461-4.196 1.764-7.707 2.643-10.592 2.643z" fill="#6D184E"/></svg>