<svg width="253" height="154" fill="none" xmlns="http://www.w3.org/2000/svg"><path d="M22.809 68.55S7.407 74.75 3.606 85.351c-2.258 6.297 4.237 2.784 14.117-.73 6.753-2.4 15.086-4.802 23.288-4.07 7.488.666 10.36-1.579 12.445-3.824 3.539-3.813 4.81-7.627 22.56 2.822 28.205 16.603 30.805 44.207 50.007 44.706 7.691.202 12.108-2.278 15.106-4.756 4.484-3.71 5.781-7.42 10.097-2.143 7.202 8.8 20.853 7.2 13.352-8.702-7.501-15.903-2.75-50.908 31.256-70.31 34.003-19.403 52.206-15.203 53.807-18.002 1.601-2.801-6.002-17.204-30.205-17.603-24.203-.4-85.011 61.41-196.627 65.81z" fill="#FCAF15"/><path d="M126.834 121.978c-.247 0-.496-.003-.751-.01-8.841-.231-13.773-7.022-20.6-16.424-2.768-3.813-5.83-8.03-9.548-12.255 4.792-1.794 9.02-5.028 12.148-9.407 2.959-4.142 5.521-5.725 8.687-5.725 3.069 0 6.703 1.489 11.81 3.582 3.228 1.32 6.885 2.818 11.143 4.191 2.773.892 5.494 1.332 8.092 1.332 4.62 0 8.853-1.39 12.3-4.094-.469.88-.886 1.768-1.256 2.655-4.143 2.218-8.216 3.043-12.133 3.043-5.646 0-10.965-1.713-15.687-3.427-4.723-1.714-8.849-3.427-12.113-3.427-1.817 0-3.367.53-4.603 1.89-4.413 4.843-8.766 9.68-11.426 11.172 7.9 10.754 12.725 19.798 23.605 20.081.266.006.526.011.784.011 7.343 0 11.507-2.764 14.314-5.526 2.805-2.763 4.254-5.525 6.166-5.525.96 0 2.037.696 3.461 2.436 2.568 3.139 5.955 4.951 8.912 5.264 1.31 3.927 1.089 6.729-.042 8.503-2.234-.334-4.96-1.798-7.098-4.411-1.26-1.541-2.998-3.327-5.266-3.457a5.642 5.642 0 00-.261-.008c-2.209 0-3.819 1.553-5.518 3.2-2.778 2.693-6.557 6.336-15.12 6.336zM5.655 86.434c.031-.095.066-.199.106-.311 1.386-3.866 4.589-7.136 7.908-9.658 2.081-.043 4.237-.207 6.372-.369 1.32-.1 2.568-.195 3.792-.261.12-.007.23-.01.327-.01.314 0 .512.03.626.058.111.783-.509 2.809-1.02 4.395-4.193 1.167-8.069 2.627-11.407 3.885-2.342.882-5.131 1.933-6.704 2.27z" fill="#D18126"/><path d="M41.29 80.571c12.257.987 11.892-5.97 16.495-7.495-8.714-1.954-6.39 6.495-16.495 7.495zM3.376 88.258c1.946 3.007 16.75-6.901 32.41-7.778-12.811-.778-25.78 5.777-32.41 7.778z" fill="#F8CE36"/><path d="M161.041 111.866c-.295 0-.598-.017-.904-.049a28.628 28.628 0 00-1.285-3.163c-2.621-5.558-3.568-14.241.007-22.83.308-.166.618-.34.927-.52-1.271 9.047-.363 17.785 2.722 24.328.302.639.57 1.261.801 1.862a6.682 6.682 0 01-2.268.372z" fill="#FED78A"/><path d="M161.051 120.391c-.305 0-.625-.024-.955-.073 1.129-1.773 1.352-4.576.04-8.501.306.032.608.05.904.05.811 0 1.578-.123 2.269-.374 1.604 4.141 1.559 7.275-.193 8.383-.547.343-1.255.515-2.065.515zm-2.194-34.568c.369-.886.787-1.773 1.255-2.654a.092.092 0 01.015-.012 61.968 61.968 0 00-.342 2.147c-.308.18-.619.355-.928.519z" fill="#E8C093"/><path d="M167.996 62.087a34.238 34.238 0 00-1.382-6.62c-1.022-3.283-.429-4.02-.402-4.05.267-.308.978-.424 1.92-.424 1.799 0 4.437.424 6.412.741l.868.14a66.993 66.993 0 00-7.416 10.213z" fill="#D18126"/><path d="M59.647 70.51c3.562 0 8.774 1.913 17.53 7.068 13.97 8.224 21.92 19.17 28.306 27.967 6.826 9.401 11.758 16.193 20.599 16.424 9.097.219 13.014-3.556 15.871-6.327 1.765-1.71 3.436-3.321 5.781-3.192 2.266.131 4.005 1.917 5.265 3.457 3.293 4.024 7.975 5.321 10.117 3.969 2.006-1.27 1.775-5.194-.609-10.244-4.358-9.242-4.371-22.868-.032-35.56 3.745-10.954 12.377-26.392 32.223-37.717 24.492-13.972 41.084-15.925 49.057-16.862 1.379-.163 2.903-.342 3.741-.533-.171-.782-.775-2.347-2.505-4.352-2.409-2.792-9.727-9.317-25.594-9.58-7.363-.142-19.006 6.331-35.134 15.264C150.107 39.2 98.529 67.757 23.318 70.82c-2.224.97-14.45 6.639-17.557 15.304-.04.111-.075.215-.106.31 1.572-.338 4.362-1.388 6.704-2.27 7.667-2.89 18.171-6.84 28.855-5.894 7.256.65 9.205-1.553 11.267-3.882 1.977-2.232 3.863-3.879 7.166-3.879zm67.228 56.047c-.299 0-.604-.003-.912-.012-11.1-.289-17.164-8.64-24.185-18.311-6.457-8.892-13.775-18.97-26.923-26.71-7.151-4.21-12.017-6.319-14.874-6.445-1.846-.07-2.542.616-4.072 2.344-2.338 2.641-5.543 6.255-15.1 5.408-9.647-.862-19.582 2.883-26.837 5.616-6.392 2.408-9.914 3.736-12.06 1.623-1.796-1.767-.791-4.57-.46-5.491 4.1-11.437 19.835-17.884 20.501-18.153.245-.097.503-.154.765-.164 74.35-2.932 125.488-31.242 159.326-49.978C198.796 7.012 210.9.316 219.473.452c17.17.284 27.356 7.53 31.162 14.217.909 1.6 2.25 4.611.994 6.809-1.041 1.82-3.146 2.067-7.339 2.561-7.675.903-23.641 2.782-47.321 16.295-31.5 17.971-37.921 51.227-30.32 67.344 5.044 10.696.92 14.8-1.089 16.068-4.458 2.817-11.533.647-16.105-4.941-1.39-1.697-1.979-1.783-1.985-1.784-.392.032-1.559 1.162-2.33 1.91-2.966 2.872-7.869 7.626-18.265 7.626z" fill="#6D184E"/><path d="M143.802 98.079s-6.981 12.982-17.3 11.4c-7.829-1.201 5.253.327 8.651-9.15 3.924-10.953 10.669-5.251 8.649-2.25z" fill="#F8CE36"/><path d="M182.849 140.342c-1.318 7.114-8.156 11.811-15.27 10.492-7.113-1.32-11.812-8.157-10.49-15.271.774-4.18 2.449-3.231 5.183-2.282 1.918.667 4.355 1.333 7.367.226 8.6-3.158 14.529-.279 13.21 6.835z" fill="#FCAF15"/><path d="M167.555 150.829h-.001.001zm8.764-9.046a13.26 13.26 0 00.73-2.517c.609-3.283-.341-5.651-2.371-6.953.449-.043.882-.063 1.302-.063 4.92 0 7.798 2.891 6.882 8.013.293-1.636.186-3.038-.238-4.2-1.491 2.291-3.73 4.4-6.305 5.72zm6.534-1.467l.002-.009-.002.009zm.006-.025z" fill="#FED78A"/><path d="M167.578 150.834a.143.143 0 00-.022-.004l.022.004zm14.434-7.72c.373-.872.656-1.8.837-2.772l.005-.026-.005.026c-.181.972-.464 1.9-.837 2.772z" fill="#D18126"/><path d="M157.09 135.563c0-.004 0-.009.002-.014-.002.005-.002.01-.002.014z" fill="#6D184E"/><path d="M167.555 150.83c-7.101-1.33-11.786-8.16-10.467-15.267l.001-.012c.405-2.163 1.05-2.944 1.961-3.065 1.317 4.638 4.915 9.602 9.977 10.541a9.887 9.887 0 001.808.165c1.897 0 3.766-.53 5.484-1.409-1.916 4.755-6.473 7.953-11.577 8.173.885.386 1.822.687 2.813.874zm15.299-10.523zm.009-.042v-.002.002z" fill="#D18126"/><path d="M169.983 151.056a13.236 13.236 0 01-2.427-.226h-.001a13.208 13.208 0 01-2.813-.874c5.106-.22 9.66-3.418 11.578-8.173 2.575-1.32 4.814-3.429 6.304-5.72.424 1.162.532 2.564.24 4.2v.002c-.003.009-.003.017-.005.026l-.004.016-.001.009-.006.026a13.075 13.075 0 01-.835 2.772 13.12 13.12 0 01-11.946 7.942h-.084z" fill="#D29D78"/><path d="M159.642 134.811c-.083.217-.195.582-.304 1.171a10.75 10.75 0 001.718 8.094 10.75 10.75 0 006.94 4.507c2.84.526 5.713-.083 8.094-1.72a10.738 10.738 0 004.508-6.938c.258-1.392.294-3.279-.994-4.367-1.666-1.406-5.181-1.367-9.177.099-4.102 1.508-7.354.345-9.507-.425-.407-.145-.924-.331-1.278-.421zm10.359 18.536c-.943 0-1.893-.087-2.842-.263a15.288 15.288 0 01-9.876-6.416 15.285 15.285 0 01-2.447-11.521c.293-1.576.84-3.505 2.497-4.458 1.716-.989 3.529-.339 5.13.233 1.888.674 3.841 1.372 6.387.438 5.703-2.095 10.698-1.84 13.706.699 2.318 1.956 3.221 5.047 2.542 8.701a15.281 15.281 0 01-6.415 9.878 15.28 15.28 0 01-8.682 2.709z" fill="#6D184E"/></svg>