<svg width="223" height="137" fill="none" xmlns="http://www.w3.org/2000/svg"><path d="M181.069 4.534c-2.782 1.113-5.173 2.869-7.136 5.117-11.946 8.224-37.969 24.784-70.986 37.833-32.897 13.334-63.16 19.304-77.48 21.594-2.973-.27-5.914.109-8.696 1.222C4.08 75.38-.481 93.802 6.58 111.445c7.063 17.644 21.091 24.512 35.766 22.751 32.656-4.465 61.843-13.868 85.714-23.977 24.253-9.154 51.868-22.488 78.583-41.788 11.839-8.851 17.253-23.5 10.191-41.147-7.063-17.643-23.076-27.827-35.766-22.75z" fill="#DB2839"/><path d="M37.855 132.182c-13.1 0-23.584-7.687-29.149-21.587a46.742 46.742 0 01-1.145-3.193c.872-.302 1.767-.601 2.679-.89-.647 2.952-.756 5.986.892 8.492 1.641 2.494 4.606 3.91 9.064 4.33.653.061 1.29.09 1.913.09 9.254 0 15.209-6.486 19.632-11.303 2.708-2.95 5.267-5.736 7.365-5.736h.046c1.226.024 2.678 1.016 4.317 2.947 5.806 6.849 13.4 10.573 21.495 10.572a25.649 25.649 0 004-.308c2.243 2.423 4.259 4.887 6.135 7.323-14.364 4.04-28.742 7.051-43.025 9.005a35.42 35.42 0 01-4.22.258zm10.52-24.141c-.356 0-.67.189-.962.612-1.156 1.675-3.625 4.018-6.224 6.267-1.71 1.48-1.2 4.221.905 5.048 3.764 1.48 7.777 2.194 11.894 2.194 1.458 0 2.93-.089 4.409-.267l.135-.019c2.857-.392 3.526-4.217.987-5.582-6.472-3.479-9.346-8.253-11.144-8.253zm106.554-11.743c2.747-7.77 7.351-15.655 14.145-22.695 1.044.087 2.104.14 3.169.14.927 0 1.856-.04 2.775-.134a115.965 115.965 0 00-6.215 7.798c-1.521 2.084.137 4.719 2.351 4.719a3 3 0 001.301-.308 341.139 341.139 0 0019.265-9.974c-11.613 7.48-23.905 14.314-36.791 20.454zm34.957-36.457c.135-.475.252-.941.353-1.396 10.828-5.678 19.857-8.85 27.026-10.706-.097.565-.21 1.125-.339 1.68-10.209.619-19.32 4.855-27.04 10.422z" fill="#A92142"/><path d="M23.637 71.283c-2.1 0-4.118.381-6.015 1.142-5.436 2.176-9.388 7.25-11.13 14.286-1.811 7.31-1.025 15.791 2.215 23.883 6.15 15.363 18.31 23.135 33.368 21.329 28.277-3.867 56.92-11.881 85.094-23.811a.76.76 0 01.083-.034c28.627-10.805 54.887-24.77 78.053-41.502 12.114-9.06 15.553-23.078 9.403-38.44-6.58-16.445-21.292-26.08-32.789-21.475l-.849-2.127.849 2.127c-2.381.951-4.487 2.464-6.263 4.495-.126.143-.267.27-.425.38-12.533 8.628-38.48 25.05-71.441 38.076C70.962 62.92 40.852 68.937 25.828 71.339a2.384 2.384 0 01-.57.019 17.871 17.871 0 00-1.621-.075zm14.31 65.468c-14.952.001-27.257-8.882-33.49-24.455-3.593-8.975-4.449-18.453-2.41-26.685 2.106-8.506 7.033-14.7 13.873-17.437 2.97-1.19 6.153-1.658 9.46-1.401 14.923-2.4 44.482-8.349 76.709-21.412 32.355-12.786 57.857-28.878 70.315-37.438 2.216-2.47 4.844-4.323 7.814-5.515 13.841-5.538 31.222 5.237 38.741 24.026 6.877 17.18 2.786 33.564-10.943 43.831-23.51 16.983-50.114 31.134-79.106 42.08-28.531 12.079-57.551 20.195-86.253 24.12a39.614 39.614 0 01-4.71.286z" fill="#6D184E"/><path d="M187.885 71.112c.925.425 2.006.316 2.883-.197 3.622-2.129 15.191-9.161 17.139-13.309 2.172-4.625-26.56 10.503-20.022 13.506z" fill="#E5525F"/></svg>