<svg width="304.316" height="66.593" fill="none" xmlns="http://www.w3.org/2000/svg"><defs><clipPath id="a"><path transform="translate(237.41)" fill="#fff" fill-opacity="0" d="M0 0h66.906v66.593H0z"/></clipPath></defs><path d="M15.201 51.455c-1.308 0-2.307-.353-2.996-1.058-.689-.705-1.033-1.713-1.033-3.022V34.962L.632 20.376q-.448-.656-.578-1.37Q0 18.712 0 18.409q0-.148.013-.3.046-.559.255-1.048.261-.613.778-1.117.066-.065.137-.125.915-.782 2.498-.782.92 0 1.696.332.271.116.525.273 1.034.604 1.963 1.913l7.44 10.473 7.439-10.473c.654-.906 1.291-1.544 1.911-1.913q.13-.08.265-.15.888-.455 2.008-.455c1.102 0 1.964.285 2.583.856.62.537.948 1.226.982 2.066.002.042.003.084.003.127 0 .767-.294 1.564-.881 2.39L19.179 35.02v12.356c0 2.72-1.326 4.08-3.978 4.08zm101.448 0c-1.17 0-2.066-.32-2.686-.957-.62-.638-.93-1.528-.93-2.67V18.664q0-1.445.698-2.352.13-.168.284-.318c.688-.638 1.618-.957 2.789-.957 1.033 0 1.843.201 2.428.604.62.37 1.188 1.025 1.705 1.965l11.056 19.692 11.055-19.692c.517-.94 1.068-1.595 1.653-1.965q.93-.604 2.428-.604c1.171 0 2.067.319 2.687.957.654.638.981 1.528.981 2.67v29.164c0 1.142-.31 2.032-.93 2.67-.619.638-1.515.957-2.686.957s-2.084-.32-2.738-.957c-.62-.638-.93-1.528-.93-2.67V29.412l-8.472 14.79c-.414.638-.861 1.124-1.344 1.46-.447.302-1.05.453-1.808.453-.757 0-1.377-.167-1.86-.503q-.723-.504-1.291-1.41l-8.472-14.677v18.303c0 1.142-.31 2.032-.931 2.67-.585.638-1.481.957-2.686.957zm107.117.1c-3.065 0-5.356-.822-6.871-2.468-1.516-1.679-2.273-4.164-2.273-7.454V18.915c0-1.276.327-2.233.982-2.87q.062-.061.127-.118 1.02-.89 2.817-.89c1.24 0 2.187.336 2.842 1.007.688.638 1.033 1.595 1.033 2.872V41.33c0 1.377.292 2.401.878 3.073.62.638 1.429.957 2.428.957.275 0 .534-.017.775-.05.241-.034.499-.05.775-.05.551-.068.929.1 1.137.503q.361.554.361 2.267c0 1.007-.207 1.78-.62 2.317-.413.503-1.051.84-1.911 1.007a49.4 49.4 0 01-1.188.1 8.617 8.617 0 01-1.292.102zm-128.768-.1c-1.309 0-2.308-.336-2.997-1.008-.689-.671-1.033-1.628-1.033-2.87V29.694c0-1.243.327-2.183.982-2.821q.136-.133.287-.25.986-.757 2.554-.757c1.24 0 2.187.335 2.841 1.007.655.638.982 1.578.982 2.82v.905q.509-1.232 1.351-2.16.398-.439.87-.81c1.413-1.108 3.238-1.729 5.477-1.863.86-.067 1.515.151 1.962.655.483.47.741 1.259.775 2.367.009.122.013.242.013.358 0 .874-.229 1.577-.684 2.11-.482.605-1.309.974-2.48 1.108l-1.188.101c-1.963.168-3.427.722-4.391 1.662-.93.94-1.395 2.3-1.395 4.08v9.37c0 1.242-.344 2.199-1.033 2.87-.655.672-1.619 1.008-2.893 1.008zm-52.731.1c-2.721 0-5.098-.52-7.13-1.561-1.997-1.041-3.547-2.535-4.65-4.483-1.101-1.948-1.652-4.248-1.652-6.9q0-2.973.93-5.34c.62-1.578 1.515-2.921 2.686-4.03 1.205-1.141 2.634-1.998 4.288-2.569 1.653-.604 3.495-.906 5.528-.906q4.08 0 7.077 1.561c2.032 1.041 3.6 2.519 4.701 4.433 1.137 1.914 1.705 4.198 1.705 6.85q0 3.023-.981 5.39a11.495 11.495 0 01-2.687 4.08c-1.17 1.142-2.6 2.015-4.288 2.62-1.653.57-3.496.855-5.527.855zm128.419 0c-2.997 0-5.58-.52-7.749-1.561-2.136-1.075-3.789-2.569-4.96-4.483-1.137-1.948-1.705-4.231-1.705-6.85 0-2.552.551-4.785 1.653-6.7a11.564 11.564 0 014.598-4.533c1.998-1.108 4.253-1.662 6.768-1.662 1.825 0 3.478.302 4.959.907 1.481.57 2.755 1.41 3.823 2.518 1.068 1.075 1.877 2.401 2.428 3.98.551 1.544.827 3.273.827 5.188 0 .637-.207 1.124-.62 1.46-.414.302-1.016.454-1.808.454h-15.22c.233 1.625.794 2.884 1.685 3.777 1.239 1.21 3.065 1.814 5.476 1.814.826 0 1.773-.101 2.841-.303a12.432 12.432 0 002.996-.957c.792-.369 1.498-.487 2.118-.352.621.1 1.102.37 1.447.806.344.436.534.94.568 1.51.013.105.019.208.019.312 0 .467-.127.934-.38 1.401-.31.538-.827.991-1.55 1.36-1.171.638-2.497 1.109-3.978 1.41a18.7 18.7 0 01-4.236.505zm23.755 0q-2.79 0-5.011-1.057c-1.481-.705-2.635-1.663-3.462-2.871-.826-1.21-1.239-2.57-1.239-4.08 0-1.814.482-3.24 1.446-4.282.965-1.074 2.532-1.83 4.701-2.267 2.17-.47 5.046-.705 8.627-.705h1.86v-.856c0-1.477-.344-2.518-1.033-3.123-.688-.638-1.86-.957-3.513-.957-.93 0-1.945.117-3.047.353-1.068.201-2.257.554-3.565 1.057-.758.336-1.43.42-2.015.252-.586-.201-1.033-.537-1.343-1.007a3.023 3.023 0 01-.465-1.612c0-.604.172-1.175.516-1.713.345-.57.913-.99 1.705-1.259 1.619-.638 3.134-1.075 4.546-1.31 1.447-.235 2.773-.352 3.978-.352 2.652 0 4.822.386 6.51 1.158 1.721.74 3.013 1.898 3.874 3.476q1.292 2.317 1.292 5.994v11.182c0 1.243-.31 2.2-.93 2.871-.62.672-1.516 1.008-2.686 1.008-1.171 0-2.084-.336-2.739-1.008-.619-.671-.929-1.628-.929-2.87v-.27a6.207 6.207 0 01-.982 1.68c-.655.806-1.498 1.444-2.532 1.914-1.033.436-2.221.654-3.564.654zm-124.594 0c-2.136 0-3.91-.386-5.322-1.158-1.412-.772-2.462-1.93-3.151-3.476q-.981-2.367-.981-5.843V29.695q0-1.866.932-2.822l.049-.05c.689-.637 1.653-.956 2.893-.956 1.24 0 2.205.319 2.893.957.69.638 1.033 1.595 1.033 2.87V41.28c0 1.477.31 2.586.93 3.324.62.706 1.602 1.058 2.945 1.058 1.48 0 2.686-.504 3.617-1.51.964-1.042 1.446-2.402 1.446-4.081V29.695q0-1.866.933-2.822l.003-.004.045-.045c.69-.638 1.654-.957 2.893-.957 1.275 0 2.24.319 2.893.957q.08.073.152.151.882.952.882 2.72v17.881c0 2.586-1.257 3.879-3.771 3.879-1.24 0-2.187-.336-2.842-1.008-.648-.665-.975-1.61-.982-2.837a8.617 8.617 0 01-2.48 2.535c-1.411.94-3.082 1.41-5.01 1.41zm93.819-15.211h11.185c-.06-1.067-.26-1.973-.601-2.72-.413-.94-1.016-1.646-1.808-2.116-.757-.47-1.705-.705-2.841-.705-1.274 0-2.359.285-3.255.856-.895.571-1.584 1.394-2.066 2.468a8.119 8.119 0 00-.614 2.217zm-121.4 9.52c1.137 0 2.119-.269 2.945-.806.827-.538 1.48-1.327 1.963-2.368.482-1.074.724-2.434.724-4.08 0-2.451-.517-4.248-1.55-5.39-1.033-1.175-2.394-1.762-4.081-1.762-1.102 0-2.084.252-2.945.755-.827.504-1.481 1.293-1.963 2.368-.448 1.04-.672 2.384-.672 4.03 0 2.45.517 4.28 1.55 5.49q.65.74 1.464 1.169 1.126.594 2.566.594zm159.097-5.642h-1.808c-1.756 0-3.185.1-4.287.302-1.068.168-1.843.47-2.325.907-.448.437-.672 1.041-.672 1.813 0 .94.327 1.713.981 2.317.689.605 1.671.907 2.945.907.999 0 1.877-.218 2.635-.655a5.142 5.142 0 001.86-1.863c.448-.806.671-1.713.671-2.72v-1.008z" fill="#FF7020" fill-rule="evenodd"/><path d="M237.41 0h66.906v66.593H237.41z"/><g clip-path="url(#a)"><path d="M290.121 14.622l5.576-.176v19.731h-6.726l1.15-19.555z" fill="#FFF"/><ellipse cx="272.952" cy="48.623" rx="6.638" ry="8.456" fill="#FFF"/><path d="M260.774 21.052c0 4.67-3.237 3.876-6.903 3.876-3.665 0-6.106-1.233-6.106-2.907 0-4.67 2.706-5.285 6.372-5.285s6.637-.354 6.637 4.316z" fill="#FFF"/><path d="M244.467 5.879a3.674 3.674 0 00-.98.871l-.392.56v13.955l.34.872c1.228 3.134 3.868 5.215 7.043 5.54l.849.092.066 15.737.065 15.738.288.468c.17.26.548.637.849.846.484.338.654.377 1.542.377.875 0 1.058-.04 1.516-.351a3.99 3.99 0 00.836-.846l.327-.481.065-15.738.065-15.75.85-.091c3.254-.326 6.102-2.654 7.096-5.762.287-.898.287-1.04.287-7.752V7.323l-.353-.508c-.575-.806-1.176-1.144-2.182-1.196-1.072-.052-1.843.299-2.431 1.131l-.392.56-.065 3.264-.066 3.278h-2.744l-.065-3.265c-.065-3.212-.065-3.264-.392-3.733-.549-.82-1.215-1.183-2.208-1.235-1.072-.052-1.843.299-2.431 1.131l-.392.56-.065 3.264-.066 3.278h-2.744l-.065-3.265-.065-3.264-.353-.508c-.575-.806-1.177-1.144-2.183-1.196-.718-.04-.967.013-1.45.26zm15.158 13.89c0 .794-.64 1.665-1.568 2.16-.418.22-.784.247-3.92.247-3.293 0-3.489-.013-3.986-.286-.888-.468-1.503-1.34-1.503-2.12v-.39h10.977v.39zm11.931-13.89a3.674 3.674 0 00-.98.871l-.392.56-.065 14.502-.065 14.502-1.098.325c-2.745.78-4.796 2.42-5.946 4.721-1.006 2.042-1.176 2.888-1.176 5.853 0 2.172.039 2.692.274 3.642 1.281 5.033 4.117 8.467 8.076 9.78.771.248 1.19.3 2.679.3 1.49 0 1.908-.052 2.679-.3 3.959-1.313 6.795-4.747 8.076-9.78.235-.95.274-1.47.274-3.642 0-2.185-.039-2.68-.288-3.577-.979-3.602-3.318-5.996-6.833-6.997l-1.098-.325-.066-14.49-.065-14.501-.353-.508c-.575-.806-1.176-1.144-2.182-1.196-.719-.04-.967.013-1.451.26zm3.882 36.132c1.463.494 2.417 1.625 2.783 3.264.248 1.132.104 3.967-.262 5.125-.679 2.133-1.973 3.928-3.371 4.63-.876.442-2.561.455-3.424.013-1.489-.767-2.692-2.432-3.423-4.708-.262-.859-.301-1.236-.301-3.122 0-2.094.013-2.159.379-2.965.653-1.405 1.986-2.316 3.737-2.55 0 0 3.071.052 3.882.313zm21.313-36.184c-1.672.871-4.26 3.238-5.854 5.332-3.972 5.268-6.285 12.708-6.821 22.007-.196 3.408-.105 3.915.797 4.813.876.871 1.111.91 6.076.91h4.26V59.01l.301.546c.157.312.549.742.863.976.509.364.64.403 1.567.403.889 0 1.072-.04 1.53-.351a3.99 3.99 0 00.836-.846l.327-.481V7.323l-.353-.508c-.575-.819-1.176-1.144-2.182-1.196-.654-.026-.981.013-1.347.208zm-1.542 18.235v9.234h-5.527l.091-1.34c.236-3.576 1.111-7.894 2.248-11.08.758-2.108 2.796-6.049 3.123-6.049.04 0 .065 4.15.065 9.235z" fill="#FF7020"/></g></svg>