<svg width="36" height="36" fill="none" xmlns="http://www.w3.org/2000/svg"><defs><clipPath id="a"><path fill="#fff" fill-opacity="0" d="M0 0h36v36H0z"/></clipPath></defs><path d="M0 0h36v36H0z"/><g clip-path="url(#a)"><path d="M36 18a18 18 0 11-36 0 18 18 0 0136 0zm-17.355-4.711c-1.75.729-5.251 2.236-10.498 4.522-.85.338-1.298.67-1.338.994-.068.547.618.763 1.552 1.058l.394.124c.918.299 2.155.648 2.796.661.586.014 1.236-.225 1.953-.72 4.903-3.31 7.435-4.981 7.592-5.017.113-.027.27-.059.374.036.105.092.094.27.083.317-.068.29-2.761 2.792-4.154 4.088-.434.405-.742.691-.805.756-.139.142-.28.282-.423.419-.855.823-1.494 1.44.034 2.448.735.486 1.325.884 1.912 1.284.639.437 1.278.871 2.106 1.416.21.135.412.281.608.42.744.532 1.417 1.009 2.243.932.481-.045.979-.495 1.23-1.845.597-3.188 1.77-10.093 2.039-12.94a3.221 3.221 0 00-.029-.709.759.759 0 00-.257-.488 1.181 1.181 0 00-.697-.209c-.675.011-1.717.373-6.715 2.453z" fill="#FF7020"/></g></svg>