<svg width="244" height="119" fill="none" xmlns="http://www.w3.org/2000/svg"><path d="M34.41 65.046s-27.604 1.5-30.905 16.802C.205 97.15 14.607 94.15 25.71 93.55c11.101-.6-10.502 20.703 8.701 22.503 8.028.753 13.38-3.843 17.748-8.439 6.08-6.397 10.247-12.794 17.057-4.763 11.701 13.802 30.004 12.303 39.005-.299 9.002-12.602 16.502-4.5 34.205 1.2 17.703 5.701 29.705-9.301 24.004-27.605-2.831-9.086 3.287-7.819 11.23-6.553 8.058 1.285 17.993 2.57 22.373-6.948 8.701-18.903-9.901-22.203 12.303-26.703 22.203-4.503 31.804-6.001 28.204-18.152-3.6-12.154-12.002-21.154-40.207-9.152-28.202 12-53.707 64.509-165.922 56.407z" fill="#48C75A"/><path d="M29.977 102.137c1.19-3.669 2.201-6.836.452-9.109-.908-1.182-2.352-1.779-4.294-1.779-.178 0-.362.004-.55.014-1.273.069-2.603.17-3.89.268-2.32.176-4.76.361-7.02.361-.261 0-.52-.002-.776-.006 1.544-5.52 4.415-10.906-.715-10.906-.142 0-.29.002-.444.012-2.184.117-4.494.327-6.773.474 1.18-3.94 4.384-6.794 8.24-8.86.442 2.25.954 4.474 1.533 6.672 9.167 4.64 19.05 7.797 29.458 9.564-4.163 3.574-8.499 10.343-15.22 13.295zm46.053-2.081a23.79 23.79 0 01-7.77-1.314c-1.368-1.048-2.741-1.664-4.141-1.866-2.81-1.577-5.48-3.761-7.873-6.584l-.098-.115c3.267.248 6.576.373 9.92.373 10.21 0 20.755-1.146 31.483-3.366a25.255 25.255 0 00-2.3 2.81c-4.653 6.516-11.792 10.062-19.22 10.062zm60.814-7.636c-2.315 0-4.789-.391-7.386-1.227-8.148-2.623-14.136-5.756-19.102-7.144 8.049-2.269 16.158-5.114 24.269-8.502l.101-.043a.933.933 0 00.101-.042l.032-.012.075-.032.024-.01c.032-.014.066-.029.099-.04l.002-.003.106-.044c.002-.002.004-.002.006-.002l.097-.042c.004-.002.012-.004.018-.008.028-.013.059-.025.089-.037l.014-.006a3.74 3.74 0 01.101-.042l.002-.002.213-.09.008-.003.097-.042.01-.004c.143-.06.284-.119.425-.181l.004-.002c.323-.137.643-.274.963-.413l.006-.002.425-.184.004-.004.424-.181.008-.006c.141-.063.278-.121.419-.183l.01-.005.094-.042.011-.004c.102-.044.209-.093.312-.137a.042.042 0 00.012-.008c.03-.012.06-.024.089-.038.004-.002.012-.004.016-.008.036-.014.064-.028.098-.043h.002c.069-.032.139-.062.208-.092a.071.071 0 01.018-.008l.083-.037.02-.01.084-.036c.006-.004.013-.006.021-.01.066-.028.131-.058.197-.089a.134.134 0 01.03-.012l.071-.032c.01-.006.02-.008.03-.014l.068-.03a.647.647 0 01.033-.014l.08-.037a.159.159 0 01.018-.008l.099-.044c.008-.004.016-.008.024-.01.022-.012.049-.022.073-.032l.036-.019c.02-.008.038-.018.059-.026.016-.006.028-.012.044-.02l.052-.022c.014-.008.03-.014.045-.02a.49.49 0 01.048-.022l.095-.043.04-.02.056-.024.037-.018.058-.026.034-.014c.022-.012.043-.02.065-.03l.006-.003c.08-.038.163-.074.246-.112l.01-.004.08-.037.002-.002a213.18 213.18 0 0012.856-6.388c3.226 14.433-4.634 26.183-17.324 26.183zm36.548-34.498c-1.579 0-3.183-.129-4.762-.318 7.561-4.983 14.55-10.392 20.868-16.195-.205 2.464-.888 5.325-2.432 8.678-2.871 6.235-8.125 7.835-13.674 7.835zm33.731-36.116c3.435-4.722 6.475-9.626 9.082-14.695-.169-.365-.34-.73-.512-1.092 2.466-.494 4.731-.741 6.79-.741 1.948 0 3.713.221 5.287.666 2.629 10.03-4.38 12.474-20.647 15.862z" fill="#539256"/><path d="M88.966 110.327l-.222-.002c4.058-1.78 7.693-4.673 10.484-8.581 3.705-5.187 7.172-7.06 11.125-7.06.863 0 1.753.089 2.672.255-2.241 1.165-4.439 3.164-6.669 6.282-3.929 5.503-9.939 8.814-16.487 9.086-.302.013-.602.02-.903.02zm62.256-7.678c8.917-4.113 12.342-15.367 9.688-28.885-1.052-5.36 1.281-6.693 5.244-6.693.145 0 .29 0 .436.004a5.114 5.114 0 00-1.838 1.344c-2.063 2.38-1.279 5.939-.509 8.409 2.639 8.47 1.226 16.752-3.686 21.617-2.532 2.508-5.72 3.923-9.335 4.204zm35.193-34.488c-.497 0-1.006-.013-1.523-.037 4.712-.7 9.002-2.958 11.629-8.667 9.221-20.031-10.491-23.53 13.038-28.299 16.154-3.274 26.008-5.051 29.366-10.013.235 2.058-.213 3.16-.633 3.855-2.3 3.827-11.034 5.591-24.251 8.262l-2.162.436c-7.539 1.529-10.905 2.991-12.412 5.395-1.39 2.21-.797 4.536-.172 7 .927 3.638 2.079 8.166-1.34 15.596-2.299 4.99-6.34 6.472-11.54 6.472z" fill="#A4E3AD"/><path d="M26.134 91.25c1.943 0 3.386.596 4.294 1.779 1.762 2.289.724 5.486-.477 9.187-1.098 3.383-2.343 7.22-.993 9.273.817 1.241 2.722 2.009 5.666 2.285 8.094.757 13.222-4.824 17.745-9.751 3.447-3.754 6.692-7.32 10.875-7.216 2.633.052 5.158 1.545 7.717 4.564 5.135 6.056 11.85 9.232 18.908 8.936 6.549-.272 12.558-3.583 16.488-9.085 7.933-11.105 15.493-8.006 25.958-3.72 3.151 1.29 6.72 2.753 10.813 4.071 6.945 2.235 13.134 1.126 17.429-3.128 4.911-4.864 6.323-13.147 3.686-21.617-.77-2.47-1.554-6.028.51-8.41 2.446-2.821 7.112-2.072 12.517-1.204 9.569 1.536 17.171 2.107 20.683-5.526 3.422-7.43 2.268-11.959 1.342-15.597-.627-2.461-1.219-4.788.17-7 1.509-2.401 4.874-3.864 12.415-5.393l2.161-.437c13.217-2.67 21.95-4.433 24.251-8.26.575-.954 1.204-2.67.053-6.56-1.815-6.124-4.503-9.846-8.462-11.712-6.053-2.85-15.695-1.5-28.653 4.016-6.682 2.843-13.428 8.235-21.237 14.48-12.192 9.744-27.363 21.875-50.124 30.733-26.614 10.358-57.845 14.08-95.468 11.382-2.017.14-25.874 2.084-28.658 14.99-.753 3.494-.512 5.978.716 7.386 2.43 2.788 9.233 2.272 15.235 1.817 1.288-.099 2.617-.2 3.89-.269.189-.01.372-.014.55-.014zm9.976 27.174c-.623 0-1.26-.03-1.913-.091-4.458-.419-7.423-1.835-9.064-4.329-2.558-3.889-.884-9.052.463-13.201.529-1.631 1.313-4.048 1.189-4.92-.15-.034-.442-.076-.953-.047-1.224.066-2.471.16-3.792.261-7.42.562-15.094 1.145-19.032-3.372-2.26-2.591-2.83-6.31-1.74-11.36 3.627-16.815 31.82-18.54 33.018-18.605.096-.004.193-.004.29.004 83.585 6.03 117.668-21.22 142.558-41.115 8.071-6.454 15.043-12.029 22.304-15.117C213.85.4 224.447-.89 231.834 2.588c5.224 2.463 8.688 7.085 10.9 14.552 1.25 4.221 1.08 7.563-.519 10.222-3.342 5.553-12.347 7.372-27.268 10.387l-2.157.437c-5.589 1.133-8.765 2.257-9.447 3.342-.33.522-.065 1.645.39 3.434.986 3.877 2.478 9.737-1.62 18.642-5.247 11.394-17.477 9.43-25.569 8.13-3.009-.48-7.555-1.215-8.331-.317-.028.03-.621.768.4 4.049 3.198 10.262 1.389 20.068-4.836 26.233-5.486 5.436-13.526 6.977-22.054 4.231-4.259-1.371-7.916-2.87-11.143-4.191-10.377-4.252-14.672-6.011-20.497 2.143-4.756 6.66-12.055 10.668-20.023 10.999-8.504.352-16.524-3.393-22.59-10.549-1.639-1.932-3.091-2.923-4.317-2.947h-.047c-2.098 0-4.656 2.786-7.365 5.735-4.423 4.818-10.378 11.304-19.631 11.304z" fill="#6D184E"/></svg>