<svg width="208" height="151" fill="none" xmlns="http://www.w3.org/2000/svg"><path d="M125.626 133.547c37.018-15.47 66.53-39.159 81.577-68.436-16.721-36.153-53.037-61.387-95.326-62.07C53.127 2.097 4.248 49.294 3.224 108.044a107.158 107.158 0 003.516 29.235c33.298 16.856 76.096 14.148 118.886-3.731z" fill="#F9A332"/><path d="M126.439 4.265h-.002.002zm-.11-.015c-.003 0-.003-.003-.005-.003.002 0 .002.003.005.003zm-.058-.01l-.002-.001.002.002zm-.053-.008l-.009-.002.009.002zm-.06-.009h-.002.002zm-.167-.024l-.005-.002.005.002zm-.276-.042h-.007.007zm-.049-.007l-.015-.002.015.002zm-.055-.009l-.018-.002a.045.045 0 00.018.002zm-.051-.006c-.011-.002-.018-.002-.029-.005.009.003.02.003.029.005zm-.055-.01a.163.163 0 01-.031-.003l.031.004zm-.06-.008l-.029-.002.029.002zm-.059-.007l-.027-.004c.009 0 .015.002.027.004zm-.056-.008c-.011-.003-.022-.003-.033-.005.011.002.02.002.033.005zm-.059-.01a.12.12 0 01-.031-.004c.013.003.02.005.031.005zm-.058-.008l-.028-.002.028.002zm-.059-.007l-.027-.004.027.004zm-.058-.009l-.035-.004.035.004zm-.057-.006c-.016-.005-.029-.005-.047-.009.018.004.031.004.047.009zm-.058-.009a.512.512 0 01-.055-.009c.018.002.038.007.055.01zm-.068-.009c-.018-.004-.031-.004-.049-.009l.049.01zm-.064-.009a1.104 1.104 0 00-.044-.006l.044.006zm-.062-.008c-.011-.003-.026-.005-.04-.007l.04.007zm-.062-.01c-.013-.002-.022-.004-.035-.004a.19.19 0 01.035.005zm-.057-.008c-.013-.002-.025-.002-.038-.005.013.003.025.003.038.005zm-.058-.007l-.039-.006.039.006zm-.055-.009l-.044-.004.044.004zm-.062-.006l-.042-.007.042.007zm-.057-.01a1.287 1.287 0 010 .001zm-.06-.008zm-.057-.007l-.049-.006.049.006zm-.06-.008l-.055-.007.055.007zm-.055-.007l-.06-.007.06.007zm-.06-.007zm-.364-.048l-.055-.007.055.007zm-.06-.007l-.057-.006.057.006zm-.057-.009l-.119-.013.119.013zm-.124-.013zm-.057-.009l-.058-.006.058.006zm-.06-.006zm-9.938-.769h-.06.06zm-.062 0c-.02-.002-.038-.002-.059-.002.02 0 .04 0 .059.002zm-.061-.002zm-.064-.002l-.053-.003.053.003zm-.062-.003c-.016 0-.038 0-.053-.002.016.003.036.002.053.002zm-.062-.002h-.055.055zm-.059 0zm-.062-.002zm-.376-.011h-.055.055zm-.058 0l-.056-.002.056.002zm-.068-.002h-.049.049zm-.063 0zm-.062-.002h-.044.044zm-.062-.003h-.039.039zm-.063 0c-.012 0-.025 0-.037-.002a.236.236 0 00.037.002zm-.06-.002h-.038.038zm-.06 0l-.039-.002.039.002zm-.061-.002h-.036.036zm-.061 0c-.012 0-.025 0-.037-.002a.223.223 0 00.037.002zm-.06-.002h-.046.046zm-.06 0zm-.061-.002c-.053 0-.108 0-.161-.003.054.003.107.003.161.003zm-2.556-.011c.141 0 .281-.003.421-.003h.047c-.157.003-.311.003-.468.003z" fill="#FFF6AF"/><path d="M13.96 63.333C31.22 27.987 67.412 3.513 108.92 3.04l.4-.009.468-.002h.377c.515 0 1.032.005 1.55.011l.162.002c.021 0 .04 0 .061.003h.082c.013 0 .025 0 .037.002h.083c.013 0 .027 0 .039.002h.083a.23.23 0 01.037.002h.082l.044.002h.075a.364.364 0 00.049.003h.012c.021 0 .034 0 .056.002h.066l.368.01h.066a.475.475 0 00.056.003h.009l.052.002h.009c.015 0 .037 0 .053.003h.007c.02 0 .037 0 .057.002.002 0-.001-.002.002 0h.061c.021.002.04.002.06.002h.003c3.352.104 6.664.362 9.935.768h.002l.058.007.059.007.005.002.117.013c.02.005.037.005.057.009h.005l.055.007h.004l.36.046.06.009.055.006.013.003.049.006c.004 0 .004 0 .011.003a.326.326 0 01.062.006l.042.007.015.002c.018.002.029.004.042.004a.05.05 0 00.018.003l.044.006.015.002c.011.003.027.005.04.007.007 0 .013 0 .02.002.013.002.024.002.038.005.008.002.013.002.022.002l.035.006c.007 0 .015.003.024.003a.223.223 0 00.038.004c.004.002.015.002.02.005l.044.004a.027.027 0 00.013.002l.049.007.013.002a.35.35 0 01.055.009h.011l.049.006c.004.003.013.003.02.005a.26.26 0 01.037.004l.029.005.026.002a.16.16 0 00.031.004.11.11 0 00.029.005l.029.004c.009.002.02.002.029.005l.026.004a.17.17 0 01.033.004c.009 0 .02.003.029.005l.026.002a.15.15 0 00.031.004c.011.003.018.005.029.005.009.002.02.004.031.004.009.003.018.003.029.005l.026.004c.011.002.018.002.029.005a.17.17 0 01.033.004l.018.002.039.007a.05.05 0 01.016.002l.042.007h.006c.089.013.184.026.272.04h.004c.038.006.076.01.113.017a.442.442 0 01.053.009h.004l.051.007.007.002.051.006h.002c.02.005.033.007.053.01h.004c.018.004.038.006.053.008.02.002.038.007.056.009h.002c33.45 5.123 61.791 25.752 77.468 54.316-18.199-25.42-46.517-43.093-79.063-47.154-.689 3.933-7.186 7.018-15.102 7.018-7.777 0-14.183-2.977-15.06-6.81-19.192 2.678-36.938 10.15-51.947 21.169l.08-.15v.002c-.157.144-.313.29-.468.435a116.146 116.146 0 00-28.386 30.24z" fill="#FCD199"/><path d="M125.624 133.548l.101-.043c-.033.015-.069.028-.101.043zm.129-.054l.072-.03a5.272 5.272 0 01-.072.03zm.104-.044l.074-.031-.074.031zm.1-.041l.097-.042a4.686 4.686 0 01-.097.042zm.102-.043l.105-.044-.105.044zm.111-.047c.031-.013.065-.026.096-.041a2.511 2.511 0 01-.096.041zm.115-.048l.088-.037-.088.037zm.102-.044c.034-.014.067-.027.1-.042-.032.015-.066.028-.1.042zm.103-.043l.213-.091c-.07.031-.141.06-.213.091zm.222-.094l.097-.041c-.034.013-.063.028-.097.041zm.107-.046l.426-.18-.426.18zm.429-.183l.964-.413-.964.413zm.969-.416l.424-.183-.424.183zm.429-.186l.422-.184-.422.184zm.431-.188l.42-.183-.42.183zm.43-.188l.094-.042-.094.042zm.103-.045l.313-.138-.313.138zm.326-.144l.088-.04a7.527 7.527 0 01-.088.04zm.106-.047l.098-.043-.098.043zm.098-.044zm.226-.1l.084-.037-.084.037zm.103-.046l.085-.038c-.026.013-.057.025-.085.038zm.104-.047zm.229-.101a.905.905 0 01.071-.032l-.071.032zm.102-.045l.067-.031c-.023.01-.044.019-.067.031zm.099-.046l.08-.035-.08.035zm.099-.044l.098-.044-.098.044zm.123-.054a2.3 2.3 0 01.072-.033l-.072.033zm.109-.05l.058-.027-.058.027zm.102-.046c.018-.007.034-.016.053-.023a.499.499 0 00-.053.023zm.097-.044l.049-.022-.049.022zm.143-.064c.014-.008.028-.012.041-.019l-.041.019zm.097-.044a.403.403 0 00.036-.018l-.036.018zm.095-.044l.034-.015-.034.015zm.097-.044zm.253-.115l.01-.004a.104.104 0 00-.01.004zm.091-.041l.003-.002-.003.002z" fill="#5B6D54"/><path d="M57.087 148.543c-8.19 0-16.166-.739-23.84-2.253a103.261 103.261 0 01-11.112-3.401c-6.666-2.467-11.44-8.38-12.524-15.406a107.677 107.677 0 01-1.236-18.294c.523-30.01 13.538-56.994 33.971-76.097l.389-.288a105.858 105.858 0 00-12.588 49.289c-.155 18.296 12.852 34.016 30.83 37.427 7.425 1.408 15.123 2.095 23.026 2.095 21.822 0 45.193-5.241 68.558-15.003 16.582-6.93 31.652-15.515 44.596-25.506-15.201 20.298-37.792 37.175-64.844 49.519l-.004.002a1.226 1.226 0 01-.081.037c-.004.002-.006.004-.01.004-.083.038-.162.075-.245.111-.002.002-.004.004-.006.004l-.063.029-.034.014-.059.028c-.01.004-.026.012-.039.016-.02.009-.034.017-.054.025-.014.008-.027.012-.041.02-.032.012-.063.028-.095.043-.016.006-.032.014-.049.022-.014.006-.03.012-.044.02-.018.008-.035.014-.051.022-.014.007-.03.013-.044.021-.021.008-.041.018-.059.026-.012.006-.024.01-.037.018-.026.01-.048.021-.072.031-.011.004-.017.008-.025.012-.03.012-.067.028-.097.044l-.02.006c-.027.015-.053.025-.079.037a.25.25 0 00-.033.016l-.069.031-.03.012c-.024.01-.047.02-.071.032-.008.004-.02.008-.03.014l-.197.087-.02.01a1.67 1.67 0 01-.085.037c-.006.004-.012.006-.018.008a1.285 1.285 0 00-.083.039.054.054 0 00-.019.008l-.208.091h-.002c-.033.016-.063.028-.098.044-.004.002-.012.004-.018.008l-.087.039-.014.006-.312.138-.008.004c-.033.012-.065.028-.095.04-.004.002-.006.004-.01.004-.14.063-.282.124-.42.185-.002.002-.008.004-.008.006l-.423.182-.004.002-.426.185-.004.002-.964.413-.004.002-.425.182c-.005 0-.007.002-.011.004l-.097.041a19.252 19.252 0 00-.221.093c0 .002 0 .002-.004.002a4.935 4.935 0 01-.099.042l-.014.007a1.379 1.379 0 01-.089.036l-.019.008-.095.041-.006.002-.105.044-.004.002-.097.041-.027.01-.073.032c-.01.004-.022.008-.032.014-.026.011-.049.019-.073.031-.01.002-.02.008-.028.01-.035.016-.067.028-.102.042-23.36 9.763-46.719 14.997-68.537 14.997z" fill="#BF6700"/><path d="M42.346 33.091c.156-.146.312-.29.469-.434v-.002l-.08.15-.39.286z" fill="#D19982"/><path d="M57.668 43.9c-1.108 3.481-3.02 6.03-4.239 5.643-1.218-.389-1.308-3.572-.201-7.056 1.106-3.482 3.02-6.03 4.239-5.643 1.14.364 1.306 3.189.376 6.472l-.175.583zm18.077 2.242c-.625 3.603-2.175 6.386-3.435 6.167-1.259-.218-1.78-3.361-1.156-6.962.626-3.602 2.176-6.385 3.435-6.166 1.181.204 1.727 2.982 1.25 6.361l-.094.6zm23.338-.723c.51 3.62-.113 6.745-1.38 6.922-1.266.179-2.725-2.654-3.234-6.274-.508-3.618.116-6.743 1.38-6.92 1.187-.167 2.558 2.308 3.14 5.672l.094.6zm19.517-7.484c1.934 3.1 2.63 6.21 1.547 6.886-1.084.677-3.569-1.32-5.501-4.421-1.936-3.1-2.633-6.21-1.549-6.886 1.017-.634 3.275 1.073 5.17 3.91l.333.511zm14.967-12.412c2.593 2.579 3.981 5.446 3.078 6.353-.902.904-3.773-.472-6.364-3.05-2.591-2.578-3.981-5.445-3.079-6.352.846-.848 3.433.298 5.929 2.627l.436.422z" fill="#FCE69F"/><path d="M60.075 103.002c-1.217 0-2.2-.985-2.2-2.2a2.199 2.199 0 114.4 0 2.2 2.2 0 01-2.2 2.2zM95.563 82.1a2.2 2.2 0 110-4.402 2.2 2.2 0 010 4.401z" fill="#BF6700"/><path d="M102.834 104.997a2.2 2.2 0 110-4.4 2.2 2.2 0 010 4.4zm21.232-26.933a2.2 2.2 0 010-4.4 2.201 2.201 0 110 4.4z" fill="#E99335"/><path d="M146.781 96.071a2.2 2.2 0 110-4.402 2.2 2.2 0 010 4.402zm2.943-33.292a2.2 2.2 0 110-4.4 2.2 2.2 0 010 4.4zm15.816-18.856a2.2 2.2 0 11-.002-4.4 2.2 2.2 0 01.002 4.4z" fill="#BF6700"/><path d="M60.515 80.15a2.2 2.2 0 110-4.4 2.2 2.2 0 010 4.4z" fill="#E99335"/><path d="M187.122 64.647a2.2 2.2 0 11.002-4.4 2.2 2.2 0 01-.002 4.4z" fill="#BF6700"/><path d="M172.855 88.676a2.201 2.201 0 110-4.399 2.201 2.201 0 010 4.399z" fill="#E99335"/><path d="M110.132 5.318c-56.858 0-103.626 45.748-104.62 102.766-.105 6.048.31 12.123 1.234 18.056.954 6.124 5.126 11.26 10.89 13.406 29.919 11.129 67.956 8.247 107.106-8.112 33.242-13.89 59.053-33.763 74.639-57.471 3.561-5.412 3.715-12.469.392-17.974-18.777-31.137-51.65-50.075-87.932-50.658a109.47 109.47 0 00-1.709-.013zM57.033 150.841c-14.721 0-28.467-2.345-40.994-7.005-7.314-2.721-12.609-9.233-13.817-16.993a110.27 110.27 0 01-1.287-18.839c.506-29.02 12.36-56.188 33.377-76.494C55.325 11.21 82.885.271 111.914.754c18.814.303 37.293 5.479 53.444 14.968a109.98 109.98 0 0138.336 37.901c4.226 7.008 4.035 15.978-.485 22.854-16.091 24.475-42.615 44.939-76.703 59.181-19.747 8.253-39.159 13.198-57.698 14.698-3.989.323-7.916.485-11.775.485z" fill="#6D184E"/></svg>