<svg width="36" height="36" fill="none" xmlns="http://www.w3.org/2000/svg"><path d="M18 0C8.059 0 0 8.059 0 18s8.059 18 18 18 18-8.059 18-18S27.941 0 18 0zm6.922 20.308s1.592 1.571 1.984 2.3c.012.016.017.03.02.038.16.268.198.477.119.632-.131.259-.581.386-.735.398h-2.812c-.195 0-.604-.051-1.1-.392-.38-.267-.755-.703-1.12-1.129-.546-.634-1.019-1.181-1.495-1.181-.06 0-.12.01-.178.028-.36.116-.821.63-.821 1.999 0 .427-.338.673-.576.673H16.92c-.439 0-2.724-.154-4.75-2.29-2.478-2.615-4.71-7.861-4.728-7.91-.14-.34.15-.521.467-.521h2.84c.379 0 .503.23.589.434.102.239.473 1.185 1.082 2.25.988 1.737 1.594 2.442 2.08 2.442a.56.56 0 00.26-.068c.634-.352.515-2.612.488-3.08 0-.088-.002-1.011-.327-1.454-.232-.32-.628-.442-.868-.487a1.03 1.03 0 01.373-.317c.435-.217 1.219-.25 1.997-.25h.433c.844.012 1.061.066 1.367.143.619.148.632.548.578 1.915-.017.388-.034.826-.034 1.344 0 .113-.006.233-.006.36-.018.696-.04 1.485.45 1.81.064.04.139.061.214.061.17 0 .684 0 2.075-2.387.43-.768.803-1.566 1.116-2.388.029-.05.111-.2.208-.257a.5.5 0 01.233-.055h3.34c.363 0 .612.055.66.195.082.223-.016.904-1.54 2.968l-.68.899c-1.382 1.81-1.382 1.903.085 3.277z" fill="#FF7020"/></svg>